G75*
%MOIN*%
%OFA0B0*%
%FSLAX25Y25*%
%IPPOS*%
%LPD*%
%AMOC8*
5,1,8,0,0,1.08239X$1,22.5*
%
%ADD10C,0.06000*%
%ADD11R,0.06800X0.23800*%
%ADD12C,0.13300*%
%ADD13C,0.08000*%
%ADD14OC8,0.06000*%
%ADD15OC8,0.06800*%
%ADD16C,0.06400*%
%ADD17OC8,0.06400*%
D10*
X0091300Y0064250D02*
X0091300Y0069450D01*
X0101300Y0069450D02*
X0101300Y0064250D01*
X0111300Y0064250D02*
X0111300Y0069450D01*
X0121300Y0069450D02*
X0121300Y0064250D01*
X0131300Y0064250D02*
X0131300Y0069450D01*
X0141300Y0069450D02*
X0141300Y0064250D01*
X0151300Y0064250D02*
X0151300Y0069450D01*
X0161300Y0069450D02*
X0161300Y0064250D01*
X0171300Y0064250D02*
X0171300Y0069450D01*
X0181300Y0069450D02*
X0181300Y0064250D01*
X0211300Y0064250D02*
X0211300Y0069450D01*
X0221300Y0069450D02*
X0221300Y0064250D01*
X0231300Y0064250D02*
X0231300Y0069450D01*
X0241300Y0069450D02*
X0241300Y0064250D01*
X0251300Y0064250D02*
X0251300Y0069450D01*
X0261300Y0069450D02*
X0261300Y0064250D01*
X0271300Y0064250D02*
X0271300Y0069450D01*
X0281300Y0069450D02*
X0281300Y0064250D01*
X0291300Y0064250D02*
X0291300Y0069450D01*
X0301300Y0069450D02*
X0301300Y0064250D01*
X0326300Y0064250D02*
X0326300Y0069450D01*
X0336300Y0069450D02*
X0336300Y0064250D01*
X0346300Y0064250D02*
X0346300Y0069450D01*
X0356300Y0069450D02*
X0356300Y0064250D01*
X0366300Y0064250D02*
X0366300Y0069450D01*
X0376300Y0069450D02*
X0376300Y0064250D01*
X0386300Y0064250D02*
X0386300Y0069450D01*
X0396300Y0069450D02*
X0396300Y0064250D01*
X0406300Y0064250D02*
X0406300Y0069450D01*
X0416300Y0069450D02*
X0416300Y0064250D01*
X0441300Y0064250D02*
X0441300Y0069450D01*
X0451300Y0069450D02*
X0451300Y0064250D01*
X0461300Y0064250D02*
X0461300Y0069450D01*
X0471300Y0069450D02*
X0471300Y0064250D01*
X0481300Y0064250D02*
X0481300Y0069450D01*
X0491300Y0069450D02*
X0491300Y0064250D01*
X0501300Y0064250D02*
X0501300Y0069450D01*
X0511300Y0069450D02*
X0511300Y0064250D01*
X0521300Y0064250D02*
X0521300Y0069450D01*
X0531300Y0069450D02*
X0531300Y0064250D01*
X0556300Y0064250D02*
X0556300Y0069450D01*
X0566300Y0069450D02*
X0566300Y0064250D01*
X0576300Y0064250D02*
X0576300Y0069450D01*
X0586300Y0069450D02*
X0586300Y0064250D01*
X0596300Y0064250D02*
X0596300Y0069450D01*
X0606300Y0069450D02*
X0606300Y0064250D01*
X0616300Y0064250D02*
X0616300Y0069450D01*
X0626300Y0069450D02*
X0626300Y0064250D01*
X0636300Y0064250D02*
X0636300Y0069450D01*
X0646300Y0069450D02*
X0646300Y0064250D01*
X0646300Y0094250D02*
X0646300Y0099450D01*
X0636300Y0099450D02*
X0636300Y0094250D01*
X0626300Y0094250D02*
X0626300Y0099450D01*
X0616300Y0099450D02*
X0616300Y0094250D01*
X0606300Y0094250D02*
X0606300Y0099450D01*
X0596300Y0099450D02*
X0596300Y0094250D01*
X0586300Y0094250D02*
X0586300Y0099450D01*
X0576300Y0099450D02*
X0576300Y0094250D01*
X0566300Y0094250D02*
X0566300Y0099450D01*
X0556300Y0099450D02*
X0556300Y0094250D01*
X0531300Y0094250D02*
X0531300Y0099450D01*
X0521300Y0099450D02*
X0521300Y0094250D01*
X0511300Y0094250D02*
X0511300Y0099450D01*
X0501300Y0099450D02*
X0501300Y0094250D01*
X0491300Y0094250D02*
X0491300Y0099450D01*
X0481300Y0099450D02*
X0481300Y0094250D01*
X0471300Y0094250D02*
X0471300Y0099450D01*
X0461300Y0099450D02*
X0461300Y0094250D01*
X0451300Y0094250D02*
X0451300Y0099450D01*
X0441300Y0099450D02*
X0441300Y0094250D01*
X0416300Y0094250D02*
X0416300Y0099450D01*
X0406300Y0099450D02*
X0406300Y0094250D01*
X0396300Y0094250D02*
X0396300Y0099450D01*
X0386300Y0099450D02*
X0386300Y0094250D01*
X0376300Y0094250D02*
X0376300Y0099450D01*
X0366300Y0099450D02*
X0366300Y0094250D01*
X0356300Y0094250D02*
X0356300Y0099450D01*
X0346300Y0099450D02*
X0346300Y0094250D01*
X0336300Y0094250D02*
X0336300Y0099450D01*
X0326300Y0099450D02*
X0326300Y0094250D01*
X0301300Y0094250D02*
X0301300Y0099450D01*
X0291300Y0099450D02*
X0291300Y0094250D01*
X0281300Y0094250D02*
X0281300Y0099450D01*
X0271300Y0099450D02*
X0271300Y0094250D01*
X0261300Y0094250D02*
X0261300Y0099450D01*
X0251300Y0099450D02*
X0251300Y0094250D01*
X0241300Y0094250D02*
X0241300Y0099450D01*
X0231300Y0099450D02*
X0231300Y0094250D01*
X0221300Y0094250D02*
X0221300Y0099450D01*
X0211300Y0099450D02*
X0211300Y0094250D01*
X0181300Y0094250D02*
X0181300Y0099450D01*
X0171300Y0099450D02*
X0171300Y0094250D01*
X0161300Y0094250D02*
X0161300Y0099450D01*
X0151300Y0099450D02*
X0151300Y0094250D01*
X0141300Y0094250D02*
X0141300Y0099450D01*
X0131300Y0099450D02*
X0131300Y0094250D01*
X0121300Y0094250D02*
X0121300Y0099450D01*
X0111300Y0099450D02*
X0111300Y0094250D01*
X0101300Y0094250D02*
X0101300Y0099450D01*
X0091300Y0099450D02*
X0091300Y0094250D01*
X0091300Y0129250D02*
X0091300Y0134450D01*
X0081300Y0134450D02*
X0081300Y0129250D01*
X0071300Y0129250D02*
X0071300Y0134450D01*
X0061300Y0134450D02*
X0061300Y0129250D01*
X0051300Y0129250D02*
X0051300Y0134450D01*
X0051300Y0159250D02*
X0051300Y0164450D01*
X0061300Y0164450D02*
X0061300Y0159250D01*
X0071300Y0159250D02*
X0071300Y0164450D01*
X0081300Y0164450D02*
X0081300Y0159250D01*
X0091300Y0159250D02*
X0091300Y0164450D01*
X0101300Y0164450D02*
X0101300Y0159250D01*
X0111300Y0159250D02*
X0111300Y0164450D01*
X0121300Y0164450D02*
X0121300Y0159250D01*
X0131300Y0159250D02*
X0131300Y0164450D01*
X0141300Y0164450D02*
X0141300Y0159250D01*
X0151300Y0159250D02*
X0151300Y0164450D01*
X0161300Y0164450D02*
X0161300Y0159250D01*
X0161300Y0134450D02*
X0161300Y0129250D01*
X0151300Y0129250D02*
X0151300Y0134450D01*
X0141300Y0134450D02*
X0141300Y0129250D01*
X0131300Y0129250D02*
X0131300Y0134450D01*
X0121300Y0134450D02*
X0121300Y0129250D01*
X0111300Y0129250D02*
X0111300Y0134450D01*
X0101300Y0134450D02*
X0101300Y0129250D01*
X0098700Y0221850D02*
X0103900Y0221850D01*
X0103900Y0231850D02*
X0098700Y0231850D01*
X0098700Y0241850D02*
X0103900Y0241850D01*
X0103900Y0251850D02*
X0098700Y0251850D01*
X0098700Y0261850D02*
X0103900Y0261850D01*
X0103900Y0271850D02*
X0098700Y0271850D01*
X0098700Y0281850D02*
X0103900Y0281850D01*
X0103900Y0291850D02*
X0098700Y0291850D01*
X0098700Y0301850D02*
X0103900Y0301850D01*
X0103900Y0311850D02*
X0098700Y0311850D01*
X0098700Y0321850D02*
X0103900Y0321850D01*
X0103900Y0331850D02*
X0098700Y0331850D01*
X0098700Y0341850D02*
X0103900Y0341850D01*
X0103900Y0351850D02*
X0098700Y0351850D01*
X0098700Y0361850D02*
X0103900Y0361850D01*
X0103900Y0371850D02*
X0098700Y0371850D01*
X0118700Y0371850D02*
X0123900Y0371850D01*
X0123900Y0361850D02*
X0118700Y0361850D01*
X0118700Y0351850D02*
X0123900Y0351850D01*
X0123900Y0341850D02*
X0118700Y0341850D01*
X0118700Y0331850D02*
X0123900Y0331850D01*
X0123900Y0321850D02*
X0118700Y0321850D01*
X0118700Y0311850D02*
X0123900Y0311850D01*
X0123900Y0301850D02*
X0118700Y0301850D01*
X0118700Y0291850D02*
X0123900Y0291850D01*
X0123900Y0281850D02*
X0118700Y0281850D01*
X0118700Y0271850D02*
X0123900Y0271850D01*
X0123900Y0261850D02*
X0118700Y0261850D01*
X0118700Y0251850D02*
X0123900Y0251850D01*
X0123900Y0241850D02*
X0118700Y0241850D01*
X0118700Y0231850D02*
X0123900Y0231850D01*
X0123900Y0221850D02*
X0118700Y0221850D01*
X0178700Y0221850D02*
X0183900Y0221850D01*
X0183900Y0231850D02*
X0178700Y0231850D01*
X0178700Y0241850D02*
X0183900Y0241850D01*
X0183900Y0251850D02*
X0178700Y0251850D01*
X0178700Y0261850D02*
X0183900Y0261850D01*
X0183900Y0271850D02*
X0178700Y0271850D01*
X0178700Y0281850D02*
X0183900Y0281850D01*
X0183900Y0291850D02*
X0178700Y0291850D01*
X0178700Y0301850D02*
X0183900Y0301850D01*
X0183900Y0311850D02*
X0178700Y0311850D01*
X0178700Y0321850D02*
X0183900Y0321850D01*
X0183900Y0331850D02*
X0178700Y0331850D01*
X0178700Y0341850D02*
X0183900Y0341850D01*
X0183900Y0351850D02*
X0178700Y0351850D01*
X0178700Y0361850D02*
X0183900Y0361850D01*
X0183900Y0371850D02*
X0178700Y0371850D01*
X0198700Y0371850D02*
X0203900Y0371850D01*
X0203900Y0361850D02*
X0198700Y0361850D01*
X0198700Y0351850D02*
X0203900Y0351850D01*
X0203900Y0341850D02*
X0198700Y0341850D01*
X0198700Y0331850D02*
X0203900Y0331850D01*
X0203900Y0321850D02*
X0198700Y0321850D01*
X0198700Y0311850D02*
X0203900Y0311850D01*
X0203900Y0301850D02*
X0198700Y0301850D01*
X0198700Y0291850D02*
X0203900Y0291850D01*
X0203900Y0281850D02*
X0198700Y0281850D01*
X0198700Y0271850D02*
X0203900Y0271850D01*
X0203900Y0261850D02*
X0198700Y0261850D01*
X0198700Y0251850D02*
X0203900Y0251850D01*
X0203900Y0241850D02*
X0198700Y0241850D01*
X0198700Y0231850D02*
X0203900Y0231850D01*
X0203900Y0221850D02*
X0198700Y0221850D01*
X0258700Y0221850D02*
X0263900Y0221850D01*
X0263900Y0231850D02*
X0258700Y0231850D01*
X0258700Y0241850D02*
X0263900Y0241850D01*
X0263900Y0251850D02*
X0258700Y0251850D01*
X0258700Y0261850D02*
X0263900Y0261850D01*
X0263900Y0271850D02*
X0258700Y0271850D01*
X0258700Y0281850D02*
X0263900Y0281850D01*
X0263900Y0291850D02*
X0258700Y0291850D01*
X0258700Y0301850D02*
X0263900Y0301850D01*
X0263900Y0311850D02*
X0258700Y0311850D01*
X0258700Y0321850D02*
X0263900Y0321850D01*
X0263900Y0331850D02*
X0258700Y0331850D01*
X0258700Y0341850D02*
X0263900Y0341850D01*
X0263900Y0351850D02*
X0258700Y0351850D01*
X0258700Y0361850D02*
X0263900Y0361850D01*
X0263900Y0371850D02*
X0258700Y0371850D01*
X0278700Y0371850D02*
X0283900Y0371850D01*
X0283900Y0361850D02*
X0278700Y0361850D01*
X0278700Y0351850D02*
X0283900Y0351850D01*
X0283900Y0341850D02*
X0278700Y0341850D01*
X0278700Y0331850D02*
X0283900Y0331850D01*
X0283900Y0321850D02*
X0278700Y0321850D01*
X0278700Y0311850D02*
X0283900Y0311850D01*
X0283900Y0301850D02*
X0278700Y0301850D01*
X0278700Y0291850D02*
X0283900Y0291850D01*
X0283900Y0281850D02*
X0278700Y0281850D01*
X0278700Y0271850D02*
X0283900Y0271850D01*
X0283900Y0261850D02*
X0278700Y0261850D01*
X0278700Y0251850D02*
X0283900Y0251850D01*
X0283900Y0241850D02*
X0278700Y0241850D01*
X0278700Y0231850D02*
X0283900Y0231850D01*
X0283900Y0221850D02*
X0278700Y0221850D01*
X0338700Y0221850D02*
X0343900Y0221850D01*
X0343900Y0231850D02*
X0338700Y0231850D01*
X0338700Y0241850D02*
X0343900Y0241850D01*
X0343900Y0251850D02*
X0338700Y0251850D01*
X0338700Y0261850D02*
X0343900Y0261850D01*
X0343900Y0271850D02*
X0338700Y0271850D01*
X0338700Y0281850D02*
X0343900Y0281850D01*
X0343900Y0291850D02*
X0338700Y0291850D01*
X0338700Y0301850D02*
X0343900Y0301850D01*
X0343900Y0311850D02*
X0338700Y0311850D01*
X0338700Y0321850D02*
X0343900Y0321850D01*
X0343900Y0331850D02*
X0338700Y0331850D01*
X0338700Y0341850D02*
X0343900Y0341850D01*
X0343900Y0351850D02*
X0338700Y0351850D01*
X0338700Y0361850D02*
X0343900Y0361850D01*
X0343900Y0371850D02*
X0338700Y0371850D01*
X0358700Y0371850D02*
X0363900Y0371850D01*
X0363900Y0361850D02*
X0358700Y0361850D01*
X0358700Y0351850D02*
X0363900Y0351850D01*
X0363900Y0341850D02*
X0358700Y0341850D01*
X0358700Y0331850D02*
X0363900Y0331850D01*
X0363900Y0321850D02*
X0358700Y0321850D01*
X0358700Y0311850D02*
X0363900Y0311850D01*
X0363900Y0301850D02*
X0358700Y0301850D01*
X0358700Y0291850D02*
X0363900Y0291850D01*
X0363900Y0281850D02*
X0358700Y0281850D01*
X0358700Y0271850D02*
X0363900Y0271850D01*
X0363900Y0261850D02*
X0358700Y0261850D01*
X0358700Y0251850D02*
X0363900Y0251850D01*
X0363900Y0241850D02*
X0358700Y0241850D01*
X0358700Y0231850D02*
X0363900Y0231850D01*
X0363900Y0221850D02*
X0358700Y0221850D01*
X0418700Y0221850D02*
X0423900Y0221850D01*
X0423900Y0231850D02*
X0418700Y0231850D01*
X0418700Y0241850D02*
X0423900Y0241850D01*
X0423900Y0251850D02*
X0418700Y0251850D01*
X0418700Y0261850D02*
X0423900Y0261850D01*
X0423900Y0271850D02*
X0418700Y0271850D01*
X0418700Y0281850D02*
X0423900Y0281850D01*
X0423900Y0291850D02*
X0418700Y0291850D01*
X0418700Y0301850D02*
X0423900Y0301850D01*
X0423900Y0311850D02*
X0418700Y0311850D01*
X0418700Y0321850D02*
X0423900Y0321850D01*
X0423900Y0331850D02*
X0418700Y0331850D01*
X0418700Y0341850D02*
X0423900Y0341850D01*
X0423900Y0351850D02*
X0418700Y0351850D01*
X0418700Y0361850D02*
X0423900Y0361850D01*
X0423900Y0371850D02*
X0418700Y0371850D01*
X0438700Y0371850D02*
X0443900Y0371850D01*
X0443900Y0361850D02*
X0438700Y0361850D01*
X0438700Y0351850D02*
X0443900Y0351850D01*
X0443900Y0341850D02*
X0438700Y0341850D01*
X0438700Y0331850D02*
X0443900Y0331850D01*
X0443900Y0321850D02*
X0438700Y0321850D01*
X0438700Y0311850D02*
X0443900Y0311850D01*
X0443900Y0301850D02*
X0438700Y0301850D01*
X0438700Y0291850D02*
X0443900Y0291850D01*
X0443900Y0281850D02*
X0438700Y0281850D01*
X0438700Y0271850D02*
X0443900Y0271850D01*
X0443900Y0261850D02*
X0438700Y0261850D01*
X0438700Y0251850D02*
X0443900Y0251850D01*
X0443900Y0241850D02*
X0438700Y0241850D01*
X0438700Y0231850D02*
X0443900Y0231850D01*
X0443900Y0221850D02*
X0438700Y0221850D01*
X0498700Y0221850D02*
X0503900Y0221850D01*
X0503900Y0231850D02*
X0498700Y0231850D01*
X0498700Y0241850D02*
X0503900Y0241850D01*
X0503900Y0251850D02*
X0498700Y0251850D01*
X0498700Y0261850D02*
X0503900Y0261850D01*
X0503900Y0271850D02*
X0498700Y0271850D01*
X0498700Y0281850D02*
X0503900Y0281850D01*
X0503900Y0291850D02*
X0498700Y0291850D01*
X0498700Y0301850D02*
X0503900Y0301850D01*
X0503900Y0311850D02*
X0498700Y0311850D01*
X0498700Y0321850D02*
X0503900Y0321850D01*
X0503900Y0331850D02*
X0498700Y0331850D01*
X0498700Y0341850D02*
X0503900Y0341850D01*
X0503900Y0351850D02*
X0498700Y0351850D01*
X0498700Y0361850D02*
X0503900Y0361850D01*
X0503900Y0371850D02*
X0498700Y0371850D01*
X0518700Y0371850D02*
X0523900Y0371850D01*
X0523900Y0361850D02*
X0518700Y0361850D01*
X0518700Y0351850D02*
X0523900Y0351850D01*
X0523900Y0341850D02*
X0518700Y0341850D01*
X0518700Y0331850D02*
X0523900Y0331850D01*
X0523900Y0321850D02*
X0518700Y0321850D01*
X0518700Y0311850D02*
X0523900Y0311850D01*
X0523900Y0301850D02*
X0518700Y0301850D01*
X0518700Y0291850D02*
X0523900Y0291850D01*
X0523900Y0281850D02*
X0518700Y0281850D01*
X0518700Y0271850D02*
X0523900Y0271850D01*
X0523900Y0261850D02*
X0518700Y0261850D01*
X0518700Y0251850D02*
X0523900Y0251850D01*
X0523900Y0241850D02*
X0518700Y0241850D01*
X0518700Y0231850D02*
X0523900Y0231850D01*
X0523900Y0221850D02*
X0518700Y0221850D01*
X0578700Y0221850D02*
X0583900Y0221850D01*
X0583900Y0231850D02*
X0578700Y0231850D01*
X0578700Y0241850D02*
X0583900Y0241850D01*
X0583900Y0251850D02*
X0578700Y0251850D01*
X0578700Y0261850D02*
X0583900Y0261850D01*
X0583900Y0271850D02*
X0578700Y0271850D01*
X0578700Y0281850D02*
X0583900Y0281850D01*
X0583900Y0291850D02*
X0578700Y0291850D01*
X0578700Y0301850D02*
X0583900Y0301850D01*
X0583900Y0311850D02*
X0578700Y0311850D01*
X0578700Y0321850D02*
X0583900Y0321850D01*
X0583900Y0331850D02*
X0578700Y0331850D01*
X0578700Y0341850D02*
X0583900Y0341850D01*
X0583900Y0351850D02*
X0578700Y0351850D01*
X0578700Y0361850D02*
X0583900Y0361850D01*
X0583900Y0371850D02*
X0578700Y0371850D01*
X0598700Y0371850D02*
X0603900Y0371850D01*
X0603900Y0361850D02*
X0598700Y0361850D01*
X0598700Y0351850D02*
X0603900Y0351850D01*
X0603900Y0341850D02*
X0598700Y0341850D01*
X0598700Y0331850D02*
X0603900Y0331850D01*
X0603900Y0321850D02*
X0598700Y0321850D01*
X0598700Y0311850D02*
X0603900Y0311850D01*
X0603900Y0301850D02*
X0598700Y0301850D01*
X0598700Y0291850D02*
X0603900Y0291850D01*
X0603900Y0281850D02*
X0598700Y0281850D01*
X0598700Y0271850D02*
X0603900Y0271850D01*
X0603900Y0261850D02*
X0598700Y0261850D01*
X0598700Y0251850D02*
X0603900Y0251850D01*
X0603900Y0241850D02*
X0598700Y0241850D01*
X0598700Y0231850D02*
X0603900Y0231850D01*
X0603900Y0221850D02*
X0598700Y0221850D01*
X0658700Y0221850D02*
X0663900Y0221850D01*
X0663900Y0231850D02*
X0658700Y0231850D01*
X0658700Y0241850D02*
X0663900Y0241850D01*
X0663900Y0251850D02*
X0658700Y0251850D01*
X0658700Y0261850D02*
X0663900Y0261850D01*
X0663900Y0271850D02*
X0658700Y0271850D01*
X0658700Y0281850D02*
X0663900Y0281850D01*
X0663900Y0291850D02*
X0658700Y0291850D01*
X0658700Y0301850D02*
X0663900Y0301850D01*
X0663900Y0311850D02*
X0658700Y0311850D01*
X0658700Y0321850D02*
X0663900Y0321850D01*
X0663900Y0331850D02*
X0658700Y0331850D01*
X0658700Y0341850D02*
X0663900Y0341850D01*
X0663900Y0351850D02*
X0658700Y0351850D01*
X0658700Y0361850D02*
X0663900Y0361850D01*
X0663900Y0371850D02*
X0658700Y0371850D01*
X0496300Y0419250D02*
X0496300Y0424450D01*
X0486300Y0424450D02*
X0486300Y0419250D01*
X0476300Y0419250D02*
X0476300Y0424450D01*
X0466300Y0424450D02*
X0466300Y0419250D01*
X0456300Y0419250D02*
X0456300Y0424450D01*
X0446300Y0424450D02*
X0446300Y0419250D01*
X0436300Y0419250D02*
X0436300Y0424450D01*
X0426300Y0424450D02*
X0426300Y0419250D01*
X0416300Y0419250D02*
X0416300Y0424450D01*
X0306300Y0429250D02*
X0306300Y0434450D01*
X0296300Y0434450D02*
X0296300Y0429250D01*
X0286300Y0429250D02*
X0286300Y0434450D01*
X0276300Y0434450D02*
X0276300Y0429250D01*
X0266300Y0429250D02*
X0266300Y0434450D01*
X0256300Y0434450D02*
X0256300Y0429250D01*
X0246300Y0429250D02*
X0246300Y0434450D01*
X0236300Y0434450D02*
X0236300Y0429250D01*
X0226300Y0429250D02*
X0226300Y0434450D01*
X0216300Y0434450D02*
X0216300Y0429250D01*
X0216300Y0459250D02*
X0216300Y0464450D01*
X0226300Y0464450D02*
X0226300Y0459250D01*
X0236300Y0459250D02*
X0236300Y0464450D01*
X0246300Y0464450D02*
X0246300Y0459250D01*
X0256300Y0459250D02*
X0256300Y0464450D01*
X0266300Y0464450D02*
X0266300Y0459250D01*
X0276300Y0459250D02*
X0276300Y0464450D01*
X0286300Y0464450D02*
X0286300Y0459250D01*
X0296300Y0459250D02*
X0296300Y0464450D01*
X0306300Y0464450D02*
X0306300Y0459250D01*
X0186300Y0419450D02*
X0186300Y0414250D01*
X0176300Y0414250D02*
X0176300Y0419450D01*
X0166300Y0419450D02*
X0166300Y0414250D01*
X0156300Y0414250D02*
X0156300Y0419450D01*
X0146300Y0419450D02*
X0146300Y0414250D01*
X0136300Y0414250D02*
X0136300Y0419450D01*
X0126300Y0419450D02*
X0126300Y0414250D01*
X0126300Y0429250D02*
X0126300Y0434450D01*
X0136300Y0434450D02*
X0136300Y0429250D01*
X0146300Y0429250D02*
X0146300Y0434450D01*
X0156300Y0434450D02*
X0156300Y0429250D01*
X0166300Y0429250D02*
X0166300Y0434450D01*
X0176300Y0434450D02*
X0176300Y0429250D01*
X0176300Y0459250D02*
X0176300Y0464450D01*
X0166300Y0464450D02*
X0166300Y0459250D01*
X0156300Y0459250D02*
X0156300Y0464450D01*
X0146300Y0464450D02*
X0146300Y0459250D01*
X0136300Y0459250D02*
X0136300Y0464450D01*
X0126300Y0464450D02*
X0126300Y0459250D01*
X0043900Y0371850D02*
X0038700Y0371850D01*
X0038700Y0361850D02*
X0043900Y0361850D01*
X0043900Y0351850D02*
X0038700Y0351850D01*
X0038700Y0341850D02*
X0043900Y0341850D01*
X0043900Y0331850D02*
X0038700Y0331850D01*
X0038700Y0321850D02*
X0043900Y0321850D01*
X0043900Y0311850D02*
X0038700Y0311850D01*
X0038700Y0301850D02*
X0043900Y0301850D01*
X0043900Y0291850D02*
X0038700Y0291850D01*
X0038700Y0281850D02*
X0043900Y0281850D01*
X0043900Y0271850D02*
X0038700Y0271850D01*
X0038700Y0261850D02*
X0043900Y0261850D01*
X0043900Y0251850D02*
X0038700Y0251850D01*
X0038700Y0241850D02*
X0043900Y0241850D01*
X0043900Y0231850D02*
X0038700Y0231850D01*
X0038700Y0221850D02*
X0043900Y0221850D01*
X0246300Y0164450D02*
X0246300Y0159250D01*
X0256300Y0159250D02*
X0256300Y0164450D01*
X0266300Y0164450D02*
X0266300Y0159250D01*
X0276300Y0159250D02*
X0276300Y0164450D01*
X0286300Y0164450D02*
X0286300Y0159250D01*
X0296300Y0159250D02*
X0296300Y0164450D01*
X0306300Y0164450D02*
X0306300Y0159250D01*
X0316300Y0159250D02*
X0316300Y0164450D01*
X0326300Y0164450D02*
X0326300Y0159250D01*
X0336300Y0159250D02*
X0336300Y0164450D01*
X0336300Y0134450D02*
X0336300Y0129250D01*
X0326300Y0129250D02*
X0326300Y0134450D01*
X0316300Y0134450D02*
X0316300Y0129250D01*
X0306300Y0129250D02*
X0306300Y0134450D01*
X0296300Y0134450D02*
X0296300Y0129250D01*
X0286300Y0129250D02*
X0286300Y0134450D01*
X0276300Y0134450D02*
X0276300Y0129250D01*
X0266300Y0129250D02*
X0266300Y0134450D01*
X0256300Y0134450D02*
X0256300Y0129250D01*
X0246300Y0129250D02*
X0246300Y0134450D01*
X0386300Y0134450D02*
X0386300Y0129250D01*
X0396300Y0129250D02*
X0396300Y0134450D01*
X0406300Y0134450D02*
X0406300Y0129250D01*
X0416300Y0129250D02*
X0416300Y0134450D01*
X0426300Y0134450D02*
X0426300Y0129250D01*
X0436300Y0129250D02*
X0436300Y0134450D01*
X0446300Y0134450D02*
X0446300Y0129250D01*
X0476300Y0129250D02*
X0476300Y0134450D01*
X0486300Y0134450D02*
X0486300Y0129250D01*
X0496300Y0129250D02*
X0496300Y0134450D01*
X0506300Y0134450D02*
X0506300Y0129250D01*
X0506300Y0159250D02*
X0506300Y0164450D01*
X0496300Y0164450D02*
X0496300Y0159250D01*
X0486300Y0159250D02*
X0486300Y0164450D01*
X0476300Y0164450D02*
X0476300Y0159250D01*
X0446300Y0159250D02*
X0446300Y0164450D01*
X0436300Y0164450D02*
X0436300Y0159250D01*
X0426300Y0159250D02*
X0426300Y0164450D01*
X0416300Y0164450D02*
X0416300Y0159250D01*
X0406300Y0159250D02*
X0406300Y0164450D01*
X0396300Y0164450D02*
X0396300Y0159250D01*
X0386300Y0159250D02*
X0386300Y0164450D01*
X0566300Y0134450D02*
X0566300Y0129250D01*
X0576300Y0129250D02*
X0576300Y0134450D01*
X0596300Y0134450D02*
X0596300Y0129250D01*
X0606300Y0129250D02*
X0606300Y0134450D01*
D11*
X0044300Y0017850D03*
X0056800Y0017850D03*
X0069300Y0017850D03*
X0081800Y0017850D03*
X0094300Y0017850D03*
X0106800Y0017850D03*
X0119300Y0017850D03*
X0131800Y0017850D03*
X0144300Y0017850D03*
X0156800Y0017850D03*
X0169300Y0017850D03*
X0181800Y0017850D03*
X0194300Y0017850D03*
X0206800Y0017850D03*
X0219300Y0017850D03*
X0231800Y0017850D03*
X0244300Y0017850D03*
X0256800Y0017850D03*
X0269300Y0017850D03*
X0281800Y0017850D03*
X0294300Y0017850D03*
X0306800Y0017850D03*
X0319300Y0017850D03*
X0331800Y0017850D03*
X0344300Y0017850D03*
X0356800Y0017850D03*
X0369300Y0017850D03*
X0381800Y0017850D03*
X0394300Y0017850D03*
X0406800Y0017850D03*
X0419300Y0017850D03*
X0431800Y0017850D03*
X0444300Y0017850D03*
X0456800Y0017850D03*
X0469300Y0017850D03*
X0481800Y0017850D03*
X0494300Y0017850D03*
X0506800Y0017850D03*
X0519300Y0017850D03*
X0531800Y0017850D03*
X0544300Y0017850D03*
X0556800Y0017850D03*
X0569300Y0017850D03*
X0581800Y0017850D03*
X0594300Y0017850D03*
X0606800Y0017850D03*
X0619300Y0017850D03*
X0631800Y0017850D03*
X0644300Y0017850D03*
X0656800Y0017850D03*
D12*
X0672300Y0506850D03*
X0028800Y0506850D03*
D13*
X0043300Y0518350D03*
X0659800Y0518350D03*
D14*
X0551300Y0451850D03*
X0541300Y0451850D03*
X0521300Y0451850D03*
X0511300Y0451850D03*
X0491300Y0451850D03*
X0481300Y0451850D03*
X0461300Y0451850D03*
X0451300Y0451850D03*
X0431300Y0451850D03*
X0421300Y0451850D03*
X0401300Y0451850D03*
X0391300Y0451850D03*
X0371300Y0451850D03*
X0361300Y0451850D03*
X0341300Y0451850D03*
X0331300Y0451850D03*
X0331300Y0386850D03*
X0341300Y0386850D03*
X0411300Y0386850D03*
X0421300Y0386850D03*
X0416300Y0406850D03*
X0436300Y0406850D03*
X0491300Y0386850D03*
X0501300Y0386850D03*
X0571300Y0386850D03*
X0581300Y0386850D03*
X0651300Y0386850D03*
X0661300Y0386850D03*
X0466300Y0161850D03*
X0466300Y0151850D03*
X0431300Y0096850D03*
X0431300Y0086850D03*
X0371300Y0151850D03*
X0371300Y0161850D03*
X0361300Y0191850D03*
X0331300Y0191850D03*
X0231300Y0161850D03*
X0231300Y0151850D03*
X0201300Y0096850D03*
X0201300Y0086850D03*
X0316300Y0086850D03*
X0316300Y0096850D03*
X0546300Y0096850D03*
X0546300Y0086850D03*
X0261300Y0386850D03*
X0251300Y0386850D03*
X0181300Y0386850D03*
X0171300Y0386850D03*
X0101300Y0386850D03*
X0091300Y0386850D03*
X0201300Y0451850D03*
X0201300Y0461850D03*
X0041300Y0161850D03*
X0041300Y0151850D03*
X0081300Y0096850D03*
X0081300Y0086850D03*
D15*
X0246300Y0121850D03*
X0266300Y0171850D03*
X0276300Y0171850D03*
X0286300Y0171850D03*
X0296300Y0171850D03*
X0306300Y0171850D03*
X0316300Y0171850D03*
X0326300Y0171850D03*
X0336300Y0171850D03*
X0556800Y0151850D03*
X0615800Y0151850D03*
D16*
X0386300Y0394050D02*
X0386300Y0399650D01*
X0376300Y0399650D02*
X0376300Y0394050D01*
X0366300Y0394050D02*
X0366300Y0399650D01*
X0366300Y0409050D02*
X0366300Y0414650D01*
X0376300Y0414650D02*
X0376300Y0409050D01*
X0386300Y0409050D02*
X0386300Y0414650D01*
X0101300Y0434050D02*
X0101300Y0439650D01*
X0091300Y0439650D02*
X0091300Y0434050D01*
X0081300Y0434050D02*
X0081300Y0439650D01*
X0071300Y0439650D02*
X0071300Y0434050D01*
X0066300Y0414650D02*
X0066300Y0409050D01*
X0066300Y0399650D02*
X0066300Y0394050D01*
X0056300Y0394050D02*
X0056300Y0399650D01*
X0046300Y0399650D02*
X0046300Y0394050D01*
X0046300Y0409050D02*
X0046300Y0414650D01*
X0056300Y0414650D02*
X0056300Y0409050D01*
D17*
X0391300Y0191850D03*
X0401300Y0191850D03*
X0401300Y0181850D03*
X0391300Y0181850D03*
X0411300Y0181850D03*
X0421300Y0181850D03*
X0421300Y0191850D03*
X0411300Y0191850D03*
X0431300Y0191850D03*
X0441300Y0191850D03*
X0441300Y0181850D03*
X0431300Y0181850D03*
X0211300Y0151850D03*
X0211300Y0141850D03*
X0201300Y0141850D03*
X0201300Y0151850D03*
X0191300Y0151850D03*
X0191300Y0141850D03*
M02*
