%
M48
M72
T01C0.02400
T02C0.03200
T03C0.03600
T04C0.04000
T05C0.07200
T06C0.12500
%
T01
X126300Y85600
X146300Y60600
X197550Y59350
X176300Y105600
X200050Y113100
X217550Y128100
X236300Y144350
X221300Y151850
X217550Y155600
X187550Y174350
X177550Y191850
X160050Y189350
X160050Y184350
X126300Y168100
X116300Y141850
X86300Y121850
X105050Y118100
X170050Y133100
X95050Y185600
X91300Y195600
X86300Y195600
X82550Y191850
X105050Y206850
X130050Y208100
X226300Y275600
X240050Y269350
X236300Y258100
X253800Y278100
X243800Y309350
X217550Y319350
X163800Y379350
X110050Y346850
X78800Y343100
X221300Y400600
X273800Y404350
X276300Y418100
X297550Y443100
X271300Y455600
X331300Y409350
X382550Y433100
X405050Y446850
X412550Y446850
X403800Y469350
X370050Y473100
X477550Y459350
X492550Y414350
X483800Y391850
X487550Y375600
X487550Y346850
X533800Y336850
X572550Y351850
X590050Y346850
X588800Y228100
X555050Y190600
X520050Y164350
X511300Y190600
X516300Y211850
X463800Y195600
X463800Y190600
X446300Y188100
X463800Y178100
X463800Y173100
X446300Y151850
X432550Y146850
X427550Y146850
X426300Y121850
X421300Y121850
X423800Y114350
X401300Y114350
X366300Y106850
X347550Y110600
X352550Y89350
X357550Y83100
X376300Y76850
X381300Y78100
X387550Y86850
X401300Y60600
X392550Y50600
X392550Y39350
X388800Y35600
X377550Y34350
X376300Y43100
X365050Y41850
X365050Y46850
X351300Y40600
X332550Y33100
X317550Y34350
X312550Y34350
X297550Y48100
X293800Y44350
X282550Y41850
X293800Y33100
X308800Y50600
X331300Y54350
X307550Y74350
X292550Y79350
X286300Y60600
X282550Y54350
X268800Y39350
X260050Y34350
X262550Y83100
X272550Y85600
X301300Y105600
X300050Y111850
X311300Y100600
X307550Y93100
X281300Y109350
X280050Y120600
X260050Y114350
X256300Y109350
X255050Y150600
X300050Y154350
X302550Y143100
X322550Y121850
X385050Y171850
X365050Y184350
X347550Y179350
X326300Y199350
X330050Y203100
X340050Y206850
X350050Y206850
X371300Y216850
X385050Y233100
X393800Y243100
X390050Y260600
X412550Y224350
X407550Y216850
X392550Y204350
X416300Y185600
X471300Y145600
X481300Y120600
X476300Y116850
X465050Y114350
X455050Y114350
X453800Y106850
X437550Y89350
X442550Y83100
X450050Y85600
X458800Y85600
X466300Y83100
X472550Y85600
X485050Y104350
X496300Y86850
X513800Y83100
X496300Y55600
X487550Y51850
X501300Y45600
X507550Y33100
X518800Y39350
X526300Y34350
X531300Y35600
X536300Y48100
X543800Y56850
X556300Y49350
X570050Y33100
X522550Y53100
X483800Y34350
X473800Y43100
X463800Y43100
X460050Y46850
X452550Y34350
X446300Y51850
X437550Y59350
X427550Y71850
X427550Y76850
X413800Y55600
X418800Y33100
X307550Y180600
X311300Y184350
X315050Y190600
X305050Y203100
X315050Y206850
X308800Y225600
X328800Y240600
X333800Y278100
X265050Y211850
X261300Y208100
X247550Y203100
X246300Y194350
X376300Y350600
X647550Y225600
X32550Y136850
T02
X91300Y66850
X101300Y66850
X111300Y66850
X121300Y66850
X131300Y66850
X141300Y66850
X151300Y66850
X161300Y66850
X171300Y66850
X181300Y66850
X201300Y86850
X201300Y96850
X211300Y96850
X221300Y96850
X231300Y96850
X241300Y96850
X251300Y96850
X261300Y96850
X271300Y96850
X281300Y96850
X291300Y96850
X301300Y96850
X316300Y96850
X326300Y96850
X336300Y96850
X346300Y96850
X356300Y96850
X366300Y96850
X376300Y96850
X386300Y96850
X396300Y96850
X406300Y96850
X416300Y96850
X431300Y96850
X441300Y96850
X451300Y96850
X461300Y96850
X471300Y96850
X481300Y96850
X491300Y96850
X501300Y96850
X511300Y96850
X521300Y96850
X531300Y96850
X546300Y96850
X556300Y96850
X566300Y96850
X576300Y96850
X586300Y96850
X596300Y96850
X606300Y96850
X616300Y96850
X626300Y96850
X636300Y96850
X646300Y96850
X646300Y66850
X636300Y66850
X626300Y66850
X616300Y66850
X606300Y66850
X596300Y66850
X586300Y66850
X576300Y66850
X566300Y66850
X556300Y66850
X546300Y86850
X531300Y66850
X521300Y66850
X511300Y66850
X501300Y66850
X491300Y66850
X481300Y66850
X471300Y66850
X461300Y66850
X451300Y66850
X441300Y66850
X431300Y86850
X416300Y66850
X406300Y66850
X396300Y66850
X386300Y66850
X376300Y66850
X366300Y66850
X356300Y66850
X346300Y66850
X336300Y66850
X326300Y66850
X316300Y86850
X301300Y66850
X291300Y66850
X281300Y66850
X271300Y66850
X261300Y66850
X251300Y66850
X241300Y66850
X231300Y66850
X221300Y66850
X211300Y66850
X181300Y96850
X171300Y96850
X161300Y96850
X151300Y96850
X141300Y96850
X131300Y96850
X121300Y96850
X111300Y96850
X101300Y96850
X91300Y96850
X81300Y96850
X81300Y86850
X81300Y131850
X91300Y131850
X101300Y131850
X111300Y131850
X121300Y131850
X131300Y131850
X141300Y131850
X151300Y131850
X161300Y131850
X161300Y161850
X151300Y161850
X141300Y161850
X131300Y161850
X121300Y161850
X111300Y161850
X101300Y161850
X91300Y161850
X81300Y161850
X71300Y161850
X61300Y161850
X51300Y161850
X41300Y161850
X41300Y151850
X51300Y131850
X61300Y131850
X71300Y131850
X41300Y221850
X41300Y231850
X41300Y241850
X41300Y251850
X41300Y261850
X41300Y271850
X41300Y281850
X41300Y291850
X41300Y301850
X41300Y311850
X41300Y321850
X41300Y331850
X41300Y341850
X41300Y351850
X41300Y361850
X41300Y371850
X91300Y386850
X101300Y386850
X101300Y371850
X101300Y361850
X101300Y351850
X101300Y341850
X101300Y331850
X101300Y321850
X101300Y311850
X101300Y301850
X101300Y291850
X101300Y281850
X101300Y271850
X101300Y261850
X101300Y251850
X101300Y241850
X101300Y231850
X101300Y221850
X121300Y221850
X121300Y231850
X121300Y241850
X121300Y251850
X121300Y261850
X121300Y271850
X121300Y281850
X121300Y291850
X121300Y301850
X121300Y311850
X121300Y321850
X121300Y331850
X121300Y341850
X121300Y351850
X121300Y361850
X121300Y371850
X171300Y386850
X181300Y386850
X181300Y371850
X181300Y361850
X181300Y351850
X181300Y341850
X181300Y331850
X181300Y321850
X181300Y311850
X181300Y301850
X181300Y291850
X181300Y281850
X181300Y271850
X181300Y261850
X181300Y251850
X181300Y241850
X181300Y231850
X181300Y221850
X201300Y221850
X201300Y231850
X201300Y241850
X201300Y251850
X201300Y261850
X201300Y271850
X201300Y281850
X201300Y291850
X201300Y301850
X201300Y311850
X201300Y321850
X201300Y331850
X201300Y341850
X201300Y351850
X201300Y361850
X201300Y371850
X251300Y386850
X261300Y386850
X261300Y371850
X261300Y361850
X261300Y351850
X261300Y341850
X261300Y331850
X261300Y321850
X261300Y311850
X261300Y301850
X261300Y291850
X261300Y281850
X261300Y271850
X261300Y261850
X261300Y251850
X261300Y241850
X261300Y231850
X261300Y221850
X281300Y221850
X281300Y231850
X281300Y241850
X281300Y251850
X281300Y261850
X281300Y271850
X281300Y281850
X281300Y291850
X281300Y301850
X281300Y311850
X281300Y321850
X281300Y331850
X281300Y341850
X281300Y351850
X281300Y361850
X281300Y371850
X331300Y386850
X341300Y386850
X341300Y371850
X341300Y361850
X341300Y351850
X341300Y341850
X341300Y331850
X341300Y321850
X341300Y311850
X341300Y301850
X341300Y291850
X341300Y281850
X341300Y271850
X341300Y261850
X341300Y251850
X341300Y241850
X341300Y231850
X341300Y221850
X361300Y221850
X361300Y231850
X361300Y241850
X361300Y251850
X361300Y261850
X361300Y271850
X361300Y281850
X361300Y291850
X361300Y301850
X361300Y311850
X361300Y321850
X361300Y331850
X361300Y341850
X361300Y351850
X361300Y361850
X361300Y371850
X411300Y386850
X421300Y386850
X421300Y371850
X421300Y361850
X421300Y351850
X421300Y341850
X421300Y331850
X421300Y321850
X421300Y311850
X421300Y301850
X421300Y291850
X421300Y281850
X421300Y271850
X421300Y261850
X421300Y251850
X421300Y241850
X421300Y231850
X421300Y221850
X441300Y221850
X441300Y231850
X441300Y241850
X441300Y251850
X441300Y261850
X441300Y271850
X441300Y281850
X441300Y291850
X441300Y301850
X441300Y311850
X441300Y321850
X441300Y331850
X441300Y341850
X441300Y351850
X441300Y361850
X441300Y371850
X436300Y406850
X416300Y406850
X416300Y421850
X426300Y421850
X436300Y421850
X446300Y421850
X456300Y421850
X466300Y421850
X476300Y421850
X486300Y421850
X496300Y421850
X491300Y451850
X481300Y451850
X461300Y451850
X451300Y451850
X431300Y451850
X421300Y451850
X401300Y451850
X391300Y451850
X371300Y451850
X361300Y451850
X341300Y451850
X331300Y451850
X306300Y461850
X296300Y461850
X286300Y461850
X276300Y461850
X266300Y461850
X256300Y461850
X246300Y461850
X236300Y461850
X226300Y461850
X216300Y461850
X201300Y461850
X201300Y451850
X216300Y431850
X226300Y431850
X236300Y431850
X246300Y431850
X256300Y431850
X266300Y431850
X276300Y431850
X286300Y431850
X296300Y431850
X306300Y431850
X186300Y416850
X176300Y416850
X166300Y416850
X156300Y416850
X146300Y416850
X136300Y416850
X126300Y416850
X126300Y431850
X136300Y431850
X146300Y431850
X156300Y431850
X166300Y431850
X176300Y431850
X176300Y461850
X166300Y461850
X156300Y461850
X146300Y461850
X136300Y461850
X126300Y461850
X331300Y191850
X361300Y191850
X371300Y161850
X371300Y151850
X386300Y161850
X396300Y161850
X406300Y161850
X416300Y161850
X426300Y161850
X436300Y161850
X446300Y161850
X466300Y161850
X466300Y151850
X476300Y161850
X486300Y161850
X496300Y161850
X506300Y161850
X506300Y131850
X496300Y131850
X486300Y131850
X476300Y131850
X446300Y131850
X436300Y131850
X426300Y131850
X416300Y131850
X406300Y131850
X396300Y131850
X386300Y131850
X336300Y131850
X326300Y131850
X316300Y131850
X306300Y131850
X296300Y131850
X286300Y131850
X276300Y131850
X266300Y131850
X256300Y131850
X246300Y131850
X231300Y151850
X231300Y161850
X246300Y161850
X256300Y161850
X266300Y161850
X276300Y161850
X286300Y161850
X296300Y161850
X306300Y161850
X316300Y161850
X326300Y161850
X336300Y161850
X501300Y221850
X501300Y231850
X501300Y241850
X501300Y251850
X501300Y261850
X501300Y271850
X501300Y281850
X501300Y291850
X501300Y301850
X501300Y311850
X501300Y321850
X501300Y331850
X501300Y341850
X501300Y351850
X501300Y361850
X501300Y371850
X501300Y386850
X491300Y386850
X521300Y371850
X521300Y361850
X521300Y351850
X521300Y341850
X521300Y331850
X521300Y321850
X521300Y311850
X521300Y301850
X521300Y291850
X521300Y281850
X521300Y271850
X521300Y261850
X521300Y251850
X521300Y241850
X521300Y231850
X521300Y221850
X581300Y221850
X581300Y231850
X581300Y241850
X581300Y251850
X581300Y261850
X581300Y271850
X581300Y281850
X581300Y291850
X581300Y301850
X581300Y311850
X581300Y321850
X581300Y331850
X581300Y341850
X581300Y351850
X581300Y361850
X581300Y371850
X601300Y371850
X601300Y361850
X601300Y351850
X601300Y341850
X601300Y331850
X601300Y321850
X601300Y311850
X601300Y301850
X601300Y291850
X601300Y281850
X601300Y271850
X601300Y261850
X601300Y251850
X601300Y241850
X601300Y231850
X601300Y221850
X661300Y221850
X661300Y231850
X661300Y241850
X661300Y251850
X661300Y261850
X661300Y271850
X661300Y281850
X661300Y291850
X661300Y301850
X661300Y311850
X661300Y321850
X661300Y331850
X661300Y341850
X661300Y351850
X661300Y361850
X661300Y371850
X661300Y386850
X651300Y386850
X581300Y386850
X571300Y386850
X551300Y451850
X541300Y451850
X521300Y451850
X511300Y451850
X566300Y131850
X576300Y131850
X596300Y131850
X606300Y131850
T03
X441300Y181850
X431300Y181850
X431300Y191850
X441300Y191850
X421300Y191850
X411300Y191850
X411300Y181850
X421300Y181850
X401300Y181850
X391300Y181850
X391300Y191850
X401300Y191850
X211300Y151850
X211300Y141850
X201300Y141850
X201300Y151850
X191300Y151850
X191300Y141850
X66300Y396850
X56300Y396850
X46300Y396850
X46300Y411850
X56300Y411850
X66300Y411850
X71300Y436850
X81300Y436850
X91300Y436850
X101300Y436850
X366300Y411850
X376300Y411850
X386300Y411850
X386300Y396850
X376300Y396850
X366300Y396850
T04
X336300Y171850
X326300Y171850
X316300Y171850
X306300Y171850
X296300Y171850
X286300Y171850
X276300Y171850
X266300Y171850
X246300Y121850
X556800Y151850
X615800Y151850
T05
X659800Y518350
X43300Y518350
T06
X28800Y506850
X672300Y506850
M30
