M48
;GenerationSoftware,Autodesk,EAGLE,9.6.1*%
;CreationDate,2025-08-24T22:26:40Z*%
FMAT,2
ICI,OFF
METRIC,TZ,000.000
T8C0.610
T7C0.813
T6C0.914
T5C0.940
T4C1.016
T3C1.829
T2C2.540
T1C3.175
%
G90
M71
T1
X-192405Y64770
X-28956Y64770
T2
X-96520Y25400
X-100203Y-19050
X-96520Y-12700
X-63500Y25400
X-63500Y-12700
X-100203Y31750
X-58039Y31750
X-58039Y-19050
T3
X-188722Y67691
X-32131Y67691
T4
X-53340Y24130
X-30480Y24130
X-34290Y52070
X-57150Y52070
X-30480Y-38100
X-137160Y30480
X-114300Y30480
X-53340Y-22860
X-30480Y-22860
X-53340Y-30480
X-30480Y-30480
X-53340Y-8890
X-30480Y-8890
X-53340Y-38100
T5
X-91440Y-16510
X-86360Y-16510
X-71120Y29210
X-68580Y29210
X-68580Y-16510
X-71120Y-16510
X-81280Y-16510
X-78740Y-16510
X-73660Y-16510
X-76200Y-16510
X-88900Y-16510
X-83820Y-16510
X-88900Y29210
X-91440Y29210
X-73660Y29210
X-86360Y29210
X-83820Y29210
X-81280Y29210
X-78740Y29210
X-76200Y29210
T6
X-73660Y40640
X-123190Y21590
X-125730Y21590
X-92710Y40640
X-85090Y40640
X-67310Y35560
X-64770Y35560
X-81280Y40640
T7
X-148590Y-43180
X-151130Y-43180
X-153670Y-43180
X-156210Y-43180
X-158750Y-43180
X-180340Y-50800
X-177800Y-50800
X-165100Y-50800
X-165100Y-43180
X-175260Y-50800
X-172720Y-50800
X-167640Y-50800
X-170180Y-50800
X-167640Y-43180
X-170180Y-43180
X-172720Y-43180
X-175260Y-43180
X-177800Y-43180
X-180340Y-43180
X-80010Y-50800
X-77470Y-50800
X-64770Y-50800
X-62230Y-50800
X-74930Y-50800
X-72390Y-50800
X-67310Y-50800
X-69850Y-50800
X-59690Y-50800
X-57150Y-50800
X-57150Y-43180
X-59690Y-43180
X-62230Y-43180
X-64770Y-43180
X-67310Y-43180
X-69850Y-43180
X-72390Y-43180
X-74930Y-43180
X-77470Y-43180
X-80010Y-43180
X-180340Y-19050
X-177800Y-19050
X-165100Y-19050
X-162560Y-19050
X-175260Y-19050
X-172720Y-19050
X-167640Y-19050
X-170180Y-19050
X-162560Y-11430
X-165100Y-11430
X-167640Y-11430
X-170180Y-11430
X-172720Y-11430
X-175260Y-11430
X-177800Y-11430
X-180340Y-11430
X-170180Y-22860
X-177800Y-22860
X-180340Y-2540
X-177800Y-2540
X-165100Y-2540
X-165100Y5080
X-175260Y-2540
X-172720Y-2540
X-167640Y-2540
X-170180Y-2540
X-167640Y5080
X-170180Y5080
X-172720Y5080
X-175260Y5080
X-177800Y5080
X-180340Y5080
X-180340Y13970
X-177800Y13970
X-165100Y13970
X-165100Y21590
X-175260Y13970
X-172720Y13970
X-167640Y13970
X-170180Y13970
X-167640Y21590
X-170180Y21590
X-172720Y21590
X-175260Y21590
X-177800Y21590
X-180340Y21590
X-171450Y10160
X-179070Y10160
X-180340Y-34290
X-177800Y-34290
X-165100Y-34290
X-162560Y-34290
X-175260Y-34290
X-172720Y-34290
X-167640Y-34290
X-170180Y-34290
X-162560Y-26670
X-165100Y-26670
X-167640Y-26670
X-170180Y-26670
X-172720Y-26670
X-175260Y-26670
X-66040Y-34290
X-177800Y-26670
X-180340Y-26670
X-187960Y-41910
X-185420Y-41910
X-185420Y-34290
X-186690Y-22860
X-186690Y-30480
X-189230Y-22860
X-189230Y-30480
X-149860Y-34290
X-147320Y-34290
X-134620Y-34290
X-134620Y-26670
X-144780Y-34290
X-142240Y-34290
X-137160Y-34290
X-139700Y-34290
X-137160Y-26670
X-139700Y-26670
X-142240Y-26670
X-144780Y-26670
X-147320Y-26670
X-149860Y-26670
X-148590Y-38100
X-140970Y-38100
X-138430Y-38100
X-135890Y-38100
X-129540Y-5080
X-127000Y-5080
X-124460Y-5080
X-121920Y-5080
X-119380Y-5080
X-182880Y-48260
X-182880Y-50800
X-182880Y-26670
X-182880Y-29210
X-182880Y-11430
X-182880Y-13970
X-182880Y5080
X-182880Y2540
X-182880Y21590
X-182880Y19050
X-182880Y48260
X-182880Y45720
X-152400Y-12700
X-152400Y-15240
X-161290Y-43180
X-161290Y-45720
X-152400Y-26670
X-152400Y-29210
X-127000Y-43180
X-127000Y-45720
X-82550Y-43180
X-82550Y-45720
X-52705Y58420
X-33655Y58420
X-53975Y44450
X-34925Y44450
X-50165Y-15875
X-31115Y-15875
X-149860Y53340
X-152400Y53340
X-160020Y53340
X-162560Y53340
X-180340Y40640
X-177800Y40640
X-165100Y40640
X-162560Y40640
X-175260Y40640
X-172720Y40640
X-167640Y40640
X-170180Y40640
X-162560Y48260
X-165100Y48260
X-167640Y48260
X-170180Y48260
X-172720Y48260
X-175260Y48260
X-177800Y48260
X-180340Y48260
X-177800Y34290
X-185420Y34290
X-177800Y52070
X-175260Y52070
X-176530Y36830
X-184150Y36830
X-177800Y55880
X-170180Y55880
X-162560Y30480
X-170180Y30480
X-165100Y36830
X-167640Y36830
X-165100Y33020
X-172720Y33020
X-187960Y55880
X-180340Y55880
X-118110Y-33020
X-115570Y-33020
X-110490Y-25400
X-113030Y-25400
X-113030Y-33020
X-110490Y-33020
X-107950Y-25400
X-107950Y-33020
X-115570Y-25400
X-118110Y-25400
X-153670Y1270
X-151130Y1270
X-138430Y1270
X-135890Y1270
X-148590Y1270
X-146050Y1270
X-140970Y1270
X-143510Y1270
X-133350Y1270
X-130810Y1270
X-128270Y1270
X-125730Y1270
X-123190Y1270
X-120650Y1270
X-118110Y1270
X-115570Y1270
X-113030Y1270
X-110490Y1270
X-107950Y1270
X-105410Y1270
X-105410Y16510
X-107950Y16510
X-110490Y16510
X-113030Y16510
X-115570Y16510
X-118110Y16510
X-120650Y16510
X-123190Y16510
X-125730Y16510
X-128270Y16510
X-130810Y16510
X-133350Y16510
X-135890Y16510
X-138430Y16510
X-140970Y16510
X-143510Y16510
X-146050Y16510
X-148590Y16510
X-151130Y16510
X-153670Y16510
X-91440Y-34290
X-88900Y-34290
X-86360Y-34290
X-83820Y-34290
X-81280Y-34290
X-78740Y-34290
X-76200Y-34290
X-73660Y-34290
X-71120Y-34290
X-68580Y-34290
X-66040Y-24130
X-68580Y-24130
X-71120Y-24130
X-73660Y-24130
X-76200Y-24130
X-78740Y-24130
X-81280Y-24130
X-83820Y-24130
X-86360Y-24130
X-88900Y-24130
X-91440Y-24130
X-93980Y45720
X-91440Y45720
X-78740Y45720
X-76200Y45720
X-88900Y45720
X-86360Y45720
X-81280Y45720
X-83820Y45720
X-73660Y45720
X-71120Y45720
X-71120Y53340
X-73660Y53340
X-76200Y53340
X-78740Y53340
X-81280Y53340
X-83820Y53340
X-86360Y53340
X-88900Y53340
X-91440Y53340
X-93980Y53340
X-101600Y-30480
X-101600Y-27940
X-63500Y53340
X-63500Y48260
X-52070Y63500
X-44450Y63500
X-91440Y-12700
X-88900Y-12700
X-76200Y-12700
X-73660Y-12700
X-86360Y-12700
X-83820Y-12700
X-78740Y-12700
X-81280Y-12700
X-71120Y-12700
X-68580Y-12700
X-68580Y25400
X-71120Y25400
X-73660Y25400
X-76200Y25400
X-78740Y25400
X-81280Y25400
X-83820Y25400
X-86360Y25400
X-88900Y25400
X-91440Y25400
X-59690Y-31750
X-59690Y-24130
X-66040Y41910
X-66040Y39370
X-59690Y43180
X-59690Y50800
X-31750Y41910
X-31750Y49530
X-92710Y36830
X-90170Y36830
X-87630Y36830
X-85090Y36830
X-82550Y36830
X-80010Y36830
X-77470Y36830
X-74930Y36830
X-52070Y10160
X-49530Y10160
X-36830Y10160
X-34290Y10160
X-46990Y10160
X-44450Y10160
X-39370Y10160
X-41910Y10160
X-34290Y17780
X-36830Y17780
X-39370Y17780
X-41910Y17780
X-44450Y17780
X-46990Y17780
X-49530Y17780
X-52070Y17780
X-52070Y-2540
X-49530Y-2540
X-36830Y-2540
X-36830Y5080
X-46990Y-2540
X-187960Y-34290
X-39370Y-2540
X-41910Y-2540
X-39370Y5080
X-41910Y5080
X-44450Y5080
X-46990Y5080
X-49530Y5080
X-52070Y5080
X-52070Y30480
X-49530Y30480
X-36830Y30480
X-36830Y38100
X-46990Y30480
X-44450Y30480
X-39370Y30480
X-41910Y30480
X-39370Y38100
X-41910Y38100
X-44450Y38100
X-46990Y38100
X-49530Y38100
X-52070Y38100
X-106680Y22860
X-114300Y22860
X-135890Y45720
X-133350Y45720
X-130810Y45720
X-128270Y45720
X-128270Y53340
X-130810Y53340
X-133350Y53340
X-135890Y53340
X-118110Y53340
X-118110Y45720
X-120650Y53340
X-120650Y45720
X-115570Y45720
X-115570Y53340
X-128270Y38100
X-135890Y38100
X-128270Y40640
X-135890Y40640
X-113030Y53340
X-113030Y45720
X-124460Y48260
X-124460Y50800
X-140970Y39370
X-140970Y36830
X-139700Y-5080
X-147320Y-5080
X-109220Y26670
X-107315Y27940
X-109220Y29210
X-67310Y53340
X-67310Y50800
X-55880Y38100
X-58420Y38100
X-30480Y15240
X-30480Y12700
X-154940Y39370
X-154940Y31750
X-147320Y31750
X-147320Y39370
X-149860Y45720
X-152400Y45720
X-152400Y21590
X-149860Y21590
X-139700Y50800
X-139700Y48260
X-96520Y53340
X-96520Y50800
X-33020Y0
X-33020Y2540
X-33020Y33020
X-33020Y35560
X-96520Y-27940
X-96520Y-30480
X-138430Y21590
X-146050Y21590
X-44450Y-2540
X-43180Y-49530
X-43180Y-46990
X-39370Y-43180
X-39370Y-53340
X-46990Y-43180
X-46990Y-53340
X-31750Y-53340
X-31750Y-43180
X-50800Y-53340
X-50800Y-43180
X-35560Y-53340
X-35560Y-43180
X-118110Y-50800
X-115570Y-50800
X-102870Y-50800
X-100330Y-50800
X-113030Y-50800
X-110490Y-50800
X-105410Y-50800
X-107950Y-50800
X-97790Y-50800
X-95250Y-50800
X-95250Y-43180
X-97790Y-43180
X-100330Y-43180
X-102870Y-43180
X-105410Y-43180
X-107950Y-43180
X-110490Y-43180
X-113030Y-43180
X-115570Y-43180
X-118110Y-43180
X-119380Y-38100
X-116840Y-38100
X-114300Y-38100
X-111760Y-38100
X-109220Y-38100
X-106680Y-38100
X-104140Y-38100
X-149860Y-20320
X-147320Y-20320
X-144780Y-20320
X-142240Y-20320
X-139700Y-20320
X-137160Y-20320
X-134620Y-20320
X-132080Y-20320
X-129540Y-20320
X-127000Y-20320
X-124460Y-20320
X-121920Y-20320
X-121920Y-12700
X-124460Y-12700
X-127000Y-12700
X-129540Y-12700
X-132080Y-12700
X-134620Y-12700
X-137160Y-12700
X-139700Y-12700
X-142240Y-12700
X-144780Y-12700
X-147320Y-12700
X-149860Y-12700
X-158750Y-50800
X-156210Y-50800
X-153670Y-50800
X-151130Y-50800
X-148590Y-50800
X-146050Y-50800
X-143510Y-50800
X-140970Y-50800
X-138430Y-50800
X-135890Y-50800
X-133350Y-50800
X-130810Y-50800
X-130810Y-43180
X-133350Y-43180
X-135890Y-43180
X-138430Y-43180
X-140970Y-43180
X-143510Y-43180
X-146050Y-43180
T8
X-70961Y-55562
X-65564Y-30162
X-93186Y-55562
X-115411Y-55562
X-128111Y-55562
X-134461Y-55562
X-116999Y-53340
X-156686Y-55562
X-169386Y-55562
X-143034Y-4128
X-143034Y-1746
X-129699Y-7779
X-127000Y-7144
X-129064Y-8890
X-124460Y-7144
X-84614Y-47149
X-91757Y-44609
X-118110Y-35243
X-119221Y-26987
X-119221Y-16351
X-91440Y-40164
X-104616Y-22701
X-86201Y-44609
X-102394Y-23654
X-134461Y-15399
X-109696Y-14922
X-64929Y-45879
X-102394Y-22384
X-131445Y-15875
X-108744Y-15875
X-63817Y-38418
X-101124Y-21907
X-119697Y-8731
X-120809Y-10001
X-86519Y-31591
X-89852Y-28257
X-171291Y17621
X-154464Y-3175
X-150495Y-7144
X-184467Y7937
X-94615Y-19368
X-118904Y21907
X-96361Y-18415
X-123507Y10478
X-127476Y14446
X-82391Y-32702
X-95726Y-20320
X-123507Y9208
X-69533Y-32544
X-64452Y-33973
X-67469Y-20479
X-93186Y-11112
X-101282Y-15875
X-105886Y-2857
X-113030Y5874
X-123507Y5874
X-87313Y-32544
X-90646Y-29210
X-104616Y-25241
X-112077Y-17780
X-67945Y-31591
X-72390Y-27146
X-94615Y-14129
X-103187Y-10160
X-123031Y7144
X-98266Y42863
X-110966Y33973
X-97631Y47307
X-102235Y38894
X-95091Y55721
X-103187Y30639
X-92869Y50959
X-127000Y-159
X-90487Y51594
X-94932Y51276
X-97631Y49689
X-144939Y4921
X-88900Y56674
X-114141Y49530
X-82233Y-22384
X-80963Y-19368
X-79216Y-19368
X-104299Y-17780
X-106839Y-5080
X-104140Y18733
X-87313Y55721
X-69691Y-36513
X-34449Y7779
X-50006Y54769
X-63659Y56356
X-53499Y42069
X-93027Y49530
X-72073Y49530
X-35243Y38735
X-51276Y54769
X-65881Y55404
X-93027Y43815
X-111601Y29210
X-115411Y25400
X-49054Y318
X-61912Y-14605
X-113189Y-9208
X-141446Y20161
X-121920Y39688
X-30639Y43021
X-41434Y15557
X-95409Y22225
X-110490Y4604
X-123507Y4604
X-143034Y13811
X-54769Y-18256
X-38100Y-6032
X-48577Y7779
X-50324Y45561
X-49371Y33020
X-38259Y6826
X-46037Y34131
X-37941Y22701
X-49530Y-11430
X-41434Y-11430
X-166529Y10636
X-147479Y-30639
X-146050Y-4128
X-54927Y-28575
X-44450Y-38100
X-40323Y-28257
X-54927Y-26352
X-67628Y-26352
X-67628Y-30162
X-70644Y-52705
X-68104Y-55721
X-65881Y-55245
X-62706Y-55245
X-59690Y-55086
X-88741Y-51594
X-170180Y-46990
X-164783Y-46355
X-163989Y-38576
X-156528Y-38576
X-153988Y-41116
X-151765Y-45720
X-125095Y-50641
X-120332Y-54769
X-91281Y-47149
X-79693Y-55245
X-96679Y-46831
X-88741Y-46990
X-83185Y-52546
X-106997Y-47625
X-87471Y-51594
X-74136Y-55245
X-135731Y-47942
X-127159Y-47942
X-127159Y-51117
X-122079Y-55721
X-175260Y-45244
X-173831Y-39529
X-158909Y-40799
X-96679Y-52864
X-86678Y-53499
X-88741Y-53022
X-86360Y-55404
X-187801Y-15557
X-123666Y-42386
X-128111Y-40958
X-132715Y-55245
X-131445Y-53975
X-124142Y-54927
X-131445Y-55245
X-175101Y-39529
X-167481Y-55245
X-167481Y-48260
X-165259Y-48577
X-163989Y-55245
X-160814Y-47307
X-165576Y-47307
X-126047Y-40481
X-140811Y-47942
X-114300Y-29210
X-153670Y-11747
X-149384Y-18256
X-157956Y-16669
X-154464Y-4445
X-150336Y-22384
X-160496Y-22384
X-180340Y-39370
X-150336Y-23654
X-157480Y-23654
X-141605Y-31591
X-142399Y-36513
X-141129Y-36671
X-137001Y-44767
X-160338Y-54134
X-156845Y-53499
X-154146Y-48101
X-144621Y22860
X-138271Y-4128
X-168434Y23495
X-143986Y12541
X-133826Y-16510
X-137954Y-16510
X-140811Y-4128
X-180340Y-16986
X-184944Y-21590
X-170180Y-45402
X-156528Y-29845
X-156528Y-19368
X-179229Y-15399
X-159703Y-4445
X-113982Y25400
X-123190Y3334
X-146209Y-15875
X-176371Y-16351
X-72549Y-14605
X-119856Y-952
X-123031Y-10795
X-168593Y-22860
X-133350Y-41116
X-130651Y-38418
X-128111Y-35878
X-120332Y-28099
X-142399Y-5239
X-120332Y-19685
X-114617Y-13970
X-95726Y-14922
X-82868Y-25876
X-72390Y-20479
X-70326Y-19526
X-61912Y-31591
X-152876Y-39529
X-180340Y-5080
X-108585Y-22701
X-104616Y-26670
X-95567Y-31909
X-80645Y-39211
X-160496Y-15081
X-134461Y-30639
X-172244Y7779
X-179229Y-8573
X-124460Y-159
X-99377Y-12065
X-113506Y-13017
X-124936Y-22384
M30