M48
;GenerationSoftware,Autodesk,EAGLE,9.6.1*%
;CreationDate,2025-08-24T23:37:08Z*%
FMAT,2
ICI,OFF
METRIC,TZ,000.000
T8C0.610
T7C0.813
T6C0.914
T5C0.940
T4C1.016
T3C1.829
T2C2.540
T1C3.175
%
G90
M71
T1
X-192405Y64770
X-28956Y64770
T2
X-63500Y-12700
X-100203Y31750
X-58039Y31750
X-100203Y-19050
X-58039Y-19050
X-96520Y-12700
X-63500Y25400
X-96520Y25400
T3
X-188722Y67691
X-32131Y67691
T4
X-53340Y-22860
X-30480Y-22860
X-34290Y52070
X-53340Y-30480
X-30480Y-30480
X-114300Y30480
X-53340Y-8890
X-30480Y-8890
X-53340Y24130
X-30480Y24130
X-57150Y52070
X-53340Y-38100
X-30480Y-38100
X-137160Y30480
T5
X-91440Y29210
X-88900Y29210
X-86360Y29210
X-83820Y29210
X-81280Y29210
X-78740Y29210
X-76200Y29210
X-91440Y-16510
X-71120Y29210
X-68580Y-16510
X-71120Y-16510
X-81280Y-16510
X-78740Y-16510
X-68580Y29210
X-83820Y-16510
X-86360Y-16510
X-73660Y-16510
X-76200Y-16510
X-73660Y29210
X-88900Y-16510
T6
X-92710Y40640
X-85090Y40640
X-73660Y40640
X-81280Y40640
X-67310Y35560
X-123190Y21590
X-125730Y21590
X-64770Y35560
T7
X-66040Y-34290
X-182880Y-29210
X-182880Y-11430
X-182880Y-13970
X-182880Y5080
X-182880Y2540
X-182880Y21590
X-182880Y19050
X-182880Y48260
X-182880Y45720
X-152400Y-12700
X-152400Y-15240
X-161290Y-43180
X-161290Y-45720
X-152400Y-26670
X-152400Y-29210
X-127000Y-43180
X-127000Y-45720
X-82550Y-43180
X-82550Y-45720
X-52705Y58420
X-33655Y58420
X-53975Y44450
X-34925Y44450
X-50165Y-15875
X-31115Y-15875
X-149860Y53340
X-152400Y53340
X-160020Y53340
X-162560Y53340
X-180340Y40640
X-177800Y40640
X-165100Y40640
X-162560Y40640
X-175260Y40640
X-172720Y40640
X-167640Y40640
X-170180Y40640
X-162560Y48260
X-165100Y48260
X-167640Y48260
X-170180Y48260
X-172720Y48260
X-175260Y48260
X-177800Y48260
X-180340Y48260
X-177800Y34290
X-185420Y34290
X-177800Y52070
X-175260Y52070
X-176530Y36830
X-184150Y36830
X-177800Y55880
X-170180Y55880
X-162560Y30480
X-170180Y30480
X-165100Y36830
X-167640Y36830
X-165100Y33020
X-172720Y33020
X-187960Y55880
X-180340Y55880
X-118110Y-33020
X-115570Y-33020
X-110490Y-25400
X-113030Y-25400
X-113030Y-33020
X-110490Y-33020
X-107950Y-25400
X-107950Y-33020
X-115570Y-25400
X-118110Y-25400
X-139700Y50800
X-153670Y1270
X-151130Y1270
X-138430Y1270
X-135890Y1270
X-148590Y1270
X-146050Y1270
X-140970Y1270
X-143510Y1270
X-133350Y1270
X-130810Y1270
X-128270Y1270
X-125730Y1270
X-123190Y1270
X-120650Y1270
X-118110Y1270
X-115570Y1270
X-113030Y1270
X-110490Y1270
X-107950Y1270
X-105410Y1270
X-105410Y16510
X-107950Y16510
X-110490Y16510
X-113030Y16510
X-115570Y16510
X-118110Y16510
X-120650Y16510
X-123190Y16510
X-125730Y16510
X-128270Y16510
X-130810Y16510
X-133350Y16510
X-135890Y16510
X-138430Y16510
X-140970Y16510
X-143510Y16510
X-146050Y16510
X-148590Y16510
X-151130Y16510
X-153670Y16510
X-91440Y-34290
X-88900Y-34290
X-86360Y-34290
X-83820Y-34290
X-81280Y-34290
X-78740Y-34290
X-76200Y-34290
X-73660Y-34290
X-71120Y-34290
X-68580Y-34290
X-66040Y-24130
X-68580Y-24130
X-71120Y-24130
X-73660Y-24130
X-76200Y-24130
X-78740Y-24130
X-81280Y-24130
X-83820Y-24130
X-86360Y-24130
X-88900Y-24130
X-91440Y-24130
X-93980Y45720
X-91440Y45720
X-78740Y45720
X-76200Y45720
X-88900Y45720
X-86360Y45720
X-81280Y45720
X-83820Y45720
X-73660Y45720
X-71120Y45720
X-71120Y53340
X-73660Y53340
X-76200Y53340
X-78740Y53340
X-81280Y53340
X-83820Y53340
X-86360Y53340
X-88900Y53340
X-91440Y53340
X-93980Y53340
X-101600Y-30480
X-101600Y-27940
X-63500Y53340
X-63500Y48260
X-52070Y63500
X-44450Y63500
X-91440Y-12700
X-88900Y-12700
X-76200Y-12700
X-73660Y-12700
X-86360Y-12700
X-83820Y-12700
X-78740Y-12700
X-81280Y-12700
X-71120Y-12700
X-68580Y-12700
X-68580Y25400
X-71120Y25400
X-73660Y25400
X-76200Y25400
X-78740Y25400
X-81280Y25400
X-83820Y25400
X-86360Y25400
X-88900Y25400
X-91440Y25400
X-59690Y-31750
X-59690Y-24130
X-66040Y41910
X-66040Y39370
X-59690Y43180
X-59690Y50800
X-31750Y41910
X-31750Y49530
X-92710Y36830
X-90170Y36830
X-87630Y36830
X-85090Y36830
X-82550Y36830
X-80010Y36830
X-77470Y36830
X-74930Y36830
X-52070Y10160
X-49530Y10160
X-36830Y10160
X-34290Y10160
X-46990Y10160
X-44450Y10160
X-39370Y10160
X-41910Y10160
X-34290Y17780
X-36830Y17780
X-39370Y17780
X-41910Y17780
X-44450Y17780
X-46990Y17780
X-49530Y17780
X-52070Y17780
X-52070Y-2540
X-49530Y-2540
X-36830Y-2540
X-36830Y5080
X-46990Y-2540
X-44450Y-2540
X-39370Y-2540
X-41910Y-2540
X-39370Y5080
X-41910Y5080
X-44450Y5080
X-46990Y5080
X-49530Y5080
X-52070Y5080
X-52070Y30480
X-49530Y30480
X-36830Y30480
X-36830Y38100
X-46990Y30480
X-44450Y30480
X-39370Y30480
X-41910Y30480
X-39370Y38100
X-41910Y38100
X-44450Y38100
X-46990Y38100
X-49530Y38100
X-52070Y38100
X-106680Y22860
X-114300Y22860
X-135890Y45720
X-133350Y45720
X-130810Y45720
X-128270Y45720
X-128270Y53340
X-130810Y53340
X-133350Y53340
X-135890Y53340
X-118110Y53340
X-118110Y45720
X-120650Y53340
X-120650Y45720
X-115570Y45720
X-115570Y53340
X-128270Y38100
X-135890Y38100
X-128270Y40640
X-135890Y40640
X-113030Y53340
X-113030Y45720
X-124460Y48260
X-124460Y50800
X-140970Y39370
X-140970Y36830
X-139700Y-5080
X-147320Y-5080
X-109220Y26670
X-107315Y27940
X-109220Y29210
X-67310Y53340
X-67310Y50800
X-55880Y38100
X-58420Y38100
X-30480Y15240
X-30480Y12700
X-154940Y39370
X-154940Y31750
X-147320Y31750
X-147320Y39370
X-149860Y45720
X-152400Y45720
X-152400Y21590
X-149860Y21590
X-140970Y-38100
X-139700Y48260
X-96520Y53340
X-96520Y50800
X-33020Y0
X-33020Y2540
X-33020Y33020
X-33020Y35560
X-96520Y-27940
X-96520Y-30480
X-138430Y21590
X-146050Y21590
X-43180Y-49530
X-43180Y-46990
X-39370Y-43180
X-39370Y-53340
X-46990Y-43180
X-46990Y-53340
X-31750Y-53340
X-31750Y-43180
X-50800Y-53340
X-50800Y-43180
X-35560Y-53340
X-35560Y-43180
X-118110Y-50800
X-115570Y-50800
X-102870Y-50800
X-100330Y-50800
X-113030Y-50800
X-110490Y-50800
X-105410Y-50800
X-107950Y-50800
X-97790Y-50800
X-95250Y-50800
X-95250Y-43180
X-97790Y-43180
X-100330Y-43180
X-102870Y-43180
X-105410Y-43180
X-107950Y-43180
X-110490Y-43180
X-113030Y-43180
X-115570Y-43180
X-118110Y-43180
X-119380Y-38100
X-116840Y-38100
X-114300Y-38100
X-111760Y-38100
X-109220Y-38100
X-106680Y-38100
X-104140Y-38100
X-149860Y-20320
X-147320Y-20320
X-144780Y-20320
X-142240Y-20320
X-139700Y-20320
X-137160Y-20320
X-134620Y-20320
X-132080Y-20320
X-129540Y-20320
X-127000Y-20320
X-124460Y-20320
X-121920Y-20320
X-121920Y-12700
X-124460Y-12700
X-127000Y-12700
X-129540Y-12700
X-132080Y-12700
X-134620Y-12700
X-137160Y-12700
X-139700Y-12700
X-142240Y-12700
X-144780Y-12700
X-147320Y-12700
X-149860Y-12700
X-158750Y-50800
X-156210Y-50800
X-153670Y-50800
X-151130Y-50800
X-148590Y-50800
X-146050Y-50800
X-143510Y-50800
X-140970Y-50800
X-138430Y-50800
X-135890Y-50800
X-133350Y-50800
X-130810Y-50800
X-130810Y-43180
X-133350Y-43180
X-135890Y-43180
X-138430Y-43180
X-140970Y-43180
X-143510Y-43180
X-146050Y-43180
X-148590Y-43180
X-151130Y-43180
X-153670Y-43180
X-156210Y-43180
X-158750Y-43180
X-180340Y-50800
X-177800Y-50800
X-165100Y-50800
X-165100Y-43180
X-175260Y-50800
X-172720Y-50800
X-167640Y-50800
X-170180Y-50800
X-167640Y-43180
X-170180Y-43180
X-172720Y-43180
X-175260Y-43180
X-177800Y-43180
X-180340Y-43180
X-80010Y-50800
X-77470Y-50800
X-64770Y-50800
X-62230Y-50800
X-74930Y-50800
X-72390Y-50800
X-67310Y-50800
X-69850Y-50800
X-59690Y-50800
X-57150Y-50800
X-57150Y-43180
X-59690Y-43180
X-62230Y-43180
X-64770Y-43180
X-67310Y-43180
X-69850Y-43180
X-72390Y-43180
X-74930Y-43180
X-77470Y-43180
X-80010Y-43180
X-180340Y-19050
X-177800Y-19050
X-165100Y-19050
X-162560Y-19050
X-175260Y-19050
X-172720Y-19050
X-167640Y-19050
X-170180Y-19050
X-162560Y-11430
X-165100Y-11430
X-167640Y-11430
X-170180Y-11430
X-172720Y-11430
X-175260Y-11430
X-177800Y-11430
X-180340Y-11430
X-170180Y-22860
X-177800Y-22860
X-180340Y-2540
X-177800Y-2540
X-165100Y-2540
X-165100Y5080
X-175260Y-2540
X-172720Y-2540
X-167640Y-2540
X-170180Y-2540
X-167640Y5080
X-170180Y5080
X-172720Y5080
X-175260Y5080
X-177800Y5080
X-180340Y5080
X-180340Y13970
X-177800Y13970
X-165100Y13970
X-165100Y21590
X-175260Y13970
X-172720Y13970
X-167640Y13970
X-170180Y13970
X-167640Y21590
X-170180Y21590
X-172720Y21590
X-175260Y21590
X-177800Y21590
X-180340Y21590
X-171450Y10160
X-179070Y10160
X-180340Y-34290
X-177800Y-34290
X-165100Y-34290
X-162560Y-34290
X-175260Y-34290
X-172720Y-34290
X-167640Y-34290
X-170180Y-34290
X-162560Y-26670
X-165100Y-26670
X-167640Y-26670
X-170180Y-26670
X-172720Y-26670
X-175260Y-26670
X-177800Y-26670
X-180340Y-26670
X-187960Y-41910
X-185420Y-41910
X-185420Y-34290
X-187960Y-34290
X-186690Y-22860
X-186690Y-30480
X-189230Y-22860
X-189230Y-30480
X-149860Y-34290
X-147320Y-34290
X-134620Y-34290
X-134620Y-26670
X-144780Y-34290
X-142240Y-34290
X-137160Y-34290
X-139700Y-34290
X-137160Y-26670
X-139700Y-26670
X-142240Y-26670
X-144780Y-26670
X-147320Y-26670
X-149860Y-26670
X-148590Y-38100
X-138430Y-38100
X-135890Y-38100
X-129540Y-5080
X-127000Y-5080
X-124460Y-5080
X-121920Y-5080
X-119380Y-5080
X-182880Y-48260
X-182880Y-50800
X-182880Y-26670
T8
X-115411Y-54610
X-93186Y-54610
X-70961Y-54610
X-78264Y-41116
X-103029Y-31909
X-103029Y-29369
X-117475Y-3175
X-121602Y-2064
X-125730Y-1429
X-80010Y-40164
X-104299Y-31909
X-104299Y-27305
X-117475Y-1746
X-133985Y-7461
X-116522Y-7461
X-81756Y-39211
X-104140Y-33338
X-104140Y-24606
X-131763Y-6509
X-83185Y-38576
X-103029Y-34290
X-107474Y-18733
X-114617Y-17780
X-94932Y-40481
X-106204Y-19209
X-132556Y-10636
X-61277Y-31115
X-86360Y-28257
X-107632Y-5556
X-116681Y3175
X-83820Y-41434
X-97472Y-26670
X-84773Y-32544
X-95567Y-22860
X-87154Y-31591
X-113347Y-17780
X-128746Y-2223
X-88900Y-43656
X-100012Y-25082
X-111919Y-6350
X-120332Y5556
X-105251Y38735
X-106204Y36989
X-127000Y-2223
X-148590Y10636
X-83820Y49530
X-80169Y-19368
X-79851Y-20638
X-63341Y55404
X-64611Y54451
X-123031Y52387
X-49371Y25559
X-126524Y37783
X-91599Y-10319
X-60801Y-21114
X-105569Y-952
X-152400Y-39846
X-135573Y-46514
X-129222Y-50165
X-85408Y-50800
X-104457Y-46514
X-92392Y-46514
X-80010Y-52864
X-126206Y-53181
X-154781Y-38576
X-154781Y-41116
X-86360Y-52546
X-84455Y-54451
X-87630Y-52546
X-85725Y-54451
X-161290Y-9366
X-152400Y-11112
X-155258Y-15399
X-150495Y11112
X-153670Y-39688
X-159703Y-32385
X-176689Y-20638
X-116364Y-53340
X-145098Y-52546
X-145574Y-37148
X-149860Y-18256
X-154146Y-22860
X-154146Y-25717
X-101600Y-47942
X-111442Y-28892
X-164148Y-40323
X-167640Y-40164
X-113824Y-52864
X-122237Y-48419
X-113189Y-55245
X-157480Y-18574
X-104299Y-47784
X-124619Y-51276
X-124460Y-2223
X-134461Y-55562
X-130492Y-14764
X-141129Y-2223
X-99536Y-40323
X-88741Y-44926
X-91122Y-21907
X-133985Y-4128
X-152241Y-19526
X-104299Y-35243
X-135890Y-4128
X-152876Y-18415
X-133191Y-26670
X-87630Y33020
X-83820Y33020
X-80010Y33020
M30