G04 EAGLE Gerber RS-274X export*
G75*
%MOMM*%
%FSLAX34Y34*%
%LPD*%
%INSilkscreen Bottom*%
%IPPOS*%
%AMOC8*
5,1,8,0,0,1.08239X$1,22.5*%
G01*
%ADD10C,0.152400*%
%ADD11C,0.127000*%


D10*
X-1896618Y158759D02*
X-1880348Y158759D01*
X-1888483Y158759D02*
X-1888483Y169606D01*
X-1880348Y169606D02*
X-1896618Y169606D01*
X-1896618Y175131D02*
X-1880348Y175131D01*
X-1880348Y183266D01*
X-1883060Y185977D01*
X-1888483Y185977D01*
X-1891195Y183266D01*
X-1891195Y175131D01*
X-1888483Y191502D02*
X-1888483Y202349D01*
X-1896618Y207874D02*
X-1880348Y207874D01*
X-1880348Y216009D01*
X-1883060Y218720D01*
X-1885771Y218720D01*
X-1888483Y216009D01*
X-1891195Y218720D01*
X-1893906Y218720D01*
X-1896618Y216009D01*
X-1896618Y207874D01*
X-1888483Y207874D02*
X-1888483Y216009D01*
X-1893906Y224245D02*
X-1880348Y224245D01*
X-1893906Y224245D02*
X-1896618Y226957D01*
X-1896618Y232380D01*
X-1893906Y235092D01*
X-1880348Y235092D01*
X-1880348Y240617D02*
X-1896618Y240617D01*
X-1880348Y240617D02*
X-1880348Y248752D01*
X-1883060Y251464D01*
X-1885771Y251464D01*
X-1888483Y248752D01*
X-1891195Y251464D01*
X-1893906Y251464D01*
X-1896618Y248752D01*
X-1896618Y240617D01*
X-1888483Y240617D02*
X-1888483Y248752D01*
X-1896618Y256989D02*
X-1880348Y256989D01*
X-1880348Y265123D01*
X-1883060Y267835D01*
X-1885771Y267835D01*
X-1888483Y265123D01*
X-1891195Y267835D01*
X-1893906Y267835D01*
X-1896618Y265123D01*
X-1896618Y256989D01*
X-1888483Y256989D02*
X-1888483Y265123D01*
X-1880348Y273360D02*
X-1896618Y273360D01*
X-1896618Y284207D01*
X-1880348Y289732D02*
X-1880348Y300578D01*
X-1880348Y289732D02*
X-1896618Y289732D01*
X-1896618Y300578D01*
X-1888483Y295155D02*
X-1888483Y289732D01*
X-1888483Y306103D02*
X-1888483Y316950D01*
X-1896618Y330610D02*
X-1880348Y330610D01*
X-1888483Y322475D01*
X-1888483Y333321D01*
X-1880348Y338846D02*
X-1896618Y338846D01*
X-1896618Y349693D01*
X-1885771Y371589D02*
X-1896618Y377013D01*
X-1885771Y382436D01*
X-1883060Y387961D02*
X-1893906Y387961D01*
X-1883060Y387961D02*
X-1880348Y390673D01*
X-1880348Y396096D01*
X-1883060Y398808D01*
X-1893906Y398808D01*
X-1896618Y396096D01*
X-1896618Y390673D01*
X-1893906Y387961D01*
X-1883060Y398808D01*
X-1893906Y404333D02*
X-1896618Y404333D01*
X-1893906Y404333D02*
X-1893906Y407044D01*
X-1896618Y407044D01*
X-1896618Y404333D01*
X-1885771Y412518D02*
X-1880348Y417942D01*
X-1896618Y417942D01*
X-1896618Y423365D02*
X-1896618Y412518D01*
X-1896618Y437025D02*
X-1880348Y437025D01*
X-1888483Y428890D01*
X-1888483Y439737D01*
X-1912441Y158759D02*
X-1920576Y158759D01*
X-1923288Y161471D01*
X-1920576Y164182D01*
X-1923288Y166894D01*
X-1920576Y169606D01*
X-1912441Y169606D01*
X-1912441Y175131D02*
X-1920576Y175131D01*
X-1923288Y177842D01*
X-1920576Y180554D01*
X-1923288Y183266D01*
X-1920576Y185977D01*
X-1912441Y185977D01*
X-1912441Y191502D02*
X-1920576Y191502D01*
X-1923288Y194214D01*
X-1920576Y196926D01*
X-1923288Y199637D01*
X-1920576Y202349D01*
X-1912441Y202349D01*
X-1920576Y207874D02*
X-1923288Y207874D01*
X-1920576Y207874D02*
X-1920576Y210585D01*
X-1923288Y210585D01*
X-1923288Y207874D01*
X-1923288Y216060D02*
X-1923288Y224195D01*
X-1920576Y226906D01*
X-1917865Y224195D01*
X-1917865Y218771D01*
X-1915153Y216060D01*
X-1912441Y218771D01*
X-1912441Y226906D01*
X-1912441Y232431D02*
X-1923288Y232431D01*
X-1912441Y232431D02*
X-1912441Y235143D01*
X-1915153Y237854D01*
X-1923288Y237854D01*
X-1915153Y237854D02*
X-1912441Y240566D01*
X-1915153Y243278D01*
X-1923288Y243278D01*
X-1923288Y248803D02*
X-1907018Y248803D01*
X-1923288Y248803D02*
X-1923288Y256938D01*
X-1920576Y259649D01*
X-1915153Y259649D01*
X-1912441Y256938D01*
X-1912441Y248803D01*
X-1912441Y267886D02*
X-1912441Y273309D01*
X-1915153Y276021D01*
X-1923288Y276021D01*
X-1923288Y267886D01*
X-1920576Y265174D01*
X-1917865Y267886D01*
X-1917865Y276021D01*
X-1923288Y281546D02*
X-1907018Y281546D01*
X-1917865Y281546D02*
X-1923288Y289681D01*
X-1917865Y281546D02*
X-1912441Y289681D01*
X-1923288Y297900D02*
X-1923288Y303324D01*
X-1923288Y297900D02*
X-1920576Y295189D01*
X-1915153Y295189D01*
X-1912441Y297900D01*
X-1912441Y303324D01*
X-1915153Y306035D01*
X-1917865Y306035D01*
X-1917865Y295189D01*
X-1923288Y311560D02*
X-1912441Y311560D01*
X-1917865Y311560D02*
X-1912441Y316984D01*
X-1912441Y319695D01*
X-1920576Y325203D02*
X-1923288Y325203D01*
X-1920576Y325203D02*
X-1920576Y327915D01*
X-1923288Y327915D01*
X-1923288Y325203D01*
X-1912441Y336101D02*
X-1912441Y344236D01*
X-1912441Y336101D02*
X-1915153Y333389D01*
X-1920576Y333389D01*
X-1923288Y336101D01*
X-1923288Y344236D01*
X-1923288Y352472D02*
X-1923288Y357896D01*
X-1920576Y360607D01*
X-1915153Y360607D01*
X-1912441Y357896D01*
X-1912441Y352472D01*
X-1915153Y349761D01*
X-1920576Y349761D01*
X-1923288Y352472D01*
X-1923288Y366132D02*
X-1912441Y366132D01*
X-1912441Y368844D01*
X-1915153Y371556D01*
X-1923288Y371556D01*
X-1915153Y371556D02*
X-1912441Y374267D01*
X-1915153Y376979D01*
X-1923288Y376979D01*
X-1686560Y26670D02*
X-1686560Y-1270D01*
X-1666240Y26670D02*
X-1666242Y26770D01*
X-1666248Y26869D01*
X-1666258Y26969D01*
X-1666271Y27067D01*
X-1666289Y27166D01*
X-1666310Y27263D01*
X-1666335Y27359D01*
X-1666364Y27455D01*
X-1666397Y27549D01*
X-1666433Y27642D01*
X-1666473Y27733D01*
X-1666517Y27823D01*
X-1666564Y27911D01*
X-1666614Y27997D01*
X-1666668Y28081D01*
X-1666725Y28163D01*
X-1666785Y28242D01*
X-1666849Y28320D01*
X-1666915Y28394D01*
X-1666984Y28466D01*
X-1667056Y28535D01*
X-1667130Y28601D01*
X-1667208Y28665D01*
X-1667287Y28725D01*
X-1667369Y28782D01*
X-1667453Y28836D01*
X-1667539Y28886D01*
X-1667627Y28933D01*
X-1667717Y28977D01*
X-1667808Y29017D01*
X-1667901Y29053D01*
X-1667995Y29086D01*
X-1668091Y29115D01*
X-1668187Y29140D01*
X-1668284Y29161D01*
X-1668383Y29179D01*
X-1668481Y29192D01*
X-1668581Y29202D01*
X-1668680Y29208D01*
X-1668780Y29210D01*
X-1666240Y-1270D02*
X-1666242Y-1370D01*
X-1666248Y-1469D01*
X-1666258Y-1569D01*
X-1666271Y-1667D01*
X-1666289Y-1766D01*
X-1666310Y-1863D01*
X-1666335Y-1959D01*
X-1666364Y-2055D01*
X-1666397Y-2149D01*
X-1666433Y-2242D01*
X-1666473Y-2333D01*
X-1666517Y-2423D01*
X-1666564Y-2511D01*
X-1666614Y-2597D01*
X-1666668Y-2681D01*
X-1666725Y-2763D01*
X-1666785Y-2842D01*
X-1666849Y-2920D01*
X-1666915Y-2994D01*
X-1666984Y-3066D01*
X-1667056Y-3135D01*
X-1667130Y-3201D01*
X-1667208Y-3265D01*
X-1667287Y-3325D01*
X-1667369Y-3382D01*
X-1667453Y-3436D01*
X-1667539Y-3486D01*
X-1667627Y-3533D01*
X-1667717Y-3577D01*
X-1667808Y-3617D01*
X-1667901Y-3653D01*
X-1667995Y-3686D01*
X-1668091Y-3715D01*
X-1668187Y-3740D01*
X-1668284Y-3761D01*
X-1668383Y-3779D01*
X-1668481Y-3792D01*
X-1668581Y-3802D01*
X-1668680Y-3808D01*
X-1668780Y-3810D01*
X-1684020Y-3810D02*
X-1684120Y-3808D01*
X-1684219Y-3802D01*
X-1684319Y-3792D01*
X-1684417Y-3779D01*
X-1684516Y-3761D01*
X-1684613Y-3740D01*
X-1684709Y-3715D01*
X-1684805Y-3686D01*
X-1684899Y-3653D01*
X-1684992Y-3617D01*
X-1685083Y-3577D01*
X-1685173Y-3533D01*
X-1685261Y-3486D01*
X-1685347Y-3436D01*
X-1685431Y-3382D01*
X-1685513Y-3325D01*
X-1685592Y-3265D01*
X-1685670Y-3201D01*
X-1685744Y-3135D01*
X-1685816Y-3066D01*
X-1685885Y-2994D01*
X-1685951Y-2920D01*
X-1686015Y-2842D01*
X-1686075Y-2763D01*
X-1686132Y-2681D01*
X-1686186Y-2597D01*
X-1686236Y-2511D01*
X-1686283Y-2423D01*
X-1686327Y-2333D01*
X-1686367Y-2242D01*
X-1686403Y-2149D01*
X-1686436Y-2055D01*
X-1686465Y-1959D01*
X-1686490Y-1863D01*
X-1686511Y-1766D01*
X-1686529Y-1667D01*
X-1686542Y-1569D01*
X-1686552Y-1469D01*
X-1686558Y-1370D01*
X-1686560Y-1270D01*
X-1686560Y26670D02*
X-1686558Y26770D01*
X-1686552Y26869D01*
X-1686542Y26969D01*
X-1686529Y27067D01*
X-1686511Y27166D01*
X-1686490Y27263D01*
X-1686465Y27359D01*
X-1686436Y27455D01*
X-1686403Y27549D01*
X-1686367Y27642D01*
X-1686327Y27733D01*
X-1686283Y27823D01*
X-1686236Y27911D01*
X-1686186Y27997D01*
X-1686132Y28081D01*
X-1686075Y28163D01*
X-1686015Y28242D01*
X-1685951Y28320D01*
X-1685885Y28394D01*
X-1685816Y28466D01*
X-1685744Y28535D01*
X-1685670Y28601D01*
X-1685592Y28665D01*
X-1685513Y28725D01*
X-1685431Y28782D01*
X-1685347Y28836D01*
X-1685261Y28886D01*
X-1685173Y28933D01*
X-1685083Y28977D01*
X-1684992Y29017D01*
X-1684899Y29053D01*
X-1684805Y29086D01*
X-1684709Y29115D01*
X-1684613Y29140D01*
X-1684516Y29161D01*
X-1684417Y29179D01*
X-1684319Y29192D01*
X-1684219Y29202D01*
X-1684120Y29208D01*
X-1684020Y29210D01*
X-1668780Y29210D01*
X-1668780Y-3810D02*
X-1684020Y-3810D01*
X-1666240Y-1270D02*
X-1666240Y26670D01*
D11*
X-1654802Y4452D02*
X-1652895Y2545D01*
X-1652895Y-1268D01*
X-1654802Y-3175D01*
X-1656709Y-3175D01*
X-1658615Y-1268D01*
X-1658615Y2545D01*
X-1660522Y4452D01*
X-1662428Y4452D01*
X-1664335Y2545D01*
X-1664335Y-1268D01*
X-1662428Y-3175D01*
X-1662428Y8519D02*
X-1664335Y10426D01*
X-1664335Y12332D01*
X-1662428Y14239D01*
X-1652895Y14239D01*
X-1652895Y16145D02*
X-1652895Y12332D01*
X-1656709Y20213D02*
X-1652895Y24026D01*
X-1664335Y24026D01*
X-1664335Y20213D02*
X-1664335Y27839D01*
D10*
X-1737360Y26670D02*
X-1737360Y-1270D01*
X-1717040Y26670D02*
X-1717042Y26770D01*
X-1717048Y26869D01*
X-1717058Y26969D01*
X-1717071Y27067D01*
X-1717089Y27166D01*
X-1717110Y27263D01*
X-1717135Y27359D01*
X-1717164Y27455D01*
X-1717197Y27549D01*
X-1717233Y27642D01*
X-1717273Y27733D01*
X-1717317Y27823D01*
X-1717364Y27911D01*
X-1717414Y27997D01*
X-1717468Y28081D01*
X-1717525Y28163D01*
X-1717585Y28242D01*
X-1717649Y28320D01*
X-1717715Y28394D01*
X-1717784Y28466D01*
X-1717856Y28535D01*
X-1717930Y28601D01*
X-1718008Y28665D01*
X-1718087Y28725D01*
X-1718169Y28782D01*
X-1718253Y28836D01*
X-1718339Y28886D01*
X-1718427Y28933D01*
X-1718517Y28977D01*
X-1718608Y29017D01*
X-1718701Y29053D01*
X-1718795Y29086D01*
X-1718891Y29115D01*
X-1718987Y29140D01*
X-1719084Y29161D01*
X-1719183Y29179D01*
X-1719281Y29192D01*
X-1719381Y29202D01*
X-1719480Y29208D01*
X-1719580Y29210D01*
X-1717040Y-1270D02*
X-1717042Y-1370D01*
X-1717048Y-1469D01*
X-1717058Y-1569D01*
X-1717071Y-1667D01*
X-1717089Y-1766D01*
X-1717110Y-1863D01*
X-1717135Y-1959D01*
X-1717164Y-2055D01*
X-1717197Y-2149D01*
X-1717233Y-2242D01*
X-1717273Y-2333D01*
X-1717317Y-2423D01*
X-1717364Y-2511D01*
X-1717414Y-2597D01*
X-1717468Y-2681D01*
X-1717525Y-2763D01*
X-1717585Y-2842D01*
X-1717649Y-2920D01*
X-1717715Y-2994D01*
X-1717784Y-3066D01*
X-1717856Y-3135D01*
X-1717930Y-3201D01*
X-1718008Y-3265D01*
X-1718087Y-3325D01*
X-1718169Y-3382D01*
X-1718253Y-3436D01*
X-1718339Y-3486D01*
X-1718427Y-3533D01*
X-1718517Y-3577D01*
X-1718608Y-3617D01*
X-1718701Y-3653D01*
X-1718795Y-3686D01*
X-1718891Y-3715D01*
X-1718987Y-3740D01*
X-1719084Y-3761D01*
X-1719183Y-3779D01*
X-1719281Y-3792D01*
X-1719381Y-3802D01*
X-1719480Y-3808D01*
X-1719580Y-3810D01*
X-1734820Y-3810D02*
X-1734920Y-3808D01*
X-1735019Y-3802D01*
X-1735119Y-3792D01*
X-1735217Y-3779D01*
X-1735316Y-3761D01*
X-1735413Y-3740D01*
X-1735509Y-3715D01*
X-1735605Y-3686D01*
X-1735699Y-3653D01*
X-1735792Y-3617D01*
X-1735883Y-3577D01*
X-1735973Y-3533D01*
X-1736061Y-3486D01*
X-1736147Y-3436D01*
X-1736231Y-3382D01*
X-1736313Y-3325D01*
X-1736392Y-3265D01*
X-1736470Y-3201D01*
X-1736544Y-3135D01*
X-1736616Y-3066D01*
X-1736685Y-2994D01*
X-1736751Y-2920D01*
X-1736815Y-2842D01*
X-1736875Y-2763D01*
X-1736932Y-2681D01*
X-1736986Y-2597D01*
X-1737036Y-2511D01*
X-1737083Y-2423D01*
X-1737127Y-2333D01*
X-1737167Y-2242D01*
X-1737203Y-2149D01*
X-1737236Y-2055D01*
X-1737265Y-1959D01*
X-1737290Y-1863D01*
X-1737311Y-1766D01*
X-1737329Y-1667D01*
X-1737342Y-1569D01*
X-1737352Y-1469D01*
X-1737358Y-1370D01*
X-1737360Y-1270D01*
X-1737360Y26670D02*
X-1737358Y26770D01*
X-1737352Y26869D01*
X-1737342Y26969D01*
X-1737329Y27067D01*
X-1737311Y27166D01*
X-1737290Y27263D01*
X-1737265Y27359D01*
X-1737236Y27455D01*
X-1737203Y27549D01*
X-1737167Y27642D01*
X-1737127Y27733D01*
X-1737083Y27823D01*
X-1737036Y27911D01*
X-1736986Y27997D01*
X-1736932Y28081D01*
X-1736875Y28163D01*
X-1736815Y28242D01*
X-1736751Y28320D01*
X-1736685Y28394D01*
X-1736616Y28466D01*
X-1736544Y28535D01*
X-1736470Y28601D01*
X-1736392Y28665D01*
X-1736313Y28725D01*
X-1736231Y28782D01*
X-1736147Y28836D01*
X-1736061Y28886D01*
X-1735973Y28933D01*
X-1735883Y28977D01*
X-1735792Y29017D01*
X-1735699Y29053D01*
X-1735605Y29086D01*
X-1735509Y29115D01*
X-1735413Y29140D01*
X-1735316Y29161D01*
X-1735217Y29179D01*
X-1735119Y29192D01*
X-1735019Y29202D01*
X-1734920Y29208D01*
X-1734820Y29210D01*
X-1719580Y29210D01*
X-1719580Y-3810D02*
X-1734820Y-3810D01*
X-1717040Y-1270D02*
X-1717040Y26670D01*
D11*
X-1705602Y4452D02*
X-1703695Y2545D01*
X-1703695Y-1268D01*
X-1705602Y-3175D01*
X-1707509Y-3175D01*
X-1709415Y-1268D01*
X-1709415Y2545D01*
X-1711322Y4452D01*
X-1713228Y4452D01*
X-1715135Y2545D01*
X-1715135Y-1268D01*
X-1713228Y-3175D01*
X-1713228Y8519D02*
X-1715135Y10426D01*
X-1715135Y12332D01*
X-1713228Y14239D01*
X-1703695Y14239D01*
X-1703695Y16145D02*
X-1703695Y12332D01*
X-1715135Y20213D02*
X-1715135Y27839D01*
X-1715135Y20213D02*
X-1707509Y27839D01*
X-1705602Y27839D01*
X-1703695Y25933D01*
X-1703695Y22120D01*
X-1705602Y20213D01*
D10*
X-1788160Y26670D02*
X-1788160Y-1270D01*
X-1767840Y26670D02*
X-1767842Y26770D01*
X-1767848Y26869D01*
X-1767858Y26969D01*
X-1767871Y27067D01*
X-1767889Y27166D01*
X-1767910Y27263D01*
X-1767935Y27359D01*
X-1767964Y27455D01*
X-1767997Y27549D01*
X-1768033Y27642D01*
X-1768073Y27733D01*
X-1768117Y27823D01*
X-1768164Y27911D01*
X-1768214Y27997D01*
X-1768268Y28081D01*
X-1768325Y28163D01*
X-1768385Y28242D01*
X-1768449Y28320D01*
X-1768515Y28394D01*
X-1768584Y28466D01*
X-1768656Y28535D01*
X-1768730Y28601D01*
X-1768808Y28665D01*
X-1768887Y28725D01*
X-1768969Y28782D01*
X-1769053Y28836D01*
X-1769139Y28886D01*
X-1769227Y28933D01*
X-1769317Y28977D01*
X-1769408Y29017D01*
X-1769501Y29053D01*
X-1769595Y29086D01*
X-1769691Y29115D01*
X-1769787Y29140D01*
X-1769884Y29161D01*
X-1769983Y29179D01*
X-1770081Y29192D01*
X-1770181Y29202D01*
X-1770280Y29208D01*
X-1770380Y29210D01*
X-1767840Y-1270D02*
X-1767842Y-1370D01*
X-1767848Y-1469D01*
X-1767858Y-1569D01*
X-1767871Y-1667D01*
X-1767889Y-1766D01*
X-1767910Y-1863D01*
X-1767935Y-1959D01*
X-1767964Y-2055D01*
X-1767997Y-2149D01*
X-1768033Y-2242D01*
X-1768073Y-2333D01*
X-1768117Y-2423D01*
X-1768164Y-2511D01*
X-1768214Y-2597D01*
X-1768268Y-2681D01*
X-1768325Y-2763D01*
X-1768385Y-2842D01*
X-1768449Y-2920D01*
X-1768515Y-2994D01*
X-1768584Y-3066D01*
X-1768656Y-3135D01*
X-1768730Y-3201D01*
X-1768808Y-3265D01*
X-1768887Y-3325D01*
X-1768969Y-3382D01*
X-1769053Y-3436D01*
X-1769139Y-3486D01*
X-1769227Y-3533D01*
X-1769317Y-3577D01*
X-1769408Y-3617D01*
X-1769501Y-3653D01*
X-1769595Y-3686D01*
X-1769691Y-3715D01*
X-1769787Y-3740D01*
X-1769884Y-3761D01*
X-1769983Y-3779D01*
X-1770081Y-3792D01*
X-1770181Y-3802D01*
X-1770280Y-3808D01*
X-1770380Y-3810D01*
X-1785620Y-3810D02*
X-1785720Y-3808D01*
X-1785819Y-3802D01*
X-1785919Y-3792D01*
X-1786017Y-3779D01*
X-1786116Y-3761D01*
X-1786213Y-3740D01*
X-1786309Y-3715D01*
X-1786405Y-3686D01*
X-1786499Y-3653D01*
X-1786592Y-3617D01*
X-1786683Y-3577D01*
X-1786773Y-3533D01*
X-1786861Y-3486D01*
X-1786947Y-3436D01*
X-1787031Y-3382D01*
X-1787113Y-3325D01*
X-1787192Y-3265D01*
X-1787270Y-3201D01*
X-1787344Y-3135D01*
X-1787416Y-3066D01*
X-1787485Y-2994D01*
X-1787551Y-2920D01*
X-1787615Y-2842D01*
X-1787675Y-2763D01*
X-1787732Y-2681D01*
X-1787786Y-2597D01*
X-1787836Y-2511D01*
X-1787883Y-2423D01*
X-1787927Y-2333D01*
X-1787967Y-2242D01*
X-1788003Y-2149D01*
X-1788036Y-2055D01*
X-1788065Y-1959D01*
X-1788090Y-1863D01*
X-1788111Y-1766D01*
X-1788129Y-1667D01*
X-1788142Y-1569D01*
X-1788152Y-1469D01*
X-1788158Y-1370D01*
X-1788160Y-1270D01*
X-1788160Y26670D02*
X-1788158Y26770D01*
X-1788152Y26869D01*
X-1788142Y26969D01*
X-1788129Y27067D01*
X-1788111Y27166D01*
X-1788090Y27263D01*
X-1788065Y27359D01*
X-1788036Y27455D01*
X-1788003Y27549D01*
X-1787967Y27642D01*
X-1787927Y27733D01*
X-1787883Y27823D01*
X-1787836Y27911D01*
X-1787786Y27997D01*
X-1787732Y28081D01*
X-1787675Y28163D01*
X-1787615Y28242D01*
X-1787551Y28320D01*
X-1787485Y28394D01*
X-1787416Y28466D01*
X-1787344Y28535D01*
X-1787270Y28601D01*
X-1787192Y28665D01*
X-1787113Y28725D01*
X-1787031Y28782D01*
X-1786947Y28836D01*
X-1786861Y28886D01*
X-1786773Y28933D01*
X-1786683Y28977D01*
X-1786592Y29017D01*
X-1786499Y29053D01*
X-1786405Y29086D01*
X-1786309Y29115D01*
X-1786213Y29140D01*
X-1786116Y29161D01*
X-1786017Y29179D01*
X-1785919Y29192D01*
X-1785819Y29202D01*
X-1785720Y29208D01*
X-1785620Y29210D01*
X-1770380Y29210D01*
X-1770380Y-3810D02*
X-1785620Y-3810D01*
X-1767840Y-1270D02*
X-1767840Y26670D01*
D11*
X-1756402Y4452D02*
X-1754495Y2545D01*
X-1754495Y-1268D01*
X-1756402Y-3175D01*
X-1758309Y-3175D01*
X-1760215Y-1268D01*
X-1760215Y2545D01*
X-1762122Y4452D01*
X-1764028Y4452D01*
X-1765935Y2545D01*
X-1765935Y-1268D01*
X-1764028Y-3175D01*
X-1764028Y8519D02*
X-1765935Y10426D01*
X-1765935Y12332D01*
X-1764028Y14239D01*
X-1754495Y14239D01*
X-1754495Y16145D02*
X-1754495Y12332D01*
X-1756402Y20213D02*
X-1754495Y22120D01*
X-1754495Y25933D01*
X-1756402Y27839D01*
X-1758309Y27839D01*
X-1760215Y25933D01*
X-1760215Y24026D01*
X-1760215Y25933D02*
X-1762122Y27839D01*
X-1764028Y27839D01*
X-1765935Y25933D01*
X-1765935Y22120D01*
X-1764028Y20213D01*
M02*
