G04 EAGLE Gerber RS-274X export*
G75*
%MOMM*%
%FSLAX34Y34*%
%LPD*%
%INBoard Outline*%
%IPPOS*%
%AMOC8*
5,1,8,0,0,1.08239X$1,22.5*%
G01*
%ADD10C,0.000000*%
%ADD11C,0.127000*%
%ADD12C,0.254000*%


D10*
X-977900Y254000D02*
X-977896Y254312D01*
X-977885Y254623D01*
X-977866Y254934D01*
X-977839Y255245D01*
X-977804Y255555D01*
X-977763Y255863D01*
X-977713Y256171D01*
X-977656Y256478D01*
X-977591Y256783D01*
X-977519Y257086D01*
X-977440Y257387D01*
X-977353Y257687D01*
X-977259Y257984D01*
X-977158Y258279D01*
X-977049Y258571D01*
X-976933Y258860D01*
X-976810Y259147D01*
X-976681Y259430D01*
X-976544Y259710D01*
X-976400Y259987D01*
X-976250Y260260D01*
X-976093Y260529D01*
X-975930Y260794D01*
X-975760Y261056D01*
X-975583Y261313D01*
X-975401Y261565D01*
X-975212Y261813D01*
X-975017Y262057D01*
X-974817Y262295D01*
X-974610Y262529D01*
X-974398Y262757D01*
X-974180Y262980D01*
X-973957Y263198D01*
X-973729Y263410D01*
X-973495Y263617D01*
X-973257Y263817D01*
X-973013Y264012D01*
X-972765Y264201D01*
X-972513Y264383D01*
X-972256Y264560D01*
X-971994Y264730D01*
X-971729Y264893D01*
X-971460Y265050D01*
X-971187Y265200D01*
X-970910Y265344D01*
X-970630Y265481D01*
X-970347Y265610D01*
X-970060Y265733D01*
X-969771Y265849D01*
X-969479Y265958D01*
X-969184Y266059D01*
X-968887Y266153D01*
X-968587Y266240D01*
X-968286Y266319D01*
X-967983Y266391D01*
X-967678Y266456D01*
X-967371Y266513D01*
X-967063Y266563D01*
X-966755Y266604D01*
X-966445Y266639D01*
X-966134Y266666D01*
X-965823Y266685D01*
X-965512Y266696D01*
X-965200Y266700D01*
X-964888Y266696D01*
X-964577Y266685D01*
X-964266Y266666D01*
X-963955Y266639D01*
X-963645Y266604D01*
X-963337Y266563D01*
X-963029Y266513D01*
X-962722Y266456D01*
X-962417Y266391D01*
X-962114Y266319D01*
X-961813Y266240D01*
X-961513Y266153D01*
X-961216Y266059D01*
X-960921Y265958D01*
X-960629Y265849D01*
X-960340Y265733D01*
X-960053Y265610D01*
X-959770Y265481D01*
X-959490Y265344D01*
X-959213Y265200D01*
X-958940Y265050D01*
X-958671Y264893D01*
X-958406Y264730D01*
X-958144Y264560D01*
X-957887Y264383D01*
X-957635Y264201D01*
X-957387Y264012D01*
X-957143Y263817D01*
X-956905Y263617D01*
X-956671Y263410D01*
X-956443Y263198D01*
X-956220Y262980D01*
X-956002Y262757D01*
X-955790Y262529D01*
X-955583Y262295D01*
X-955383Y262057D01*
X-955188Y261813D01*
X-954999Y261565D01*
X-954817Y261313D01*
X-954640Y261056D01*
X-954470Y260794D01*
X-954307Y260529D01*
X-954150Y260260D01*
X-954000Y259987D01*
X-953856Y259710D01*
X-953719Y259430D01*
X-953590Y259147D01*
X-953467Y258860D01*
X-953351Y258571D01*
X-953242Y258279D01*
X-953141Y257984D01*
X-953047Y257687D01*
X-952960Y257387D01*
X-952881Y257086D01*
X-952809Y256783D01*
X-952744Y256478D01*
X-952687Y256171D01*
X-952637Y255863D01*
X-952596Y255555D01*
X-952561Y255245D01*
X-952534Y254934D01*
X-952515Y254623D01*
X-952504Y254312D01*
X-952500Y254000D01*
X-952504Y253688D01*
X-952515Y253377D01*
X-952534Y253066D01*
X-952561Y252755D01*
X-952596Y252445D01*
X-952637Y252137D01*
X-952687Y251829D01*
X-952744Y251522D01*
X-952809Y251217D01*
X-952881Y250914D01*
X-952960Y250613D01*
X-953047Y250313D01*
X-953141Y250016D01*
X-953242Y249721D01*
X-953351Y249429D01*
X-953467Y249140D01*
X-953590Y248853D01*
X-953719Y248570D01*
X-953856Y248290D01*
X-954000Y248013D01*
X-954150Y247740D01*
X-954307Y247471D01*
X-954470Y247206D01*
X-954640Y246944D01*
X-954817Y246687D01*
X-954999Y246435D01*
X-955188Y246187D01*
X-955383Y245943D01*
X-955583Y245705D01*
X-955790Y245471D01*
X-956002Y245243D01*
X-956220Y245020D01*
X-956443Y244802D01*
X-956671Y244590D01*
X-956905Y244383D01*
X-957143Y244183D01*
X-957387Y243988D01*
X-957635Y243799D01*
X-957887Y243617D01*
X-958144Y243440D01*
X-958406Y243270D01*
X-958671Y243107D01*
X-958940Y242950D01*
X-959213Y242800D01*
X-959490Y242656D01*
X-959770Y242519D01*
X-960053Y242390D01*
X-960340Y242267D01*
X-960629Y242151D01*
X-960921Y242042D01*
X-961216Y241941D01*
X-961513Y241847D01*
X-961813Y241760D01*
X-962114Y241681D01*
X-962417Y241609D01*
X-962722Y241544D01*
X-963029Y241487D01*
X-963337Y241437D01*
X-963645Y241396D01*
X-963955Y241361D01*
X-964266Y241334D01*
X-964577Y241315D01*
X-964888Y241304D01*
X-965200Y241300D01*
X-965512Y241304D01*
X-965823Y241315D01*
X-966134Y241334D01*
X-966445Y241361D01*
X-966755Y241396D01*
X-967063Y241437D01*
X-967371Y241487D01*
X-967678Y241544D01*
X-967983Y241609D01*
X-968286Y241681D01*
X-968587Y241760D01*
X-968887Y241847D01*
X-969184Y241941D01*
X-969479Y242042D01*
X-969771Y242151D01*
X-970060Y242267D01*
X-970347Y242390D01*
X-970630Y242519D01*
X-970910Y242656D01*
X-971187Y242800D01*
X-971460Y242950D01*
X-971729Y243107D01*
X-971994Y243270D01*
X-972256Y243440D01*
X-972513Y243617D01*
X-972765Y243799D01*
X-973013Y243988D01*
X-973257Y244183D01*
X-973495Y244383D01*
X-973729Y244590D01*
X-973957Y244802D01*
X-974180Y245020D01*
X-974398Y245243D01*
X-974610Y245471D01*
X-974817Y245705D01*
X-975017Y245943D01*
X-975212Y246187D01*
X-975401Y246435D01*
X-975583Y246687D01*
X-975760Y246944D01*
X-975930Y247206D01*
X-976093Y247471D01*
X-976250Y247740D01*
X-976400Y248013D01*
X-976544Y248290D01*
X-976681Y248570D01*
X-976810Y248853D01*
X-976933Y249140D01*
X-977049Y249429D01*
X-977158Y249721D01*
X-977259Y250016D01*
X-977353Y250313D01*
X-977440Y250613D01*
X-977519Y250914D01*
X-977591Y251217D01*
X-977656Y251522D01*
X-977713Y251829D01*
X-977763Y252137D01*
X-977804Y252445D01*
X-977839Y252755D01*
X-977866Y253066D01*
X-977885Y253377D01*
X-977896Y253688D01*
X-977900Y254000D01*
X-647700Y254000D02*
X-647696Y254312D01*
X-647685Y254623D01*
X-647666Y254934D01*
X-647639Y255245D01*
X-647604Y255555D01*
X-647563Y255863D01*
X-647513Y256171D01*
X-647456Y256478D01*
X-647391Y256783D01*
X-647319Y257086D01*
X-647240Y257387D01*
X-647153Y257687D01*
X-647059Y257984D01*
X-646958Y258279D01*
X-646849Y258571D01*
X-646733Y258860D01*
X-646610Y259147D01*
X-646481Y259430D01*
X-646344Y259710D01*
X-646200Y259987D01*
X-646050Y260260D01*
X-645893Y260529D01*
X-645730Y260794D01*
X-645560Y261056D01*
X-645383Y261313D01*
X-645201Y261565D01*
X-645012Y261813D01*
X-644817Y262057D01*
X-644617Y262295D01*
X-644410Y262529D01*
X-644198Y262757D01*
X-643980Y262980D01*
X-643757Y263198D01*
X-643529Y263410D01*
X-643295Y263617D01*
X-643057Y263817D01*
X-642813Y264012D01*
X-642565Y264201D01*
X-642313Y264383D01*
X-642056Y264560D01*
X-641794Y264730D01*
X-641529Y264893D01*
X-641260Y265050D01*
X-640987Y265200D01*
X-640710Y265344D01*
X-640430Y265481D01*
X-640147Y265610D01*
X-639860Y265733D01*
X-639571Y265849D01*
X-639279Y265958D01*
X-638984Y266059D01*
X-638687Y266153D01*
X-638387Y266240D01*
X-638086Y266319D01*
X-637783Y266391D01*
X-637478Y266456D01*
X-637171Y266513D01*
X-636863Y266563D01*
X-636555Y266604D01*
X-636245Y266639D01*
X-635934Y266666D01*
X-635623Y266685D01*
X-635312Y266696D01*
X-635000Y266700D01*
X-634688Y266696D01*
X-634377Y266685D01*
X-634066Y266666D01*
X-633755Y266639D01*
X-633445Y266604D01*
X-633137Y266563D01*
X-632829Y266513D01*
X-632522Y266456D01*
X-632217Y266391D01*
X-631914Y266319D01*
X-631613Y266240D01*
X-631313Y266153D01*
X-631016Y266059D01*
X-630721Y265958D01*
X-630429Y265849D01*
X-630140Y265733D01*
X-629853Y265610D01*
X-629570Y265481D01*
X-629290Y265344D01*
X-629013Y265200D01*
X-628740Y265050D01*
X-628471Y264893D01*
X-628206Y264730D01*
X-627944Y264560D01*
X-627687Y264383D01*
X-627435Y264201D01*
X-627187Y264012D01*
X-626943Y263817D01*
X-626705Y263617D01*
X-626471Y263410D01*
X-626243Y263198D01*
X-626020Y262980D01*
X-625802Y262757D01*
X-625590Y262529D01*
X-625383Y262295D01*
X-625183Y262057D01*
X-624988Y261813D01*
X-624799Y261565D01*
X-624617Y261313D01*
X-624440Y261056D01*
X-624270Y260794D01*
X-624107Y260529D01*
X-623950Y260260D01*
X-623800Y259987D01*
X-623656Y259710D01*
X-623519Y259430D01*
X-623390Y259147D01*
X-623267Y258860D01*
X-623151Y258571D01*
X-623042Y258279D01*
X-622941Y257984D01*
X-622847Y257687D01*
X-622760Y257387D01*
X-622681Y257086D01*
X-622609Y256783D01*
X-622544Y256478D01*
X-622487Y256171D01*
X-622437Y255863D01*
X-622396Y255555D01*
X-622361Y255245D01*
X-622334Y254934D01*
X-622315Y254623D01*
X-622304Y254312D01*
X-622300Y254000D01*
X-622304Y253688D01*
X-622315Y253377D01*
X-622334Y253066D01*
X-622361Y252755D01*
X-622396Y252445D01*
X-622437Y252137D01*
X-622487Y251829D01*
X-622544Y251522D01*
X-622609Y251217D01*
X-622681Y250914D01*
X-622760Y250613D01*
X-622847Y250313D01*
X-622941Y250016D01*
X-623042Y249721D01*
X-623151Y249429D01*
X-623267Y249140D01*
X-623390Y248853D01*
X-623519Y248570D01*
X-623656Y248290D01*
X-623800Y248013D01*
X-623950Y247740D01*
X-624107Y247471D01*
X-624270Y247206D01*
X-624440Y246944D01*
X-624617Y246687D01*
X-624799Y246435D01*
X-624988Y246187D01*
X-625183Y245943D01*
X-625383Y245705D01*
X-625590Y245471D01*
X-625802Y245243D01*
X-626020Y245020D01*
X-626243Y244802D01*
X-626471Y244590D01*
X-626705Y244383D01*
X-626943Y244183D01*
X-627187Y243988D01*
X-627435Y243799D01*
X-627687Y243617D01*
X-627944Y243440D01*
X-628206Y243270D01*
X-628471Y243107D01*
X-628740Y242950D01*
X-629013Y242800D01*
X-629290Y242656D01*
X-629570Y242519D01*
X-629853Y242390D01*
X-630140Y242267D01*
X-630429Y242151D01*
X-630721Y242042D01*
X-631016Y241941D01*
X-631313Y241847D01*
X-631613Y241760D01*
X-631914Y241681D01*
X-632217Y241609D01*
X-632522Y241544D01*
X-632829Y241487D01*
X-633137Y241437D01*
X-633445Y241396D01*
X-633755Y241361D01*
X-634066Y241334D01*
X-634377Y241315D01*
X-634688Y241304D01*
X-635000Y241300D01*
X-635312Y241304D01*
X-635623Y241315D01*
X-635934Y241334D01*
X-636245Y241361D01*
X-636555Y241396D01*
X-636863Y241437D01*
X-637171Y241487D01*
X-637478Y241544D01*
X-637783Y241609D01*
X-638086Y241681D01*
X-638387Y241760D01*
X-638687Y241847D01*
X-638984Y241941D01*
X-639279Y242042D01*
X-639571Y242151D01*
X-639860Y242267D01*
X-640147Y242390D01*
X-640430Y242519D01*
X-640710Y242656D01*
X-640987Y242800D01*
X-641260Y242950D01*
X-641529Y243107D01*
X-641794Y243270D01*
X-642056Y243440D01*
X-642313Y243617D01*
X-642565Y243799D01*
X-642813Y243988D01*
X-643057Y244183D01*
X-643295Y244383D01*
X-643529Y244590D01*
X-643757Y244802D01*
X-643980Y245020D01*
X-644198Y245243D01*
X-644410Y245471D01*
X-644617Y245705D01*
X-644817Y245943D01*
X-645012Y246187D01*
X-645201Y246435D01*
X-645383Y246687D01*
X-645560Y246944D01*
X-645730Y247206D01*
X-645893Y247471D01*
X-646050Y247740D01*
X-646200Y248013D01*
X-646344Y248290D01*
X-646481Y248570D01*
X-646610Y248853D01*
X-646733Y249140D01*
X-646849Y249429D01*
X-646958Y249721D01*
X-647059Y250016D01*
X-647153Y250313D01*
X-647240Y250613D01*
X-647319Y250914D01*
X-647391Y251217D01*
X-647456Y251522D01*
X-647513Y251829D01*
X-647563Y252137D01*
X-647604Y252445D01*
X-647639Y252755D01*
X-647666Y253066D01*
X-647685Y253377D01*
X-647696Y253688D01*
X-647700Y254000D01*
X-977900Y-127000D02*
X-977896Y-126688D01*
X-977885Y-126377D01*
X-977866Y-126066D01*
X-977839Y-125755D01*
X-977804Y-125445D01*
X-977763Y-125137D01*
X-977713Y-124829D01*
X-977656Y-124522D01*
X-977591Y-124217D01*
X-977519Y-123914D01*
X-977440Y-123613D01*
X-977353Y-123313D01*
X-977259Y-123016D01*
X-977158Y-122721D01*
X-977049Y-122429D01*
X-976933Y-122140D01*
X-976810Y-121853D01*
X-976681Y-121570D01*
X-976544Y-121290D01*
X-976400Y-121013D01*
X-976250Y-120740D01*
X-976093Y-120471D01*
X-975930Y-120206D01*
X-975760Y-119944D01*
X-975583Y-119687D01*
X-975401Y-119435D01*
X-975212Y-119187D01*
X-975017Y-118943D01*
X-974817Y-118705D01*
X-974610Y-118471D01*
X-974398Y-118243D01*
X-974180Y-118020D01*
X-973957Y-117802D01*
X-973729Y-117590D01*
X-973495Y-117383D01*
X-973257Y-117183D01*
X-973013Y-116988D01*
X-972765Y-116799D01*
X-972513Y-116617D01*
X-972256Y-116440D01*
X-971994Y-116270D01*
X-971729Y-116107D01*
X-971460Y-115950D01*
X-971187Y-115800D01*
X-970910Y-115656D01*
X-970630Y-115519D01*
X-970347Y-115390D01*
X-970060Y-115267D01*
X-969771Y-115151D01*
X-969479Y-115042D01*
X-969184Y-114941D01*
X-968887Y-114847D01*
X-968587Y-114760D01*
X-968286Y-114681D01*
X-967983Y-114609D01*
X-967678Y-114544D01*
X-967371Y-114487D01*
X-967063Y-114437D01*
X-966755Y-114396D01*
X-966445Y-114361D01*
X-966134Y-114334D01*
X-965823Y-114315D01*
X-965512Y-114304D01*
X-965200Y-114300D01*
X-964888Y-114304D01*
X-964577Y-114315D01*
X-964266Y-114334D01*
X-963955Y-114361D01*
X-963645Y-114396D01*
X-963337Y-114437D01*
X-963029Y-114487D01*
X-962722Y-114544D01*
X-962417Y-114609D01*
X-962114Y-114681D01*
X-961813Y-114760D01*
X-961513Y-114847D01*
X-961216Y-114941D01*
X-960921Y-115042D01*
X-960629Y-115151D01*
X-960340Y-115267D01*
X-960053Y-115390D01*
X-959770Y-115519D01*
X-959490Y-115656D01*
X-959213Y-115800D01*
X-958940Y-115950D01*
X-958671Y-116107D01*
X-958406Y-116270D01*
X-958144Y-116440D01*
X-957887Y-116617D01*
X-957635Y-116799D01*
X-957387Y-116988D01*
X-957143Y-117183D01*
X-956905Y-117383D01*
X-956671Y-117590D01*
X-956443Y-117802D01*
X-956220Y-118020D01*
X-956002Y-118243D01*
X-955790Y-118471D01*
X-955583Y-118705D01*
X-955383Y-118943D01*
X-955188Y-119187D01*
X-954999Y-119435D01*
X-954817Y-119687D01*
X-954640Y-119944D01*
X-954470Y-120206D01*
X-954307Y-120471D01*
X-954150Y-120740D01*
X-954000Y-121013D01*
X-953856Y-121290D01*
X-953719Y-121570D01*
X-953590Y-121853D01*
X-953467Y-122140D01*
X-953351Y-122429D01*
X-953242Y-122721D01*
X-953141Y-123016D01*
X-953047Y-123313D01*
X-952960Y-123613D01*
X-952881Y-123914D01*
X-952809Y-124217D01*
X-952744Y-124522D01*
X-952687Y-124829D01*
X-952637Y-125137D01*
X-952596Y-125445D01*
X-952561Y-125755D01*
X-952534Y-126066D01*
X-952515Y-126377D01*
X-952504Y-126688D01*
X-952500Y-127000D01*
X-952504Y-127312D01*
X-952515Y-127623D01*
X-952534Y-127934D01*
X-952561Y-128245D01*
X-952596Y-128555D01*
X-952637Y-128863D01*
X-952687Y-129171D01*
X-952744Y-129478D01*
X-952809Y-129783D01*
X-952881Y-130086D01*
X-952960Y-130387D01*
X-953047Y-130687D01*
X-953141Y-130984D01*
X-953242Y-131279D01*
X-953351Y-131571D01*
X-953467Y-131860D01*
X-953590Y-132147D01*
X-953719Y-132430D01*
X-953856Y-132710D01*
X-954000Y-132987D01*
X-954150Y-133260D01*
X-954307Y-133529D01*
X-954470Y-133794D01*
X-954640Y-134056D01*
X-954817Y-134313D01*
X-954999Y-134565D01*
X-955188Y-134813D01*
X-955383Y-135057D01*
X-955583Y-135295D01*
X-955790Y-135529D01*
X-956002Y-135757D01*
X-956220Y-135980D01*
X-956443Y-136198D01*
X-956671Y-136410D01*
X-956905Y-136617D01*
X-957143Y-136817D01*
X-957387Y-137012D01*
X-957635Y-137201D01*
X-957887Y-137383D01*
X-958144Y-137560D01*
X-958406Y-137730D01*
X-958671Y-137893D01*
X-958940Y-138050D01*
X-959213Y-138200D01*
X-959490Y-138344D01*
X-959770Y-138481D01*
X-960053Y-138610D01*
X-960340Y-138733D01*
X-960629Y-138849D01*
X-960921Y-138958D01*
X-961216Y-139059D01*
X-961513Y-139153D01*
X-961813Y-139240D01*
X-962114Y-139319D01*
X-962417Y-139391D01*
X-962722Y-139456D01*
X-963029Y-139513D01*
X-963337Y-139563D01*
X-963645Y-139604D01*
X-963955Y-139639D01*
X-964266Y-139666D01*
X-964577Y-139685D01*
X-964888Y-139696D01*
X-965200Y-139700D01*
X-965512Y-139696D01*
X-965823Y-139685D01*
X-966134Y-139666D01*
X-966445Y-139639D01*
X-966755Y-139604D01*
X-967063Y-139563D01*
X-967371Y-139513D01*
X-967678Y-139456D01*
X-967983Y-139391D01*
X-968286Y-139319D01*
X-968587Y-139240D01*
X-968887Y-139153D01*
X-969184Y-139059D01*
X-969479Y-138958D01*
X-969771Y-138849D01*
X-970060Y-138733D01*
X-970347Y-138610D01*
X-970630Y-138481D01*
X-970910Y-138344D01*
X-971187Y-138200D01*
X-971460Y-138050D01*
X-971729Y-137893D01*
X-971994Y-137730D01*
X-972256Y-137560D01*
X-972513Y-137383D01*
X-972765Y-137201D01*
X-973013Y-137012D01*
X-973257Y-136817D01*
X-973495Y-136617D01*
X-973729Y-136410D01*
X-973957Y-136198D01*
X-974180Y-135980D01*
X-974398Y-135757D01*
X-974610Y-135529D01*
X-974817Y-135295D01*
X-975017Y-135057D01*
X-975212Y-134813D01*
X-975401Y-134565D01*
X-975583Y-134313D01*
X-975760Y-134056D01*
X-975930Y-133794D01*
X-976093Y-133529D01*
X-976250Y-133260D01*
X-976400Y-132987D01*
X-976544Y-132710D01*
X-976681Y-132430D01*
X-976810Y-132147D01*
X-976933Y-131860D01*
X-977049Y-131571D01*
X-977158Y-131279D01*
X-977259Y-130984D01*
X-977353Y-130687D01*
X-977440Y-130387D01*
X-977519Y-130086D01*
X-977591Y-129783D01*
X-977656Y-129478D01*
X-977713Y-129171D01*
X-977763Y-128863D01*
X-977804Y-128555D01*
X-977839Y-128245D01*
X-977866Y-127934D01*
X-977885Y-127623D01*
X-977896Y-127312D01*
X-977900Y-127000D01*
X-647700Y-127000D02*
X-647696Y-126688D01*
X-647685Y-126377D01*
X-647666Y-126066D01*
X-647639Y-125755D01*
X-647604Y-125445D01*
X-647563Y-125137D01*
X-647513Y-124829D01*
X-647456Y-124522D01*
X-647391Y-124217D01*
X-647319Y-123914D01*
X-647240Y-123613D01*
X-647153Y-123313D01*
X-647059Y-123016D01*
X-646958Y-122721D01*
X-646849Y-122429D01*
X-646733Y-122140D01*
X-646610Y-121853D01*
X-646481Y-121570D01*
X-646344Y-121290D01*
X-646200Y-121013D01*
X-646050Y-120740D01*
X-645893Y-120471D01*
X-645730Y-120206D01*
X-645560Y-119944D01*
X-645383Y-119687D01*
X-645201Y-119435D01*
X-645012Y-119187D01*
X-644817Y-118943D01*
X-644617Y-118705D01*
X-644410Y-118471D01*
X-644198Y-118243D01*
X-643980Y-118020D01*
X-643757Y-117802D01*
X-643529Y-117590D01*
X-643295Y-117383D01*
X-643057Y-117183D01*
X-642813Y-116988D01*
X-642565Y-116799D01*
X-642313Y-116617D01*
X-642056Y-116440D01*
X-641794Y-116270D01*
X-641529Y-116107D01*
X-641260Y-115950D01*
X-640987Y-115800D01*
X-640710Y-115656D01*
X-640430Y-115519D01*
X-640147Y-115390D01*
X-639860Y-115267D01*
X-639571Y-115151D01*
X-639279Y-115042D01*
X-638984Y-114941D01*
X-638687Y-114847D01*
X-638387Y-114760D01*
X-638086Y-114681D01*
X-637783Y-114609D01*
X-637478Y-114544D01*
X-637171Y-114487D01*
X-636863Y-114437D01*
X-636555Y-114396D01*
X-636245Y-114361D01*
X-635934Y-114334D01*
X-635623Y-114315D01*
X-635312Y-114304D01*
X-635000Y-114300D01*
X-634688Y-114304D01*
X-634377Y-114315D01*
X-634066Y-114334D01*
X-633755Y-114361D01*
X-633445Y-114396D01*
X-633137Y-114437D01*
X-632829Y-114487D01*
X-632522Y-114544D01*
X-632217Y-114609D01*
X-631914Y-114681D01*
X-631613Y-114760D01*
X-631313Y-114847D01*
X-631016Y-114941D01*
X-630721Y-115042D01*
X-630429Y-115151D01*
X-630140Y-115267D01*
X-629853Y-115390D01*
X-629570Y-115519D01*
X-629290Y-115656D01*
X-629013Y-115800D01*
X-628740Y-115950D01*
X-628471Y-116107D01*
X-628206Y-116270D01*
X-627944Y-116440D01*
X-627687Y-116617D01*
X-627435Y-116799D01*
X-627187Y-116988D01*
X-626943Y-117183D01*
X-626705Y-117383D01*
X-626471Y-117590D01*
X-626243Y-117802D01*
X-626020Y-118020D01*
X-625802Y-118243D01*
X-625590Y-118471D01*
X-625383Y-118705D01*
X-625183Y-118943D01*
X-624988Y-119187D01*
X-624799Y-119435D01*
X-624617Y-119687D01*
X-624440Y-119944D01*
X-624270Y-120206D01*
X-624107Y-120471D01*
X-623950Y-120740D01*
X-623800Y-121013D01*
X-623656Y-121290D01*
X-623519Y-121570D01*
X-623390Y-121853D01*
X-623267Y-122140D01*
X-623151Y-122429D01*
X-623042Y-122721D01*
X-622941Y-123016D01*
X-622847Y-123313D01*
X-622760Y-123613D01*
X-622681Y-123914D01*
X-622609Y-124217D01*
X-622544Y-124522D01*
X-622487Y-124829D01*
X-622437Y-125137D01*
X-622396Y-125445D01*
X-622361Y-125755D01*
X-622334Y-126066D01*
X-622315Y-126377D01*
X-622304Y-126688D01*
X-622300Y-127000D01*
X-622304Y-127312D01*
X-622315Y-127623D01*
X-622334Y-127934D01*
X-622361Y-128245D01*
X-622396Y-128555D01*
X-622437Y-128863D01*
X-622487Y-129171D01*
X-622544Y-129478D01*
X-622609Y-129783D01*
X-622681Y-130086D01*
X-622760Y-130387D01*
X-622847Y-130687D01*
X-622941Y-130984D01*
X-623042Y-131279D01*
X-623151Y-131571D01*
X-623267Y-131860D01*
X-623390Y-132147D01*
X-623519Y-132430D01*
X-623656Y-132710D01*
X-623800Y-132987D01*
X-623950Y-133260D01*
X-624107Y-133529D01*
X-624270Y-133794D01*
X-624440Y-134056D01*
X-624617Y-134313D01*
X-624799Y-134565D01*
X-624988Y-134813D01*
X-625183Y-135057D01*
X-625383Y-135295D01*
X-625590Y-135529D01*
X-625802Y-135757D01*
X-626020Y-135980D01*
X-626243Y-136198D01*
X-626471Y-136410D01*
X-626705Y-136617D01*
X-626943Y-136817D01*
X-627187Y-137012D01*
X-627435Y-137201D01*
X-627687Y-137383D01*
X-627944Y-137560D01*
X-628206Y-137730D01*
X-628471Y-137893D01*
X-628740Y-138050D01*
X-629013Y-138200D01*
X-629290Y-138344D01*
X-629570Y-138481D01*
X-629853Y-138610D01*
X-630140Y-138733D01*
X-630429Y-138849D01*
X-630721Y-138958D01*
X-631016Y-139059D01*
X-631313Y-139153D01*
X-631613Y-139240D01*
X-631914Y-139319D01*
X-632217Y-139391D01*
X-632522Y-139456D01*
X-632829Y-139513D01*
X-633137Y-139563D01*
X-633445Y-139604D01*
X-633755Y-139639D01*
X-634066Y-139666D01*
X-634377Y-139685D01*
X-634688Y-139696D01*
X-635000Y-139700D01*
X-635312Y-139696D01*
X-635623Y-139685D01*
X-635934Y-139666D01*
X-636245Y-139639D01*
X-636555Y-139604D01*
X-636863Y-139563D01*
X-637171Y-139513D01*
X-637478Y-139456D01*
X-637783Y-139391D01*
X-638086Y-139319D01*
X-638387Y-139240D01*
X-638687Y-139153D01*
X-638984Y-139059D01*
X-639279Y-138958D01*
X-639571Y-138849D01*
X-639860Y-138733D01*
X-640147Y-138610D01*
X-640430Y-138481D01*
X-640710Y-138344D01*
X-640987Y-138200D01*
X-641260Y-138050D01*
X-641529Y-137893D01*
X-641794Y-137730D01*
X-642056Y-137560D01*
X-642313Y-137383D01*
X-642565Y-137201D01*
X-642813Y-137012D01*
X-643057Y-136817D01*
X-643295Y-136617D01*
X-643529Y-136410D01*
X-643757Y-136198D01*
X-643980Y-135980D01*
X-644198Y-135757D01*
X-644410Y-135529D01*
X-644617Y-135295D01*
X-644817Y-135057D01*
X-645012Y-134813D01*
X-645201Y-134565D01*
X-645383Y-134313D01*
X-645560Y-134056D01*
X-645730Y-133794D01*
X-645893Y-133529D01*
X-646050Y-133260D01*
X-646200Y-132987D01*
X-646344Y-132710D01*
X-646481Y-132430D01*
X-646610Y-132147D01*
X-646733Y-131860D01*
X-646849Y-131571D01*
X-646958Y-131279D01*
X-647059Y-130984D01*
X-647153Y-130687D01*
X-647240Y-130387D01*
X-647319Y-130086D01*
X-647391Y-129783D01*
X-647456Y-129478D01*
X-647513Y-129171D01*
X-647563Y-128863D01*
X-647604Y-128555D01*
X-647639Y-128245D01*
X-647666Y-127934D01*
X-647685Y-127623D01*
X-647696Y-127312D01*
X-647700Y-127000D01*
X-1014730Y317500D02*
X-1014726Y317812D01*
X-1014715Y318123D01*
X-1014696Y318434D01*
X-1014669Y318745D01*
X-1014634Y319055D01*
X-1014593Y319363D01*
X-1014543Y319671D01*
X-1014486Y319978D01*
X-1014421Y320283D01*
X-1014349Y320586D01*
X-1014270Y320887D01*
X-1014183Y321187D01*
X-1014089Y321484D01*
X-1013988Y321779D01*
X-1013879Y322071D01*
X-1013763Y322360D01*
X-1013640Y322647D01*
X-1013511Y322930D01*
X-1013374Y323210D01*
X-1013230Y323487D01*
X-1013080Y323760D01*
X-1012923Y324029D01*
X-1012760Y324294D01*
X-1012590Y324556D01*
X-1012413Y324813D01*
X-1012231Y325065D01*
X-1012042Y325313D01*
X-1011847Y325557D01*
X-1011647Y325795D01*
X-1011440Y326029D01*
X-1011228Y326257D01*
X-1011010Y326480D01*
X-1010787Y326698D01*
X-1010559Y326910D01*
X-1010325Y327117D01*
X-1010087Y327317D01*
X-1009843Y327512D01*
X-1009595Y327701D01*
X-1009343Y327883D01*
X-1009086Y328060D01*
X-1008824Y328230D01*
X-1008559Y328393D01*
X-1008290Y328550D01*
X-1008017Y328700D01*
X-1007740Y328844D01*
X-1007460Y328981D01*
X-1007177Y329110D01*
X-1006890Y329233D01*
X-1006601Y329349D01*
X-1006309Y329458D01*
X-1006014Y329559D01*
X-1005717Y329653D01*
X-1005417Y329740D01*
X-1005116Y329819D01*
X-1004813Y329891D01*
X-1004508Y329956D01*
X-1004201Y330013D01*
X-1003893Y330063D01*
X-1003585Y330104D01*
X-1003275Y330139D01*
X-1002964Y330166D01*
X-1002653Y330185D01*
X-1002342Y330196D01*
X-1002030Y330200D01*
X-1001718Y330196D01*
X-1001407Y330185D01*
X-1001096Y330166D01*
X-1000785Y330139D01*
X-1000475Y330104D01*
X-1000167Y330063D01*
X-999859Y330013D01*
X-999552Y329956D01*
X-999247Y329891D01*
X-998944Y329819D01*
X-998643Y329740D01*
X-998343Y329653D01*
X-998046Y329559D01*
X-997751Y329458D01*
X-997459Y329349D01*
X-997170Y329233D01*
X-996883Y329110D01*
X-996600Y328981D01*
X-996320Y328844D01*
X-996043Y328700D01*
X-995770Y328550D01*
X-995501Y328393D01*
X-995236Y328230D01*
X-994974Y328060D01*
X-994717Y327883D01*
X-994465Y327701D01*
X-994217Y327512D01*
X-993973Y327317D01*
X-993735Y327117D01*
X-993501Y326910D01*
X-993273Y326698D01*
X-993050Y326480D01*
X-992832Y326257D01*
X-992620Y326029D01*
X-992413Y325795D01*
X-992213Y325557D01*
X-992018Y325313D01*
X-991829Y325065D01*
X-991647Y324813D01*
X-991470Y324556D01*
X-991300Y324294D01*
X-991137Y324029D01*
X-990980Y323760D01*
X-990830Y323487D01*
X-990686Y323210D01*
X-990549Y322930D01*
X-990420Y322647D01*
X-990297Y322360D01*
X-990181Y322071D01*
X-990072Y321779D01*
X-989971Y321484D01*
X-989877Y321187D01*
X-989790Y320887D01*
X-989711Y320586D01*
X-989639Y320283D01*
X-989574Y319978D01*
X-989517Y319671D01*
X-989467Y319363D01*
X-989426Y319055D01*
X-989391Y318745D01*
X-989364Y318434D01*
X-989345Y318123D01*
X-989334Y317812D01*
X-989330Y317500D01*
X-989334Y317188D01*
X-989345Y316877D01*
X-989364Y316566D01*
X-989391Y316255D01*
X-989426Y315945D01*
X-989467Y315637D01*
X-989517Y315329D01*
X-989574Y315022D01*
X-989639Y314717D01*
X-989711Y314414D01*
X-989790Y314113D01*
X-989877Y313813D01*
X-989971Y313516D01*
X-990072Y313221D01*
X-990181Y312929D01*
X-990297Y312640D01*
X-990420Y312353D01*
X-990549Y312070D01*
X-990686Y311790D01*
X-990830Y311513D01*
X-990980Y311240D01*
X-991137Y310971D01*
X-991300Y310706D01*
X-991470Y310444D01*
X-991647Y310187D01*
X-991829Y309935D01*
X-992018Y309687D01*
X-992213Y309443D01*
X-992413Y309205D01*
X-992620Y308971D01*
X-992832Y308743D01*
X-993050Y308520D01*
X-993273Y308302D01*
X-993501Y308090D01*
X-993735Y307883D01*
X-993973Y307683D01*
X-994217Y307488D01*
X-994465Y307299D01*
X-994717Y307117D01*
X-994974Y306940D01*
X-995236Y306770D01*
X-995501Y306607D01*
X-995770Y306450D01*
X-996043Y306300D01*
X-996320Y306156D01*
X-996600Y306019D01*
X-996883Y305890D01*
X-997170Y305767D01*
X-997459Y305651D01*
X-997751Y305542D01*
X-998046Y305441D01*
X-998343Y305347D01*
X-998643Y305260D01*
X-998944Y305181D01*
X-999247Y305109D01*
X-999552Y305044D01*
X-999859Y304987D01*
X-1000167Y304937D01*
X-1000475Y304896D01*
X-1000785Y304861D01*
X-1001096Y304834D01*
X-1001407Y304815D01*
X-1001718Y304804D01*
X-1002030Y304800D01*
X-1002342Y304804D01*
X-1002653Y304815D01*
X-1002964Y304834D01*
X-1003275Y304861D01*
X-1003585Y304896D01*
X-1003893Y304937D01*
X-1004201Y304987D01*
X-1004508Y305044D01*
X-1004813Y305109D01*
X-1005116Y305181D01*
X-1005417Y305260D01*
X-1005717Y305347D01*
X-1006014Y305441D01*
X-1006309Y305542D01*
X-1006601Y305651D01*
X-1006890Y305767D01*
X-1007177Y305890D01*
X-1007460Y306019D01*
X-1007740Y306156D01*
X-1008017Y306300D01*
X-1008290Y306450D01*
X-1008559Y306607D01*
X-1008824Y306770D01*
X-1009086Y306940D01*
X-1009343Y307117D01*
X-1009595Y307299D01*
X-1009843Y307488D01*
X-1010087Y307683D01*
X-1010325Y307883D01*
X-1010559Y308090D01*
X-1010787Y308302D01*
X-1011010Y308520D01*
X-1011228Y308743D01*
X-1011440Y308971D01*
X-1011647Y309205D01*
X-1011847Y309443D01*
X-1012042Y309687D01*
X-1012231Y309935D01*
X-1012413Y310187D01*
X-1012590Y310444D01*
X-1012760Y310706D01*
X-1012923Y310971D01*
X-1013080Y311240D01*
X-1013230Y311513D01*
X-1013374Y311790D01*
X-1013511Y312070D01*
X-1013640Y312353D01*
X-1013763Y312640D01*
X-1013879Y312929D01*
X-1013988Y313221D01*
X-1014089Y313516D01*
X-1014183Y313813D01*
X-1014270Y314113D01*
X-1014349Y314414D01*
X-1014421Y314717D01*
X-1014486Y315022D01*
X-1014543Y315329D01*
X-1014593Y315637D01*
X-1014634Y315945D01*
X-1014669Y316255D01*
X-1014696Y316566D01*
X-1014715Y316877D01*
X-1014726Y317188D01*
X-1014730Y317500D01*
X-593090Y317500D02*
X-593086Y317812D01*
X-593075Y318123D01*
X-593056Y318434D01*
X-593029Y318745D01*
X-592994Y319055D01*
X-592953Y319363D01*
X-592903Y319671D01*
X-592846Y319978D01*
X-592781Y320283D01*
X-592709Y320586D01*
X-592630Y320887D01*
X-592543Y321187D01*
X-592449Y321484D01*
X-592348Y321779D01*
X-592239Y322071D01*
X-592123Y322360D01*
X-592000Y322647D01*
X-591871Y322930D01*
X-591734Y323210D01*
X-591590Y323487D01*
X-591440Y323760D01*
X-591283Y324029D01*
X-591120Y324294D01*
X-590950Y324556D01*
X-590773Y324813D01*
X-590591Y325065D01*
X-590402Y325313D01*
X-590207Y325557D01*
X-590007Y325795D01*
X-589800Y326029D01*
X-589588Y326257D01*
X-589370Y326480D01*
X-589147Y326698D01*
X-588919Y326910D01*
X-588685Y327117D01*
X-588447Y327317D01*
X-588203Y327512D01*
X-587955Y327701D01*
X-587703Y327883D01*
X-587446Y328060D01*
X-587184Y328230D01*
X-586919Y328393D01*
X-586650Y328550D01*
X-586377Y328700D01*
X-586100Y328844D01*
X-585820Y328981D01*
X-585537Y329110D01*
X-585250Y329233D01*
X-584961Y329349D01*
X-584669Y329458D01*
X-584374Y329559D01*
X-584077Y329653D01*
X-583777Y329740D01*
X-583476Y329819D01*
X-583173Y329891D01*
X-582868Y329956D01*
X-582561Y330013D01*
X-582253Y330063D01*
X-581945Y330104D01*
X-581635Y330139D01*
X-581324Y330166D01*
X-581013Y330185D01*
X-580702Y330196D01*
X-580390Y330200D01*
X-580078Y330196D01*
X-579767Y330185D01*
X-579456Y330166D01*
X-579145Y330139D01*
X-578835Y330104D01*
X-578527Y330063D01*
X-578219Y330013D01*
X-577912Y329956D01*
X-577607Y329891D01*
X-577304Y329819D01*
X-577003Y329740D01*
X-576703Y329653D01*
X-576406Y329559D01*
X-576111Y329458D01*
X-575819Y329349D01*
X-575530Y329233D01*
X-575243Y329110D01*
X-574960Y328981D01*
X-574680Y328844D01*
X-574403Y328700D01*
X-574130Y328550D01*
X-573861Y328393D01*
X-573596Y328230D01*
X-573334Y328060D01*
X-573077Y327883D01*
X-572825Y327701D01*
X-572577Y327512D01*
X-572333Y327317D01*
X-572095Y327117D01*
X-571861Y326910D01*
X-571633Y326698D01*
X-571410Y326480D01*
X-571192Y326257D01*
X-570980Y326029D01*
X-570773Y325795D01*
X-570573Y325557D01*
X-570378Y325313D01*
X-570189Y325065D01*
X-570007Y324813D01*
X-569830Y324556D01*
X-569660Y324294D01*
X-569497Y324029D01*
X-569340Y323760D01*
X-569190Y323487D01*
X-569046Y323210D01*
X-568909Y322930D01*
X-568780Y322647D01*
X-568657Y322360D01*
X-568541Y322071D01*
X-568432Y321779D01*
X-568331Y321484D01*
X-568237Y321187D01*
X-568150Y320887D01*
X-568071Y320586D01*
X-567999Y320283D01*
X-567934Y319978D01*
X-567877Y319671D01*
X-567827Y319363D01*
X-567786Y319055D01*
X-567751Y318745D01*
X-567724Y318434D01*
X-567705Y318123D01*
X-567694Y317812D01*
X-567690Y317500D01*
X-567694Y317188D01*
X-567705Y316877D01*
X-567724Y316566D01*
X-567751Y316255D01*
X-567786Y315945D01*
X-567827Y315637D01*
X-567877Y315329D01*
X-567934Y315022D01*
X-567999Y314717D01*
X-568071Y314414D01*
X-568150Y314113D01*
X-568237Y313813D01*
X-568331Y313516D01*
X-568432Y313221D01*
X-568541Y312929D01*
X-568657Y312640D01*
X-568780Y312353D01*
X-568909Y312070D01*
X-569046Y311790D01*
X-569190Y311513D01*
X-569340Y311240D01*
X-569497Y310971D01*
X-569660Y310706D01*
X-569830Y310444D01*
X-570007Y310187D01*
X-570189Y309935D01*
X-570378Y309687D01*
X-570573Y309443D01*
X-570773Y309205D01*
X-570980Y308971D01*
X-571192Y308743D01*
X-571410Y308520D01*
X-571633Y308302D01*
X-571861Y308090D01*
X-572095Y307883D01*
X-572333Y307683D01*
X-572577Y307488D01*
X-572825Y307299D01*
X-573077Y307117D01*
X-573334Y306940D01*
X-573596Y306770D01*
X-573861Y306607D01*
X-574130Y306450D01*
X-574403Y306300D01*
X-574680Y306156D01*
X-574960Y306019D01*
X-575243Y305890D01*
X-575530Y305767D01*
X-575819Y305651D01*
X-576111Y305542D01*
X-576406Y305441D01*
X-576703Y305347D01*
X-577003Y305260D01*
X-577304Y305181D01*
X-577607Y305109D01*
X-577912Y305044D01*
X-578219Y304987D01*
X-578527Y304937D01*
X-578835Y304896D01*
X-579145Y304861D01*
X-579456Y304834D01*
X-579767Y304815D01*
X-580078Y304804D01*
X-580390Y304800D01*
X-580702Y304804D01*
X-581013Y304815D01*
X-581324Y304834D01*
X-581635Y304861D01*
X-581945Y304896D01*
X-582253Y304937D01*
X-582561Y304987D01*
X-582868Y305044D01*
X-583173Y305109D01*
X-583476Y305181D01*
X-583777Y305260D01*
X-584077Y305347D01*
X-584374Y305441D01*
X-584669Y305542D01*
X-584961Y305651D01*
X-585250Y305767D01*
X-585537Y305890D01*
X-585820Y306019D01*
X-586100Y306156D01*
X-586377Y306300D01*
X-586650Y306450D01*
X-586919Y306607D01*
X-587184Y306770D01*
X-587446Y306940D01*
X-587703Y307117D01*
X-587955Y307299D01*
X-588203Y307488D01*
X-588447Y307683D01*
X-588685Y307883D01*
X-588919Y308090D01*
X-589147Y308302D01*
X-589370Y308520D01*
X-589588Y308743D01*
X-589800Y308971D01*
X-590007Y309205D01*
X-590207Y309443D01*
X-590402Y309687D01*
X-590591Y309935D01*
X-590773Y310187D01*
X-590950Y310444D01*
X-591120Y310706D01*
X-591283Y310971D01*
X-591440Y311240D01*
X-591590Y311513D01*
X-591734Y311790D01*
X-591871Y312070D01*
X-592000Y312353D01*
X-592123Y312640D01*
X-592239Y312929D01*
X-592348Y313221D01*
X-592449Y313516D01*
X-592543Y313813D01*
X-592630Y314113D01*
X-592709Y314414D01*
X-592781Y314717D01*
X-592846Y315022D01*
X-592903Y315329D01*
X-592953Y315637D01*
X-592994Y315945D01*
X-593029Y316255D01*
X-593056Y316566D01*
X-593075Y316877D01*
X-593086Y317188D01*
X-593090Y317500D01*
X-1014730Y-190500D02*
X-1014726Y-190188D01*
X-1014715Y-189877D01*
X-1014696Y-189566D01*
X-1014669Y-189255D01*
X-1014634Y-188945D01*
X-1014593Y-188637D01*
X-1014543Y-188329D01*
X-1014486Y-188022D01*
X-1014421Y-187717D01*
X-1014349Y-187414D01*
X-1014270Y-187113D01*
X-1014183Y-186813D01*
X-1014089Y-186516D01*
X-1013988Y-186221D01*
X-1013879Y-185929D01*
X-1013763Y-185640D01*
X-1013640Y-185353D01*
X-1013511Y-185070D01*
X-1013374Y-184790D01*
X-1013230Y-184513D01*
X-1013080Y-184240D01*
X-1012923Y-183971D01*
X-1012760Y-183706D01*
X-1012590Y-183444D01*
X-1012413Y-183187D01*
X-1012231Y-182935D01*
X-1012042Y-182687D01*
X-1011847Y-182443D01*
X-1011647Y-182205D01*
X-1011440Y-181971D01*
X-1011228Y-181743D01*
X-1011010Y-181520D01*
X-1010787Y-181302D01*
X-1010559Y-181090D01*
X-1010325Y-180883D01*
X-1010087Y-180683D01*
X-1009843Y-180488D01*
X-1009595Y-180299D01*
X-1009343Y-180117D01*
X-1009086Y-179940D01*
X-1008824Y-179770D01*
X-1008559Y-179607D01*
X-1008290Y-179450D01*
X-1008017Y-179300D01*
X-1007740Y-179156D01*
X-1007460Y-179019D01*
X-1007177Y-178890D01*
X-1006890Y-178767D01*
X-1006601Y-178651D01*
X-1006309Y-178542D01*
X-1006014Y-178441D01*
X-1005717Y-178347D01*
X-1005417Y-178260D01*
X-1005116Y-178181D01*
X-1004813Y-178109D01*
X-1004508Y-178044D01*
X-1004201Y-177987D01*
X-1003893Y-177937D01*
X-1003585Y-177896D01*
X-1003275Y-177861D01*
X-1002964Y-177834D01*
X-1002653Y-177815D01*
X-1002342Y-177804D01*
X-1002030Y-177800D01*
X-1001718Y-177804D01*
X-1001407Y-177815D01*
X-1001096Y-177834D01*
X-1000785Y-177861D01*
X-1000475Y-177896D01*
X-1000167Y-177937D01*
X-999859Y-177987D01*
X-999552Y-178044D01*
X-999247Y-178109D01*
X-998944Y-178181D01*
X-998643Y-178260D01*
X-998343Y-178347D01*
X-998046Y-178441D01*
X-997751Y-178542D01*
X-997459Y-178651D01*
X-997170Y-178767D01*
X-996883Y-178890D01*
X-996600Y-179019D01*
X-996320Y-179156D01*
X-996043Y-179300D01*
X-995770Y-179450D01*
X-995501Y-179607D01*
X-995236Y-179770D01*
X-994974Y-179940D01*
X-994717Y-180117D01*
X-994465Y-180299D01*
X-994217Y-180488D01*
X-993973Y-180683D01*
X-993735Y-180883D01*
X-993501Y-181090D01*
X-993273Y-181302D01*
X-993050Y-181520D01*
X-992832Y-181743D01*
X-992620Y-181971D01*
X-992413Y-182205D01*
X-992213Y-182443D01*
X-992018Y-182687D01*
X-991829Y-182935D01*
X-991647Y-183187D01*
X-991470Y-183444D01*
X-991300Y-183706D01*
X-991137Y-183971D01*
X-990980Y-184240D01*
X-990830Y-184513D01*
X-990686Y-184790D01*
X-990549Y-185070D01*
X-990420Y-185353D01*
X-990297Y-185640D01*
X-990181Y-185929D01*
X-990072Y-186221D01*
X-989971Y-186516D01*
X-989877Y-186813D01*
X-989790Y-187113D01*
X-989711Y-187414D01*
X-989639Y-187717D01*
X-989574Y-188022D01*
X-989517Y-188329D01*
X-989467Y-188637D01*
X-989426Y-188945D01*
X-989391Y-189255D01*
X-989364Y-189566D01*
X-989345Y-189877D01*
X-989334Y-190188D01*
X-989330Y-190500D01*
X-989334Y-190812D01*
X-989345Y-191123D01*
X-989364Y-191434D01*
X-989391Y-191745D01*
X-989426Y-192055D01*
X-989467Y-192363D01*
X-989517Y-192671D01*
X-989574Y-192978D01*
X-989639Y-193283D01*
X-989711Y-193586D01*
X-989790Y-193887D01*
X-989877Y-194187D01*
X-989971Y-194484D01*
X-990072Y-194779D01*
X-990181Y-195071D01*
X-990297Y-195360D01*
X-990420Y-195647D01*
X-990549Y-195930D01*
X-990686Y-196210D01*
X-990830Y-196487D01*
X-990980Y-196760D01*
X-991137Y-197029D01*
X-991300Y-197294D01*
X-991470Y-197556D01*
X-991647Y-197813D01*
X-991829Y-198065D01*
X-992018Y-198313D01*
X-992213Y-198557D01*
X-992413Y-198795D01*
X-992620Y-199029D01*
X-992832Y-199257D01*
X-993050Y-199480D01*
X-993273Y-199698D01*
X-993501Y-199910D01*
X-993735Y-200117D01*
X-993973Y-200317D01*
X-994217Y-200512D01*
X-994465Y-200701D01*
X-994717Y-200883D01*
X-994974Y-201060D01*
X-995236Y-201230D01*
X-995501Y-201393D01*
X-995770Y-201550D01*
X-996043Y-201700D01*
X-996320Y-201844D01*
X-996600Y-201981D01*
X-996883Y-202110D01*
X-997170Y-202233D01*
X-997459Y-202349D01*
X-997751Y-202458D01*
X-998046Y-202559D01*
X-998343Y-202653D01*
X-998643Y-202740D01*
X-998944Y-202819D01*
X-999247Y-202891D01*
X-999552Y-202956D01*
X-999859Y-203013D01*
X-1000167Y-203063D01*
X-1000475Y-203104D01*
X-1000785Y-203139D01*
X-1001096Y-203166D01*
X-1001407Y-203185D01*
X-1001718Y-203196D01*
X-1002030Y-203200D01*
X-1002342Y-203196D01*
X-1002653Y-203185D01*
X-1002964Y-203166D01*
X-1003275Y-203139D01*
X-1003585Y-203104D01*
X-1003893Y-203063D01*
X-1004201Y-203013D01*
X-1004508Y-202956D01*
X-1004813Y-202891D01*
X-1005116Y-202819D01*
X-1005417Y-202740D01*
X-1005717Y-202653D01*
X-1006014Y-202559D01*
X-1006309Y-202458D01*
X-1006601Y-202349D01*
X-1006890Y-202233D01*
X-1007177Y-202110D01*
X-1007460Y-201981D01*
X-1007740Y-201844D01*
X-1008017Y-201700D01*
X-1008290Y-201550D01*
X-1008559Y-201393D01*
X-1008824Y-201230D01*
X-1009086Y-201060D01*
X-1009343Y-200883D01*
X-1009595Y-200701D01*
X-1009843Y-200512D01*
X-1010087Y-200317D01*
X-1010325Y-200117D01*
X-1010559Y-199910D01*
X-1010787Y-199698D01*
X-1011010Y-199480D01*
X-1011228Y-199257D01*
X-1011440Y-199029D01*
X-1011647Y-198795D01*
X-1011847Y-198557D01*
X-1012042Y-198313D01*
X-1012231Y-198065D01*
X-1012413Y-197813D01*
X-1012590Y-197556D01*
X-1012760Y-197294D01*
X-1012923Y-197029D01*
X-1013080Y-196760D01*
X-1013230Y-196487D01*
X-1013374Y-196210D01*
X-1013511Y-195930D01*
X-1013640Y-195647D01*
X-1013763Y-195360D01*
X-1013879Y-195071D01*
X-1013988Y-194779D01*
X-1014089Y-194484D01*
X-1014183Y-194187D01*
X-1014270Y-193887D01*
X-1014349Y-193586D01*
X-1014421Y-193283D01*
X-1014486Y-192978D01*
X-1014543Y-192671D01*
X-1014593Y-192363D01*
X-1014634Y-192055D01*
X-1014669Y-191745D01*
X-1014696Y-191434D01*
X-1014715Y-191123D01*
X-1014726Y-190812D01*
X-1014730Y-190500D01*
X-593090Y-190500D02*
X-593086Y-190188D01*
X-593075Y-189877D01*
X-593056Y-189566D01*
X-593029Y-189255D01*
X-592994Y-188945D01*
X-592953Y-188637D01*
X-592903Y-188329D01*
X-592846Y-188022D01*
X-592781Y-187717D01*
X-592709Y-187414D01*
X-592630Y-187113D01*
X-592543Y-186813D01*
X-592449Y-186516D01*
X-592348Y-186221D01*
X-592239Y-185929D01*
X-592123Y-185640D01*
X-592000Y-185353D01*
X-591871Y-185070D01*
X-591734Y-184790D01*
X-591590Y-184513D01*
X-591440Y-184240D01*
X-591283Y-183971D01*
X-591120Y-183706D01*
X-590950Y-183444D01*
X-590773Y-183187D01*
X-590591Y-182935D01*
X-590402Y-182687D01*
X-590207Y-182443D01*
X-590007Y-182205D01*
X-589800Y-181971D01*
X-589588Y-181743D01*
X-589370Y-181520D01*
X-589147Y-181302D01*
X-588919Y-181090D01*
X-588685Y-180883D01*
X-588447Y-180683D01*
X-588203Y-180488D01*
X-587955Y-180299D01*
X-587703Y-180117D01*
X-587446Y-179940D01*
X-587184Y-179770D01*
X-586919Y-179607D01*
X-586650Y-179450D01*
X-586377Y-179300D01*
X-586100Y-179156D01*
X-585820Y-179019D01*
X-585537Y-178890D01*
X-585250Y-178767D01*
X-584961Y-178651D01*
X-584669Y-178542D01*
X-584374Y-178441D01*
X-584077Y-178347D01*
X-583777Y-178260D01*
X-583476Y-178181D01*
X-583173Y-178109D01*
X-582868Y-178044D01*
X-582561Y-177987D01*
X-582253Y-177937D01*
X-581945Y-177896D01*
X-581635Y-177861D01*
X-581324Y-177834D01*
X-581013Y-177815D01*
X-580702Y-177804D01*
X-580390Y-177800D01*
X-580078Y-177804D01*
X-579767Y-177815D01*
X-579456Y-177834D01*
X-579145Y-177861D01*
X-578835Y-177896D01*
X-578527Y-177937D01*
X-578219Y-177987D01*
X-577912Y-178044D01*
X-577607Y-178109D01*
X-577304Y-178181D01*
X-577003Y-178260D01*
X-576703Y-178347D01*
X-576406Y-178441D01*
X-576111Y-178542D01*
X-575819Y-178651D01*
X-575530Y-178767D01*
X-575243Y-178890D01*
X-574960Y-179019D01*
X-574680Y-179156D01*
X-574403Y-179300D01*
X-574130Y-179450D01*
X-573861Y-179607D01*
X-573596Y-179770D01*
X-573334Y-179940D01*
X-573077Y-180117D01*
X-572825Y-180299D01*
X-572577Y-180488D01*
X-572333Y-180683D01*
X-572095Y-180883D01*
X-571861Y-181090D01*
X-571633Y-181302D01*
X-571410Y-181520D01*
X-571192Y-181743D01*
X-570980Y-181971D01*
X-570773Y-182205D01*
X-570573Y-182443D01*
X-570378Y-182687D01*
X-570189Y-182935D01*
X-570007Y-183187D01*
X-569830Y-183444D01*
X-569660Y-183706D01*
X-569497Y-183971D01*
X-569340Y-184240D01*
X-569190Y-184513D01*
X-569046Y-184790D01*
X-568909Y-185070D01*
X-568780Y-185353D01*
X-568657Y-185640D01*
X-568541Y-185929D01*
X-568432Y-186221D01*
X-568331Y-186516D01*
X-568237Y-186813D01*
X-568150Y-187113D01*
X-568071Y-187414D01*
X-567999Y-187717D01*
X-567934Y-188022D01*
X-567877Y-188329D01*
X-567827Y-188637D01*
X-567786Y-188945D01*
X-567751Y-189255D01*
X-567724Y-189566D01*
X-567705Y-189877D01*
X-567694Y-190188D01*
X-567690Y-190500D01*
X-567694Y-190812D01*
X-567705Y-191123D01*
X-567724Y-191434D01*
X-567751Y-191745D01*
X-567786Y-192055D01*
X-567827Y-192363D01*
X-567877Y-192671D01*
X-567934Y-192978D01*
X-567999Y-193283D01*
X-568071Y-193586D01*
X-568150Y-193887D01*
X-568237Y-194187D01*
X-568331Y-194484D01*
X-568432Y-194779D01*
X-568541Y-195071D01*
X-568657Y-195360D01*
X-568780Y-195647D01*
X-568909Y-195930D01*
X-569046Y-196210D01*
X-569190Y-196487D01*
X-569340Y-196760D01*
X-569497Y-197029D01*
X-569660Y-197294D01*
X-569830Y-197556D01*
X-570007Y-197813D01*
X-570189Y-198065D01*
X-570378Y-198313D01*
X-570573Y-198557D01*
X-570773Y-198795D01*
X-570980Y-199029D01*
X-571192Y-199257D01*
X-571410Y-199480D01*
X-571633Y-199698D01*
X-571861Y-199910D01*
X-572095Y-200117D01*
X-572333Y-200317D01*
X-572577Y-200512D01*
X-572825Y-200701D01*
X-573077Y-200883D01*
X-573334Y-201060D01*
X-573596Y-201230D01*
X-573861Y-201393D01*
X-574130Y-201550D01*
X-574403Y-201700D01*
X-574680Y-201844D01*
X-574960Y-201981D01*
X-575243Y-202110D01*
X-575530Y-202233D01*
X-575819Y-202349D01*
X-576111Y-202458D01*
X-576406Y-202559D01*
X-576703Y-202653D01*
X-577003Y-202740D01*
X-577304Y-202819D01*
X-577607Y-202891D01*
X-577912Y-202956D01*
X-578219Y-203013D01*
X-578527Y-203063D01*
X-578835Y-203104D01*
X-579145Y-203139D01*
X-579456Y-203166D01*
X-579767Y-203185D01*
X-580078Y-203196D01*
X-580390Y-203200D01*
X-580702Y-203196D01*
X-581013Y-203185D01*
X-581324Y-203166D01*
X-581635Y-203139D01*
X-581945Y-203104D01*
X-582253Y-203063D01*
X-582561Y-203013D01*
X-582868Y-202956D01*
X-583173Y-202891D01*
X-583476Y-202819D01*
X-583777Y-202740D01*
X-584077Y-202653D01*
X-584374Y-202559D01*
X-584669Y-202458D01*
X-584961Y-202349D01*
X-585250Y-202233D01*
X-585537Y-202110D01*
X-585820Y-201981D01*
X-586100Y-201844D01*
X-586377Y-201700D01*
X-586650Y-201550D01*
X-586919Y-201393D01*
X-587184Y-201230D01*
X-587446Y-201060D01*
X-587703Y-200883D01*
X-587955Y-200701D01*
X-588203Y-200512D01*
X-588447Y-200317D01*
X-588685Y-200117D01*
X-588919Y-199910D01*
X-589147Y-199698D01*
X-589370Y-199480D01*
X-589588Y-199257D01*
X-589800Y-199029D01*
X-590007Y-198795D01*
X-590207Y-198557D01*
X-590402Y-198313D01*
X-590591Y-198065D01*
X-590773Y-197813D01*
X-590950Y-197556D01*
X-591120Y-197294D01*
X-591283Y-197029D01*
X-591440Y-196760D01*
X-591590Y-196487D01*
X-591734Y-196210D01*
X-591871Y-195930D01*
X-592000Y-195647D01*
X-592123Y-195360D01*
X-592239Y-195071D01*
X-592348Y-194779D01*
X-592449Y-194484D01*
X-592543Y-194187D01*
X-592630Y-193887D01*
X-592709Y-193586D01*
X-592781Y-193283D01*
X-592846Y-192978D01*
X-592903Y-192671D01*
X-592953Y-192363D01*
X-592994Y-192055D01*
X-593029Y-191745D01*
X-593056Y-191434D01*
X-593075Y-191123D01*
X-593086Y-190812D01*
X-593090Y-190500D01*
D11*
X-1955800Y-461010D02*
X-1955800Y711200D01*
X-1955800Y-461010D02*
X-1913890Y-461010D01*
X-1913890Y-636524D01*
X-298958Y-636524D01*
X-298958Y-561594D01*
X-257810Y-561594D01*
X-257810Y711200D01*
X-486410Y711200D01*
X-549910Y647700D01*
X-549910Y584200D01*
X-1663700Y584200D01*
X-1663700Y647700D01*
X-1727200Y711200D01*
X-1955800Y711200D01*
D10*
X-1939925Y647700D02*
X-1939920Y648090D01*
X-1939906Y648479D01*
X-1939882Y648868D01*
X-1939849Y649256D01*
X-1939806Y649643D01*
X-1939753Y650029D01*
X-1939691Y650414D01*
X-1939620Y650797D01*
X-1939539Y651178D01*
X-1939449Y651557D01*
X-1939350Y651934D01*
X-1939241Y652308D01*
X-1939124Y652680D01*
X-1938997Y653048D01*
X-1938861Y653413D01*
X-1938717Y653775D01*
X-1938563Y654133D01*
X-1938401Y654487D01*
X-1938230Y654838D01*
X-1938051Y655183D01*
X-1937863Y655525D01*
X-1937666Y655861D01*
X-1937462Y656193D01*
X-1937250Y656520D01*
X-1937029Y656841D01*
X-1936801Y657157D01*
X-1936565Y657467D01*
X-1936322Y657771D01*
X-1936071Y658069D01*
X-1935813Y658361D01*
X-1935547Y658646D01*
X-1935275Y658925D01*
X-1934996Y659197D01*
X-1934711Y659463D01*
X-1934419Y659721D01*
X-1934121Y659972D01*
X-1933817Y660215D01*
X-1933507Y660451D01*
X-1933191Y660679D01*
X-1932870Y660900D01*
X-1932543Y661112D01*
X-1932211Y661316D01*
X-1931875Y661513D01*
X-1931533Y661701D01*
X-1931188Y661880D01*
X-1930837Y662051D01*
X-1930483Y662213D01*
X-1930125Y662367D01*
X-1929763Y662511D01*
X-1929398Y662647D01*
X-1929030Y662774D01*
X-1928658Y662891D01*
X-1928284Y663000D01*
X-1927907Y663099D01*
X-1927528Y663189D01*
X-1927147Y663270D01*
X-1926764Y663341D01*
X-1926379Y663403D01*
X-1925993Y663456D01*
X-1925606Y663499D01*
X-1925218Y663532D01*
X-1924829Y663556D01*
X-1924440Y663570D01*
X-1924050Y663575D01*
X-1923660Y663570D01*
X-1923271Y663556D01*
X-1922882Y663532D01*
X-1922494Y663499D01*
X-1922107Y663456D01*
X-1921721Y663403D01*
X-1921336Y663341D01*
X-1920953Y663270D01*
X-1920572Y663189D01*
X-1920193Y663099D01*
X-1919816Y663000D01*
X-1919442Y662891D01*
X-1919070Y662774D01*
X-1918702Y662647D01*
X-1918337Y662511D01*
X-1917975Y662367D01*
X-1917617Y662213D01*
X-1917263Y662051D01*
X-1916912Y661880D01*
X-1916567Y661701D01*
X-1916225Y661513D01*
X-1915889Y661316D01*
X-1915557Y661112D01*
X-1915230Y660900D01*
X-1914909Y660679D01*
X-1914593Y660451D01*
X-1914283Y660215D01*
X-1913979Y659972D01*
X-1913681Y659721D01*
X-1913389Y659463D01*
X-1913104Y659197D01*
X-1912825Y658925D01*
X-1912553Y658646D01*
X-1912287Y658361D01*
X-1912029Y658069D01*
X-1911778Y657771D01*
X-1911535Y657467D01*
X-1911299Y657157D01*
X-1911071Y656841D01*
X-1910850Y656520D01*
X-1910638Y656193D01*
X-1910434Y655861D01*
X-1910237Y655525D01*
X-1910049Y655183D01*
X-1909870Y654838D01*
X-1909699Y654487D01*
X-1909537Y654133D01*
X-1909383Y653775D01*
X-1909239Y653413D01*
X-1909103Y653048D01*
X-1908976Y652680D01*
X-1908859Y652308D01*
X-1908750Y651934D01*
X-1908651Y651557D01*
X-1908561Y651178D01*
X-1908480Y650797D01*
X-1908409Y650414D01*
X-1908347Y650029D01*
X-1908294Y649643D01*
X-1908251Y649256D01*
X-1908218Y648868D01*
X-1908194Y648479D01*
X-1908180Y648090D01*
X-1908175Y647700D01*
X-1908180Y647310D01*
X-1908194Y646921D01*
X-1908218Y646532D01*
X-1908251Y646144D01*
X-1908294Y645757D01*
X-1908347Y645371D01*
X-1908409Y644986D01*
X-1908480Y644603D01*
X-1908561Y644222D01*
X-1908651Y643843D01*
X-1908750Y643466D01*
X-1908859Y643092D01*
X-1908976Y642720D01*
X-1909103Y642352D01*
X-1909239Y641987D01*
X-1909383Y641625D01*
X-1909537Y641267D01*
X-1909699Y640913D01*
X-1909870Y640562D01*
X-1910049Y640217D01*
X-1910237Y639875D01*
X-1910434Y639539D01*
X-1910638Y639207D01*
X-1910850Y638880D01*
X-1911071Y638559D01*
X-1911299Y638243D01*
X-1911535Y637933D01*
X-1911778Y637629D01*
X-1912029Y637331D01*
X-1912287Y637039D01*
X-1912553Y636754D01*
X-1912825Y636475D01*
X-1913104Y636203D01*
X-1913389Y635937D01*
X-1913681Y635679D01*
X-1913979Y635428D01*
X-1914283Y635185D01*
X-1914593Y634949D01*
X-1914909Y634721D01*
X-1915230Y634500D01*
X-1915557Y634288D01*
X-1915889Y634084D01*
X-1916225Y633887D01*
X-1916567Y633699D01*
X-1916912Y633520D01*
X-1917263Y633349D01*
X-1917617Y633187D01*
X-1917975Y633033D01*
X-1918337Y632889D01*
X-1918702Y632753D01*
X-1919070Y632626D01*
X-1919442Y632509D01*
X-1919816Y632400D01*
X-1920193Y632301D01*
X-1920572Y632211D01*
X-1920953Y632130D01*
X-1921336Y632059D01*
X-1921721Y631997D01*
X-1922107Y631944D01*
X-1922494Y631901D01*
X-1922882Y631868D01*
X-1923271Y631844D01*
X-1923660Y631830D01*
X-1924050Y631825D01*
X-1924440Y631830D01*
X-1924829Y631844D01*
X-1925218Y631868D01*
X-1925606Y631901D01*
X-1925993Y631944D01*
X-1926379Y631997D01*
X-1926764Y632059D01*
X-1927147Y632130D01*
X-1927528Y632211D01*
X-1927907Y632301D01*
X-1928284Y632400D01*
X-1928658Y632509D01*
X-1929030Y632626D01*
X-1929398Y632753D01*
X-1929763Y632889D01*
X-1930125Y633033D01*
X-1930483Y633187D01*
X-1930837Y633349D01*
X-1931188Y633520D01*
X-1931533Y633699D01*
X-1931875Y633887D01*
X-1932211Y634084D01*
X-1932543Y634288D01*
X-1932870Y634500D01*
X-1933191Y634721D01*
X-1933507Y634949D01*
X-1933817Y635185D01*
X-1934121Y635428D01*
X-1934419Y635679D01*
X-1934711Y635937D01*
X-1934996Y636203D01*
X-1935275Y636475D01*
X-1935547Y636754D01*
X-1935813Y637039D01*
X-1936071Y637331D01*
X-1936322Y637629D01*
X-1936565Y637933D01*
X-1936801Y638243D01*
X-1937029Y638559D01*
X-1937250Y638880D01*
X-1937462Y639207D01*
X-1937666Y639539D01*
X-1937863Y639875D01*
X-1938051Y640217D01*
X-1938230Y640562D01*
X-1938401Y640913D01*
X-1938563Y641267D01*
X-1938717Y641625D01*
X-1938861Y641987D01*
X-1938997Y642352D01*
X-1939124Y642720D01*
X-1939241Y643092D01*
X-1939350Y643466D01*
X-1939449Y643843D01*
X-1939539Y644222D01*
X-1939620Y644603D01*
X-1939691Y644986D01*
X-1939753Y645371D01*
X-1939806Y645757D01*
X-1939849Y646144D01*
X-1939882Y646532D01*
X-1939906Y646921D01*
X-1939920Y647310D01*
X-1939925Y647700D01*
X-305435Y647700D02*
X-305430Y648090D01*
X-305416Y648479D01*
X-305392Y648868D01*
X-305359Y649256D01*
X-305316Y649643D01*
X-305263Y650029D01*
X-305201Y650414D01*
X-305130Y650797D01*
X-305049Y651178D01*
X-304959Y651557D01*
X-304860Y651934D01*
X-304751Y652308D01*
X-304634Y652680D01*
X-304507Y653048D01*
X-304371Y653413D01*
X-304227Y653775D01*
X-304073Y654133D01*
X-303911Y654487D01*
X-303740Y654838D01*
X-303561Y655183D01*
X-303373Y655525D01*
X-303176Y655861D01*
X-302972Y656193D01*
X-302760Y656520D01*
X-302539Y656841D01*
X-302311Y657157D01*
X-302075Y657467D01*
X-301832Y657771D01*
X-301581Y658069D01*
X-301323Y658361D01*
X-301057Y658646D01*
X-300785Y658925D01*
X-300506Y659197D01*
X-300221Y659463D01*
X-299929Y659721D01*
X-299631Y659972D01*
X-299327Y660215D01*
X-299017Y660451D01*
X-298701Y660679D01*
X-298380Y660900D01*
X-298053Y661112D01*
X-297721Y661316D01*
X-297385Y661513D01*
X-297043Y661701D01*
X-296698Y661880D01*
X-296347Y662051D01*
X-295993Y662213D01*
X-295635Y662367D01*
X-295273Y662511D01*
X-294908Y662647D01*
X-294540Y662774D01*
X-294168Y662891D01*
X-293794Y663000D01*
X-293417Y663099D01*
X-293038Y663189D01*
X-292657Y663270D01*
X-292274Y663341D01*
X-291889Y663403D01*
X-291503Y663456D01*
X-291116Y663499D01*
X-290728Y663532D01*
X-290339Y663556D01*
X-289950Y663570D01*
X-289560Y663575D01*
X-289170Y663570D01*
X-288781Y663556D01*
X-288392Y663532D01*
X-288004Y663499D01*
X-287617Y663456D01*
X-287231Y663403D01*
X-286846Y663341D01*
X-286463Y663270D01*
X-286082Y663189D01*
X-285703Y663099D01*
X-285326Y663000D01*
X-284952Y662891D01*
X-284580Y662774D01*
X-284212Y662647D01*
X-283847Y662511D01*
X-283485Y662367D01*
X-283127Y662213D01*
X-282773Y662051D01*
X-282422Y661880D01*
X-282077Y661701D01*
X-281735Y661513D01*
X-281399Y661316D01*
X-281067Y661112D01*
X-280740Y660900D01*
X-280419Y660679D01*
X-280103Y660451D01*
X-279793Y660215D01*
X-279489Y659972D01*
X-279191Y659721D01*
X-278899Y659463D01*
X-278614Y659197D01*
X-278335Y658925D01*
X-278063Y658646D01*
X-277797Y658361D01*
X-277539Y658069D01*
X-277288Y657771D01*
X-277045Y657467D01*
X-276809Y657157D01*
X-276581Y656841D01*
X-276360Y656520D01*
X-276148Y656193D01*
X-275944Y655861D01*
X-275747Y655525D01*
X-275559Y655183D01*
X-275380Y654838D01*
X-275209Y654487D01*
X-275047Y654133D01*
X-274893Y653775D01*
X-274749Y653413D01*
X-274613Y653048D01*
X-274486Y652680D01*
X-274369Y652308D01*
X-274260Y651934D01*
X-274161Y651557D01*
X-274071Y651178D01*
X-273990Y650797D01*
X-273919Y650414D01*
X-273857Y650029D01*
X-273804Y649643D01*
X-273761Y649256D01*
X-273728Y648868D01*
X-273704Y648479D01*
X-273690Y648090D01*
X-273685Y647700D01*
X-273690Y647310D01*
X-273704Y646921D01*
X-273728Y646532D01*
X-273761Y646144D01*
X-273804Y645757D01*
X-273857Y645371D01*
X-273919Y644986D01*
X-273990Y644603D01*
X-274071Y644222D01*
X-274161Y643843D01*
X-274260Y643466D01*
X-274369Y643092D01*
X-274486Y642720D01*
X-274613Y642352D01*
X-274749Y641987D01*
X-274893Y641625D01*
X-275047Y641267D01*
X-275209Y640913D01*
X-275380Y640562D01*
X-275559Y640217D01*
X-275747Y639875D01*
X-275944Y639539D01*
X-276148Y639207D01*
X-276360Y638880D01*
X-276581Y638559D01*
X-276809Y638243D01*
X-277045Y637933D01*
X-277288Y637629D01*
X-277539Y637331D01*
X-277797Y637039D01*
X-278063Y636754D01*
X-278335Y636475D01*
X-278614Y636203D01*
X-278899Y635937D01*
X-279191Y635679D01*
X-279489Y635428D01*
X-279793Y635185D01*
X-280103Y634949D01*
X-280419Y634721D01*
X-280740Y634500D01*
X-281067Y634288D01*
X-281399Y634084D01*
X-281735Y633887D01*
X-282077Y633699D01*
X-282422Y633520D01*
X-282773Y633349D01*
X-283127Y633187D01*
X-283485Y633033D01*
X-283847Y632889D01*
X-284212Y632753D01*
X-284580Y632626D01*
X-284952Y632509D01*
X-285326Y632400D01*
X-285703Y632301D01*
X-286082Y632211D01*
X-286463Y632130D01*
X-286846Y632059D01*
X-287231Y631997D01*
X-287617Y631944D01*
X-288004Y631901D01*
X-288392Y631868D01*
X-288781Y631844D01*
X-289170Y631830D01*
X-289560Y631825D01*
X-289950Y631830D01*
X-290339Y631844D01*
X-290728Y631868D01*
X-291116Y631901D01*
X-291503Y631944D01*
X-291889Y631997D01*
X-292274Y632059D01*
X-292657Y632130D01*
X-293038Y632211D01*
X-293417Y632301D01*
X-293794Y632400D01*
X-294168Y632509D01*
X-294540Y632626D01*
X-294908Y632753D01*
X-295273Y632889D01*
X-295635Y633033D01*
X-295993Y633187D01*
X-296347Y633349D01*
X-296698Y633520D01*
X-297043Y633699D01*
X-297385Y633887D01*
X-297721Y634084D01*
X-298053Y634288D01*
X-298380Y634500D01*
X-298701Y634721D01*
X-299017Y634949D01*
X-299327Y635185D01*
X-299631Y635428D01*
X-299929Y635679D01*
X-300221Y635937D01*
X-300506Y636203D01*
X-300785Y636475D01*
X-301057Y636754D01*
X-301323Y637039D01*
X-301581Y637331D01*
X-301832Y637629D01*
X-302075Y637933D01*
X-302311Y638243D01*
X-302539Y638559D01*
X-302760Y638880D01*
X-302972Y639207D01*
X-303176Y639539D01*
X-303373Y639875D01*
X-303561Y640217D01*
X-303740Y640562D01*
X-303911Y640913D01*
X-304073Y641267D01*
X-304227Y641625D01*
X-304371Y641987D01*
X-304507Y642352D01*
X-304634Y642720D01*
X-304751Y643092D01*
X-304860Y643466D01*
X-304959Y643843D01*
X-305049Y644222D01*
X-305130Y644603D01*
X-305201Y644986D01*
X-305263Y645371D01*
X-305316Y645757D01*
X-305359Y646144D01*
X-305392Y646532D01*
X-305416Y646921D01*
X-305430Y647310D01*
X-305435Y647700D01*
X-1896364Y676910D02*
X-1896361Y677134D01*
X-1896353Y677359D01*
X-1896339Y677583D01*
X-1896320Y677806D01*
X-1896295Y678029D01*
X-1896265Y678252D01*
X-1896229Y678473D01*
X-1896188Y678694D01*
X-1896142Y678913D01*
X-1896090Y679132D01*
X-1896033Y679349D01*
X-1895970Y679564D01*
X-1895902Y679778D01*
X-1895829Y679991D01*
X-1895751Y680201D01*
X-1895668Y680409D01*
X-1895580Y680616D01*
X-1895486Y680820D01*
X-1895388Y681021D01*
X-1895284Y681220D01*
X-1895176Y681417D01*
X-1895063Y681611D01*
X-1894945Y681802D01*
X-1894823Y681990D01*
X-1894696Y682175D01*
X-1894565Y682357D01*
X-1894429Y682536D01*
X-1894288Y682711D01*
X-1894144Y682883D01*
X-1893995Y683051D01*
X-1893843Y683215D01*
X-1893686Y683376D01*
X-1893525Y683533D01*
X-1893361Y683685D01*
X-1893193Y683834D01*
X-1893021Y683978D01*
X-1892846Y684119D01*
X-1892667Y684255D01*
X-1892485Y684386D01*
X-1892300Y684513D01*
X-1892112Y684635D01*
X-1891921Y684753D01*
X-1891727Y684866D01*
X-1891530Y684974D01*
X-1891331Y685078D01*
X-1891130Y685176D01*
X-1890926Y685270D01*
X-1890719Y685358D01*
X-1890511Y685441D01*
X-1890301Y685519D01*
X-1890088Y685592D01*
X-1889874Y685660D01*
X-1889659Y685723D01*
X-1889442Y685780D01*
X-1889223Y685832D01*
X-1889004Y685878D01*
X-1888783Y685919D01*
X-1888562Y685955D01*
X-1888339Y685985D01*
X-1888116Y686010D01*
X-1887893Y686029D01*
X-1887669Y686043D01*
X-1887444Y686051D01*
X-1887220Y686054D01*
X-1886996Y686051D01*
X-1886771Y686043D01*
X-1886547Y686029D01*
X-1886324Y686010D01*
X-1886101Y685985D01*
X-1885878Y685955D01*
X-1885657Y685919D01*
X-1885436Y685878D01*
X-1885217Y685832D01*
X-1884998Y685780D01*
X-1884781Y685723D01*
X-1884566Y685660D01*
X-1884352Y685592D01*
X-1884139Y685519D01*
X-1883929Y685441D01*
X-1883721Y685358D01*
X-1883514Y685270D01*
X-1883310Y685176D01*
X-1883109Y685078D01*
X-1882910Y684974D01*
X-1882713Y684866D01*
X-1882519Y684753D01*
X-1882328Y684635D01*
X-1882140Y684513D01*
X-1881955Y684386D01*
X-1881773Y684255D01*
X-1881594Y684119D01*
X-1881419Y683978D01*
X-1881247Y683834D01*
X-1881079Y683685D01*
X-1880915Y683533D01*
X-1880754Y683376D01*
X-1880597Y683215D01*
X-1880445Y683051D01*
X-1880296Y682883D01*
X-1880152Y682711D01*
X-1880011Y682536D01*
X-1879875Y682357D01*
X-1879744Y682175D01*
X-1879617Y681990D01*
X-1879495Y681802D01*
X-1879377Y681611D01*
X-1879264Y681417D01*
X-1879156Y681220D01*
X-1879052Y681021D01*
X-1878954Y680820D01*
X-1878860Y680616D01*
X-1878772Y680409D01*
X-1878689Y680201D01*
X-1878611Y679991D01*
X-1878538Y679778D01*
X-1878470Y679564D01*
X-1878407Y679349D01*
X-1878350Y679132D01*
X-1878298Y678913D01*
X-1878252Y678694D01*
X-1878211Y678473D01*
X-1878175Y678252D01*
X-1878145Y678029D01*
X-1878120Y677806D01*
X-1878101Y677583D01*
X-1878087Y677359D01*
X-1878079Y677134D01*
X-1878076Y676910D01*
X-1878079Y676686D01*
X-1878087Y676461D01*
X-1878101Y676237D01*
X-1878120Y676014D01*
X-1878145Y675791D01*
X-1878175Y675568D01*
X-1878211Y675347D01*
X-1878252Y675126D01*
X-1878298Y674907D01*
X-1878350Y674688D01*
X-1878407Y674471D01*
X-1878470Y674256D01*
X-1878538Y674042D01*
X-1878611Y673829D01*
X-1878689Y673619D01*
X-1878772Y673411D01*
X-1878860Y673204D01*
X-1878954Y673000D01*
X-1879052Y672799D01*
X-1879156Y672600D01*
X-1879264Y672403D01*
X-1879377Y672209D01*
X-1879495Y672018D01*
X-1879617Y671830D01*
X-1879744Y671645D01*
X-1879875Y671463D01*
X-1880011Y671284D01*
X-1880152Y671109D01*
X-1880296Y670937D01*
X-1880445Y670769D01*
X-1880597Y670605D01*
X-1880754Y670444D01*
X-1880915Y670287D01*
X-1881079Y670135D01*
X-1881247Y669986D01*
X-1881419Y669842D01*
X-1881594Y669701D01*
X-1881773Y669565D01*
X-1881955Y669434D01*
X-1882140Y669307D01*
X-1882328Y669185D01*
X-1882519Y669067D01*
X-1882713Y668954D01*
X-1882910Y668846D01*
X-1883109Y668742D01*
X-1883310Y668644D01*
X-1883514Y668550D01*
X-1883721Y668462D01*
X-1883929Y668379D01*
X-1884139Y668301D01*
X-1884352Y668228D01*
X-1884566Y668160D01*
X-1884781Y668097D01*
X-1884998Y668040D01*
X-1885217Y667988D01*
X-1885436Y667942D01*
X-1885657Y667901D01*
X-1885878Y667865D01*
X-1886101Y667835D01*
X-1886324Y667810D01*
X-1886547Y667791D01*
X-1886771Y667777D01*
X-1886996Y667769D01*
X-1887220Y667766D01*
X-1887444Y667769D01*
X-1887669Y667777D01*
X-1887893Y667791D01*
X-1888116Y667810D01*
X-1888339Y667835D01*
X-1888562Y667865D01*
X-1888783Y667901D01*
X-1889004Y667942D01*
X-1889223Y667988D01*
X-1889442Y668040D01*
X-1889659Y668097D01*
X-1889874Y668160D01*
X-1890088Y668228D01*
X-1890301Y668301D01*
X-1890511Y668379D01*
X-1890719Y668462D01*
X-1890926Y668550D01*
X-1891130Y668644D01*
X-1891331Y668742D01*
X-1891530Y668846D01*
X-1891727Y668954D01*
X-1891921Y669067D01*
X-1892112Y669185D01*
X-1892300Y669307D01*
X-1892485Y669434D01*
X-1892667Y669565D01*
X-1892846Y669701D01*
X-1893021Y669842D01*
X-1893193Y669986D01*
X-1893361Y670135D01*
X-1893525Y670287D01*
X-1893686Y670444D01*
X-1893843Y670605D01*
X-1893995Y670769D01*
X-1894144Y670937D01*
X-1894288Y671109D01*
X-1894429Y671284D01*
X-1894565Y671463D01*
X-1894696Y671645D01*
X-1894823Y671830D01*
X-1894945Y672018D01*
X-1895063Y672209D01*
X-1895176Y672403D01*
X-1895284Y672600D01*
X-1895388Y672799D01*
X-1895486Y673000D01*
X-1895580Y673204D01*
X-1895668Y673411D01*
X-1895751Y673619D01*
X-1895829Y673829D01*
X-1895902Y674042D01*
X-1895970Y674256D01*
X-1896033Y674471D01*
X-1896090Y674688D01*
X-1896142Y674907D01*
X-1896188Y675126D01*
X-1896229Y675347D01*
X-1896265Y675568D01*
X-1896295Y675791D01*
X-1896320Y676014D01*
X-1896339Y676237D01*
X-1896353Y676461D01*
X-1896361Y676686D01*
X-1896364Y676910D01*
X-330454Y676910D02*
X-330451Y677134D01*
X-330443Y677359D01*
X-330429Y677583D01*
X-330410Y677806D01*
X-330385Y678029D01*
X-330355Y678252D01*
X-330319Y678473D01*
X-330278Y678694D01*
X-330232Y678913D01*
X-330180Y679132D01*
X-330123Y679349D01*
X-330060Y679564D01*
X-329992Y679778D01*
X-329919Y679991D01*
X-329841Y680201D01*
X-329758Y680409D01*
X-329670Y680616D01*
X-329576Y680820D01*
X-329478Y681021D01*
X-329374Y681220D01*
X-329266Y681417D01*
X-329153Y681611D01*
X-329035Y681802D01*
X-328913Y681990D01*
X-328786Y682175D01*
X-328655Y682357D01*
X-328519Y682536D01*
X-328378Y682711D01*
X-328234Y682883D01*
X-328085Y683051D01*
X-327933Y683215D01*
X-327776Y683376D01*
X-327615Y683533D01*
X-327451Y683685D01*
X-327283Y683834D01*
X-327111Y683978D01*
X-326936Y684119D01*
X-326757Y684255D01*
X-326575Y684386D01*
X-326390Y684513D01*
X-326202Y684635D01*
X-326011Y684753D01*
X-325817Y684866D01*
X-325620Y684974D01*
X-325421Y685078D01*
X-325220Y685176D01*
X-325016Y685270D01*
X-324809Y685358D01*
X-324601Y685441D01*
X-324391Y685519D01*
X-324178Y685592D01*
X-323964Y685660D01*
X-323749Y685723D01*
X-323532Y685780D01*
X-323313Y685832D01*
X-323094Y685878D01*
X-322873Y685919D01*
X-322652Y685955D01*
X-322429Y685985D01*
X-322206Y686010D01*
X-321983Y686029D01*
X-321759Y686043D01*
X-321534Y686051D01*
X-321310Y686054D01*
X-321086Y686051D01*
X-320861Y686043D01*
X-320637Y686029D01*
X-320414Y686010D01*
X-320191Y685985D01*
X-319968Y685955D01*
X-319747Y685919D01*
X-319526Y685878D01*
X-319307Y685832D01*
X-319088Y685780D01*
X-318871Y685723D01*
X-318656Y685660D01*
X-318442Y685592D01*
X-318229Y685519D01*
X-318019Y685441D01*
X-317811Y685358D01*
X-317604Y685270D01*
X-317400Y685176D01*
X-317199Y685078D01*
X-317000Y684974D01*
X-316803Y684866D01*
X-316609Y684753D01*
X-316418Y684635D01*
X-316230Y684513D01*
X-316045Y684386D01*
X-315863Y684255D01*
X-315684Y684119D01*
X-315509Y683978D01*
X-315337Y683834D01*
X-315169Y683685D01*
X-315005Y683533D01*
X-314844Y683376D01*
X-314687Y683215D01*
X-314535Y683051D01*
X-314386Y682883D01*
X-314242Y682711D01*
X-314101Y682536D01*
X-313965Y682357D01*
X-313834Y682175D01*
X-313707Y681990D01*
X-313585Y681802D01*
X-313467Y681611D01*
X-313354Y681417D01*
X-313246Y681220D01*
X-313142Y681021D01*
X-313044Y680820D01*
X-312950Y680616D01*
X-312862Y680409D01*
X-312779Y680201D01*
X-312701Y679991D01*
X-312628Y679778D01*
X-312560Y679564D01*
X-312497Y679349D01*
X-312440Y679132D01*
X-312388Y678913D01*
X-312342Y678694D01*
X-312301Y678473D01*
X-312265Y678252D01*
X-312235Y678029D01*
X-312210Y677806D01*
X-312191Y677583D01*
X-312177Y677359D01*
X-312169Y677134D01*
X-312166Y676910D01*
X-312169Y676686D01*
X-312177Y676461D01*
X-312191Y676237D01*
X-312210Y676014D01*
X-312235Y675791D01*
X-312265Y675568D01*
X-312301Y675347D01*
X-312342Y675126D01*
X-312388Y674907D01*
X-312440Y674688D01*
X-312497Y674471D01*
X-312560Y674256D01*
X-312628Y674042D01*
X-312701Y673829D01*
X-312779Y673619D01*
X-312862Y673411D01*
X-312950Y673204D01*
X-313044Y673000D01*
X-313142Y672799D01*
X-313246Y672600D01*
X-313354Y672403D01*
X-313467Y672209D01*
X-313585Y672018D01*
X-313707Y671830D01*
X-313834Y671645D01*
X-313965Y671463D01*
X-314101Y671284D01*
X-314242Y671109D01*
X-314386Y670937D01*
X-314535Y670769D01*
X-314687Y670605D01*
X-314844Y670444D01*
X-315005Y670287D01*
X-315169Y670135D01*
X-315337Y669986D01*
X-315509Y669842D01*
X-315684Y669701D01*
X-315863Y669565D01*
X-316045Y669434D01*
X-316230Y669307D01*
X-316418Y669185D01*
X-316609Y669067D01*
X-316803Y668954D01*
X-317000Y668846D01*
X-317199Y668742D01*
X-317400Y668644D01*
X-317604Y668550D01*
X-317811Y668462D01*
X-318019Y668379D01*
X-318229Y668301D01*
X-318442Y668228D01*
X-318656Y668160D01*
X-318871Y668097D01*
X-319088Y668040D01*
X-319307Y667988D01*
X-319526Y667942D01*
X-319747Y667901D01*
X-319968Y667865D01*
X-320191Y667835D01*
X-320414Y667810D01*
X-320637Y667791D01*
X-320861Y667777D01*
X-321086Y667769D01*
X-321310Y667766D01*
X-321534Y667769D01*
X-321759Y667777D01*
X-321983Y667791D01*
X-322206Y667810D01*
X-322429Y667835D01*
X-322652Y667865D01*
X-322873Y667901D01*
X-323094Y667942D01*
X-323313Y667988D01*
X-323532Y668040D01*
X-323749Y668097D01*
X-323964Y668160D01*
X-324178Y668228D01*
X-324391Y668301D01*
X-324601Y668379D01*
X-324809Y668462D01*
X-325016Y668550D01*
X-325220Y668644D01*
X-325421Y668742D01*
X-325620Y668846D01*
X-325817Y668954D01*
X-326011Y669067D01*
X-326202Y669185D01*
X-326390Y669307D01*
X-326575Y669434D01*
X-326757Y669565D01*
X-326936Y669701D01*
X-327111Y669842D01*
X-327283Y669986D01*
X-327451Y670135D01*
X-327615Y670287D01*
X-327776Y670444D01*
X-327933Y670605D01*
X-328085Y670769D01*
X-328234Y670937D01*
X-328378Y671109D01*
X-328519Y671284D01*
X-328655Y671463D01*
X-328786Y671645D01*
X-328913Y671830D01*
X-329035Y672018D01*
X-329153Y672209D01*
X-329266Y672403D01*
X-329374Y672600D01*
X-329478Y672799D01*
X-329576Y673000D01*
X-329670Y673204D01*
X-329758Y673411D01*
X-329841Y673619D01*
X-329919Y673829D01*
X-329992Y674042D01*
X-330060Y674256D01*
X-330123Y674471D01*
X-330180Y674688D01*
X-330232Y674907D01*
X-330278Y675126D01*
X-330319Y675347D01*
X-330355Y675568D01*
X-330385Y675791D01*
X-330410Y676014D01*
X-330429Y676237D01*
X-330443Y676461D01*
X-330451Y676686D01*
X-330454Y676910D01*
D12*
X-1955800Y-461010D02*
X-1913890Y-461010D01*
X-1913890Y-636524D01*
X-298958Y-636524D01*
X-298958Y-561594D01*
X-257810Y-561594D01*
X-257810Y711200D01*
X-486410Y711200D01*
X-549910Y647700D01*
X-549910Y584200D01*
X-1663700Y584200D01*
X-1663700Y647700D01*
X-1727200Y711200D01*
X-1955800Y711200D01*
X-1955800Y-461010D01*
X-965699Y241300D02*
X-966694Y241378D01*
X-967680Y241534D01*
X-968650Y241767D01*
X-969599Y242076D01*
X-970521Y242458D01*
X-971410Y242911D01*
X-972261Y243432D01*
X-973069Y244019D01*
X-973827Y244667D01*
X-974533Y245373D01*
X-975181Y246131D01*
X-975768Y246939D01*
X-976289Y247790D01*
X-976742Y248679D01*
X-977124Y249601D01*
X-977433Y250550D01*
X-977666Y251520D01*
X-977822Y252506D01*
X-977900Y253501D01*
X-977900Y254499D01*
X-977822Y255494D01*
X-977666Y256480D01*
X-977433Y257450D01*
X-977124Y258399D01*
X-976742Y259321D01*
X-976289Y260210D01*
X-975768Y261061D01*
X-975181Y261869D01*
X-974533Y262627D01*
X-973827Y263333D01*
X-973069Y263981D01*
X-972261Y264568D01*
X-971410Y265089D01*
X-970521Y265542D01*
X-969599Y265924D01*
X-968650Y266233D01*
X-967680Y266466D01*
X-966694Y266622D01*
X-965699Y266700D01*
X-964701Y266700D01*
X-963706Y266622D01*
X-962720Y266466D01*
X-961750Y266233D01*
X-960801Y265924D01*
X-959879Y265542D01*
X-958990Y265089D01*
X-958139Y264568D01*
X-957331Y263981D01*
X-956573Y263333D01*
X-955867Y262627D01*
X-955219Y261869D01*
X-954632Y261061D01*
X-954111Y260210D01*
X-953658Y259321D01*
X-953276Y258399D01*
X-952967Y257450D01*
X-952734Y256480D01*
X-952578Y255494D01*
X-952500Y254499D01*
X-952500Y253501D01*
X-952578Y252506D01*
X-952734Y251520D01*
X-952967Y250550D01*
X-953276Y249601D01*
X-953658Y248679D01*
X-954111Y247790D01*
X-954632Y246939D01*
X-955219Y246131D01*
X-955867Y245373D01*
X-956573Y244667D01*
X-957331Y244019D01*
X-958139Y243432D01*
X-958990Y242911D01*
X-959879Y242458D01*
X-960801Y242076D01*
X-961750Y241767D01*
X-962720Y241534D01*
X-963706Y241378D01*
X-964701Y241300D01*
X-965699Y241300D01*
X-635499Y241300D02*
X-636494Y241378D01*
X-637480Y241534D01*
X-638450Y241767D01*
X-639399Y242076D01*
X-640321Y242458D01*
X-641210Y242911D01*
X-642061Y243432D01*
X-642869Y244019D01*
X-643627Y244667D01*
X-644333Y245373D01*
X-644981Y246131D01*
X-645568Y246939D01*
X-646089Y247790D01*
X-646542Y248679D01*
X-646924Y249601D01*
X-647233Y250550D01*
X-647466Y251520D01*
X-647622Y252506D01*
X-647700Y253501D01*
X-647700Y254499D01*
X-647622Y255494D01*
X-647466Y256480D01*
X-647233Y257450D01*
X-646924Y258399D01*
X-646542Y259321D01*
X-646089Y260210D01*
X-645568Y261061D01*
X-644981Y261869D01*
X-644333Y262627D01*
X-643627Y263333D01*
X-642869Y263981D01*
X-642061Y264568D01*
X-641210Y265089D01*
X-640321Y265542D01*
X-639399Y265924D01*
X-638450Y266233D01*
X-637480Y266466D01*
X-636494Y266622D01*
X-635499Y266700D01*
X-634501Y266700D01*
X-633506Y266622D01*
X-632520Y266466D01*
X-631550Y266233D01*
X-630601Y265924D01*
X-629679Y265542D01*
X-628790Y265089D01*
X-627939Y264568D01*
X-627131Y263981D01*
X-626373Y263333D01*
X-625667Y262627D01*
X-625019Y261869D01*
X-624432Y261061D01*
X-623911Y260210D01*
X-623458Y259321D01*
X-623076Y258399D01*
X-622767Y257450D01*
X-622534Y256480D01*
X-622378Y255494D01*
X-622300Y254499D01*
X-622300Y253501D01*
X-622378Y252506D01*
X-622534Y251520D01*
X-622767Y250550D01*
X-623076Y249601D01*
X-623458Y248679D01*
X-623911Y247790D01*
X-624432Y246939D01*
X-625019Y246131D01*
X-625667Y245373D01*
X-626373Y244667D01*
X-627131Y244019D01*
X-627939Y243432D01*
X-628790Y242911D01*
X-629679Y242458D01*
X-630601Y242076D01*
X-631550Y241767D01*
X-632520Y241534D01*
X-633506Y241378D01*
X-634501Y241300D01*
X-635499Y241300D01*
X-965699Y-139700D02*
X-966694Y-139622D01*
X-967680Y-139466D01*
X-968650Y-139233D01*
X-969599Y-138924D01*
X-970521Y-138542D01*
X-971410Y-138089D01*
X-972261Y-137568D01*
X-973069Y-136981D01*
X-973827Y-136333D01*
X-974533Y-135627D01*
X-975181Y-134869D01*
X-975768Y-134061D01*
X-976289Y-133210D01*
X-976742Y-132321D01*
X-977124Y-131399D01*
X-977433Y-130450D01*
X-977666Y-129480D01*
X-977822Y-128494D01*
X-977900Y-127499D01*
X-977900Y-126501D01*
X-977822Y-125506D01*
X-977666Y-124520D01*
X-977433Y-123550D01*
X-977124Y-122601D01*
X-976742Y-121679D01*
X-976289Y-120790D01*
X-975768Y-119939D01*
X-975181Y-119131D01*
X-974533Y-118373D01*
X-973827Y-117667D01*
X-973069Y-117019D01*
X-972261Y-116432D01*
X-971410Y-115911D01*
X-970521Y-115458D01*
X-969599Y-115076D01*
X-968650Y-114767D01*
X-967680Y-114534D01*
X-966694Y-114378D01*
X-965699Y-114300D01*
X-964701Y-114300D01*
X-963706Y-114378D01*
X-962720Y-114534D01*
X-961750Y-114767D01*
X-960801Y-115076D01*
X-959879Y-115458D01*
X-958990Y-115911D01*
X-958139Y-116432D01*
X-957331Y-117019D01*
X-956573Y-117667D01*
X-955867Y-118373D01*
X-955219Y-119131D01*
X-954632Y-119939D01*
X-954111Y-120790D01*
X-953658Y-121679D01*
X-953276Y-122601D01*
X-952967Y-123550D01*
X-952734Y-124520D01*
X-952578Y-125506D01*
X-952500Y-126501D01*
X-952500Y-127499D01*
X-952578Y-128494D01*
X-952734Y-129480D01*
X-952967Y-130450D01*
X-953276Y-131399D01*
X-953658Y-132321D01*
X-954111Y-133210D01*
X-954632Y-134061D01*
X-955219Y-134869D01*
X-955867Y-135627D01*
X-956573Y-136333D01*
X-957331Y-136981D01*
X-958139Y-137568D01*
X-958990Y-138089D01*
X-959879Y-138542D01*
X-960801Y-138924D01*
X-961750Y-139233D01*
X-962720Y-139466D01*
X-963706Y-139622D01*
X-964701Y-139700D01*
X-965699Y-139700D01*
X-635499Y-139700D02*
X-636494Y-139622D01*
X-637480Y-139466D01*
X-638450Y-139233D01*
X-639399Y-138924D01*
X-640321Y-138542D01*
X-641210Y-138089D01*
X-642061Y-137568D01*
X-642869Y-136981D01*
X-643627Y-136333D01*
X-644333Y-135627D01*
X-644981Y-134869D01*
X-645568Y-134061D01*
X-646089Y-133210D01*
X-646542Y-132321D01*
X-646924Y-131399D01*
X-647233Y-130450D01*
X-647466Y-129480D01*
X-647622Y-128494D01*
X-647700Y-127499D01*
X-647700Y-126501D01*
X-647622Y-125506D01*
X-647466Y-124520D01*
X-647233Y-123550D01*
X-646924Y-122601D01*
X-646542Y-121679D01*
X-646089Y-120790D01*
X-645568Y-119939D01*
X-644981Y-119131D01*
X-644333Y-118373D01*
X-643627Y-117667D01*
X-642869Y-117019D01*
X-642061Y-116432D01*
X-641210Y-115911D01*
X-640321Y-115458D01*
X-639399Y-115076D01*
X-638450Y-114767D01*
X-637480Y-114534D01*
X-636494Y-114378D01*
X-635499Y-114300D01*
X-634501Y-114300D01*
X-633506Y-114378D01*
X-632520Y-114534D01*
X-631550Y-114767D01*
X-630601Y-115076D01*
X-629679Y-115458D01*
X-628790Y-115911D01*
X-627939Y-116432D01*
X-627131Y-117019D01*
X-626373Y-117667D01*
X-625667Y-118373D01*
X-625019Y-119131D01*
X-624432Y-119939D01*
X-623911Y-120790D01*
X-623458Y-121679D01*
X-623076Y-122601D01*
X-622767Y-123550D01*
X-622534Y-124520D01*
X-622378Y-125506D01*
X-622300Y-126501D01*
X-622300Y-127499D01*
X-622378Y-128494D01*
X-622534Y-129480D01*
X-622767Y-130450D01*
X-623076Y-131399D01*
X-623458Y-132321D01*
X-623911Y-133210D01*
X-624432Y-134061D01*
X-625019Y-134869D01*
X-625667Y-135627D01*
X-626373Y-136333D01*
X-627131Y-136981D01*
X-627939Y-137568D01*
X-628790Y-138089D01*
X-629679Y-138542D01*
X-630601Y-138924D01*
X-631550Y-139233D01*
X-632520Y-139466D01*
X-633506Y-139622D01*
X-634501Y-139700D01*
X-635499Y-139700D01*
X-1002529Y304800D02*
X-1003524Y304878D01*
X-1004510Y305034D01*
X-1005480Y305267D01*
X-1006429Y305576D01*
X-1007351Y305958D01*
X-1008240Y306411D01*
X-1009091Y306932D01*
X-1009899Y307519D01*
X-1010657Y308167D01*
X-1011363Y308873D01*
X-1012011Y309631D01*
X-1012598Y310439D01*
X-1013119Y311290D01*
X-1013572Y312179D01*
X-1013954Y313101D01*
X-1014263Y314050D01*
X-1014496Y315020D01*
X-1014652Y316006D01*
X-1014730Y317001D01*
X-1014730Y317999D01*
X-1014652Y318994D01*
X-1014496Y319980D01*
X-1014263Y320950D01*
X-1013954Y321899D01*
X-1013572Y322821D01*
X-1013119Y323710D01*
X-1012598Y324561D01*
X-1012011Y325369D01*
X-1011363Y326127D01*
X-1010657Y326833D01*
X-1009899Y327481D01*
X-1009091Y328068D01*
X-1008240Y328589D01*
X-1007351Y329042D01*
X-1006429Y329424D01*
X-1005480Y329733D01*
X-1004510Y329966D01*
X-1003524Y330122D01*
X-1002529Y330200D01*
X-1001531Y330200D01*
X-1000536Y330122D01*
X-999550Y329966D01*
X-998580Y329733D01*
X-997631Y329424D01*
X-996709Y329042D01*
X-995820Y328589D01*
X-994969Y328068D01*
X-994161Y327481D01*
X-993403Y326833D01*
X-992697Y326127D01*
X-992049Y325369D01*
X-991462Y324561D01*
X-990941Y323710D01*
X-990488Y322821D01*
X-990106Y321899D01*
X-989797Y320950D01*
X-989564Y319980D01*
X-989408Y318994D01*
X-989330Y317999D01*
X-989330Y317001D01*
X-989408Y316006D01*
X-989564Y315020D01*
X-989797Y314050D01*
X-990106Y313101D01*
X-990488Y312179D01*
X-990941Y311290D01*
X-991462Y310439D01*
X-992049Y309631D01*
X-992697Y308873D01*
X-993403Y308167D01*
X-994161Y307519D01*
X-994969Y306932D01*
X-995820Y306411D01*
X-996709Y305958D01*
X-997631Y305576D01*
X-998580Y305267D01*
X-999550Y305034D01*
X-1000536Y304878D01*
X-1001531Y304800D01*
X-1002529Y304800D01*
X-580889Y304800D02*
X-581884Y304878D01*
X-582870Y305034D01*
X-583840Y305267D01*
X-584789Y305576D01*
X-585711Y305958D01*
X-586600Y306411D01*
X-587451Y306932D01*
X-588259Y307519D01*
X-589017Y308167D01*
X-589723Y308873D01*
X-590371Y309631D01*
X-590958Y310439D01*
X-591479Y311290D01*
X-591932Y312179D01*
X-592314Y313101D01*
X-592623Y314050D01*
X-592856Y315020D01*
X-593012Y316006D01*
X-593090Y317001D01*
X-593090Y317999D01*
X-593012Y318994D01*
X-592856Y319980D01*
X-592623Y320950D01*
X-592314Y321899D01*
X-591932Y322821D01*
X-591479Y323710D01*
X-590958Y324561D01*
X-590371Y325369D01*
X-589723Y326127D01*
X-589017Y326833D01*
X-588259Y327481D01*
X-587451Y328068D01*
X-586600Y328589D01*
X-585711Y329042D01*
X-584789Y329424D01*
X-583840Y329733D01*
X-582870Y329966D01*
X-581884Y330122D01*
X-580889Y330200D01*
X-579891Y330200D01*
X-578896Y330122D01*
X-577910Y329966D01*
X-576940Y329733D01*
X-575991Y329424D01*
X-575069Y329042D01*
X-574180Y328589D01*
X-573329Y328068D01*
X-572521Y327481D01*
X-571763Y326833D01*
X-571057Y326127D01*
X-570409Y325369D01*
X-569822Y324561D01*
X-569301Y323710D01*
X-568848Y322821D01*
X-568466Y321899D01*
X-568157Y320950D01*
X-567924Y319980D01*
X-567768Y318994D01*
X-567690Y317999D01*
X-567690Y317001D01*
X-567768Y316006D01*
X-567924Y315020D01*
X-568157Y314050D01*
X-568466Y313101D01*
X-568848Y312179D01*
X-569301Y311290D01*
X-569822Y310439D01*
X-570409Y309631D01*
X-571057Y308873D01*
X-571763Y308167D01*
X-572521Y307519D01*
X-573329Y306932D01*
X-574180Y306411D01*
X-575069Y305958D01*
X-575991Y305576D01*
X-576940Y305267D01*
X-577910Y305034D01*
X-578896Y304878D01*
X-579891Y304800D01*
X-580889Y304800D01*
X-1002529Y-203200D02*
X-1003524Y-203122D01*
X-1004510Y-202966D01*
X-1005480Y-202733D01*
X-1006429Y-202424D01*
X-1007351Y-202042D01*
X-1008240Y-201589D01*
X-1009091Y-201068D01*
X-1009899Y-200481D01*
X-1010657Y-199833D01*
X-1011363Y-199127D01*
X-1012011Y-198369D01*
X-1012598Y-197561D01*
X-1013119Y-196710D01*
X-1013572Y-195821D01*
X-1013954Y-194899D01*
X-1014263Y-193950D01*
X-1014496Y-192980D01*
X-1014652Y-191994D01*
X-1014730Y-190999D01*
X-1014730Y-190001D01*
X-1014652Y-189006D01*
X-1014496Y-188020D01*
X-1014263Y-187050D01*
X-1013954Y-186101D01*
X-1013572Y-185179D01*
X-1013119Y-184290D01*
X-1012598Y-183439D01*
X-1012011Y-182631D01*
X-1011363Y-181873D01*
X-1010657Y-181167D01*
X-1009899Y-180519D01*
X-1009091Y-179932D01*
X-1008240Y-179411D01*
X-1007351Y-178958D01*
X-1006429Y-178576D01*
X-1005480Y-178267D01*
X-1004510Y-178034D01*
X-1003524Y-177878D01*
X-1002529Y-177800D01*
X-1001531Y-177800D01*
X-1000536Y-177878D01*
X-999550Y-178034D01*
X-998580Y-178267D01*
X-997631Y-178576D01*
X-996709Y-178958D01*
X-995820Y-179411D01*
X-994969Y-179932D01*
X-994161Y-180519D01*
X-993403Y-181167D01*
X-992697Y-181873D01*
X-992049Y-182631D01*
X-991462Y-183439D01*
X-990941Y-184290D01*
X-990488Y-185179D01*
X-990106Y-186101D01*
X-989797Y-187050D01*
X-989564Y-188020D01*
X-989408Y-189006D01*
X-989330Y-190001D01*
X-989330Y-190999D01*
X-989408Y-191994D01*
X-989564Y-192980D01*
X-989797Y-193950D01*
X-990106Y-194899D01*
X-990488Y-195821D01*
X-990941Y-196710D01*
X-991462Y-197561D01*
X-992049Y-198369D01*
X-992697Y-199127D01*
X-993403Y-199833D01*
X-994161Y-200481D01*
X-994969Y-201068D01*
X-995820Y-201589D01*
X-996709Y-202042D01*
X-997631Y-202424D01*
X-998580Y-202733D01*
X-999550Y-202966D01*
X-1000536Y-203122D01*
X-1001531Y-203200D01*
X-1002529Y-203200D01*
X-580889Y-203200D02*
X-581884Y-203122D01*
X-582870Y-202966D01*
X-583840Y-202733D01*
X-584789Y-202424D01*
X-585711Y-202042D01*
X-586600Y-201589D01*
X-587451Y-201068D01*
X-588259Y-200481D01*
X-589017Y-199833D01*
X-589723Y-199127D01*
X-590371Y-198369D01*
X-590958Y-197561D01*
X-591479Y-196710D01*
X-591932Y-195821D01*
X-592314Y-194899D01*
X-592623Y-193950D01*
X-592856Y-192980D01*
X-593012Y-191994D01*
X-593090Y-190999D01*
X-593090Y-190001D01*
X-593012Y-189006D01*
X-592856Y-188020D01*
X-592623Y-187050D01*
X-592314Y-186101D01*
X-591932Y-185179D01*
X-591479Y-184290D01*
X-590958Y-183439D01*
X-590371Y-182631D01*
X-589723Y-181873D01*
X-589017Y-181167D01*
X-588259Y-180519D01*
X-587451Y-179932D01*
X-586600Y-179411D01*
X-585711Y-178958D01*
X-584789Y-178576D01*
X-583840Y-178267D01*
X-582870Y-178034D01*
X-581884Y-177878D01*
X-580889Y-177800D01*
X-579891Y-177800D01*
X-578896Y-177878D01*
X-577910Y-178034D01*
X-576940Y-178267D01*
X-575991Y-178576D01*
X-575069Y-178958D01*
X-574180Y-179411D01*
X-573329Y-179932D01*
X-572521Y-180519D01*
X-571763Y-181167D01*
X-571057Y-181873D01*
X-570409Y-182631D01*
X-569822Y-183439D01*
X-569301Y-184290D01*
X-568848Y-185179D01*
X-568466Y-186101D01*
X-568157Y-187050D01*
X-567924Y-188020D01*
X-567768Y-189006D01*
X-567690Y-190001D01*
X-567690Y-190999D01*
X-567768Y-191994D01*
X-567924Y-192980D01*
X-568157Y-193950D01*
X-568466Y-194899D01*
X-568848Y-195821D01*
X-569301Y-196710D01*
X-569822Y-197561D01*
X-570409Y-198369D01*
X-571057Y-199127D01*
X-571763Y-199833D01*
X-572521Y-200481D01*
X-573329Y-201068D01*
X-574180Y-201589D01*
X-575069Y-202042D01*
X-575991Y-202424D01*
X-576940Y-202733D01*
X-577910Y-202966D01*
X-578896Y-203122D01*
X-579891Y-203200D01*
X-580889Y-203200D01*
X-1908175Y647180D02*
X-1908243Y646143D01*
X-1908379Y645113D01*
X-1908581Y644093D01*
X-1908850Y643089D01*
X-1909185Y642105D01*
X-1909582Y641145D01*
X-1910042Y640213D01*
X-1910562Y639312D01*
X-1911139Y638448D01*
X-1911772Y637624D01*
X-1912457Y636842D01*
X-1913192Y636107D01*
X-1913974Y635422D01*
X-1914798Y634789D01*
X-1915662Y634212D01*
X-1916563Y633692D01*
X-1917495Y633232D01*
X-1918455Y632835D01*
X-1919439Y632500D01*
X-1920443Y632231D01*
X-1921463Y632029D01*
X-1922493Y631893D01*
X-1923530Y631825D01*
X-1924570Y631825D01*
X-1925607Y631893D01*
X-1926637Y632029D01*
X-1927657Y632231D01*
X-1928661Y632500D01*
X-1929645Y632835D01*
X-1930605Y633232D01*
X-1931537Y633692D01*
X-1932438Y634212D01*
X-1933302Y634789D01*
X-1934126Y635422D01*
X-1934908Y636107D01*
X-1935643Y636842D01*
X-1936328Y637624D01*
X-1936961Y638448D01*
X-1937538Y639312D01*
X-1938058Y640213D01*
X-1938518Y641145D01*
X-1938915Y642105D01*
X-1939250Y643089D01*
X-1939519Y644093D01*
X-1939721Y645113D01*
X-1939857Y646143D01*
X-1939925Y647180D01*
X-1939925Y648220D01*
X-1939857Y649257D01*
X-1939721Y650287D01*
X-1939519Y651307D01*
X-1939250Y652311D01*
X-1938915Y653295D01*
X-1938518Y654255D01*
X-1938058Y655187D01*
X-1937538Y656088D01*
X-1936961Y656952D01*
X-1936328Y657776D01*
X-1935643Y658558D01*
X-1934908Y659293D01*
X-1934126Y659978D01*
X-1933302Y660611D01*
X-1932438Y661188D01*
X-1931537Y661708D01*
X-1930605Y662168D01*
X-1929645Y662565D01*
X-1928661Y662900D01*
X-1927657Y663169D01*
X-1926637Y663371D01*
X-1925607Y663507D01*
X-1924570Y663575D01*
X-1923530Y663575D01*
X-1922493Y663507D01*
X-1921463Y663371D01*
X-1920443Y663169D01*
X-1919439Y662900D01*
X-1918455Y662565D01*
X-1917495Y662168D01*
X-1916563Y661708D01*
X-1915662Y661188D01*
X-1914798Y660611D01*
X-1913974Y659978D01*
X-1913192Y659293D01*
X-1912457Y658558D01*
X-1911772Y657776D01*
X-1911139Y656952D01*
X-1910562Y656088D01*
X-1910042Y655187D01*
X-1909582Y654255D01*
X-1909185Y653295D01*
X-1908850Y652311D01*
X-1908581Y651307D01*
X-1908379Y650287D01*
X-1908243Y649257D01*
X-1908175Y648220D01*
X-1908175Y647180D01*
X-273685Y647180D02*
X-273753Y646143D01*
X-273889Y645113D01*
X-274091Y644093D01*
X-274360Y643089D01*
X-274695Y642105D01*
X-275092Y641145D01*
X-275552Y640213D01*
X-276072Y639312D01*
X-276649Y638448D01*
X-277282Y637624D01*
X-277967Y636842D01*
X-278702Y636107D01*
X-279484Y635422D01*
X-280308Y634789D01*
X-281172Y634212D01*
X-282073Y633692D01*
X-283005Y633232D01*
X-283965Y632835D01*
X-284949Y632500D01*
X-285953Y632231D01*
X-286973Y632029D01*
X-288003Y631893D01*
X-289040Y631825D01*
X-290080Y631825D01*
X-291117Y631893D01*
X-292147Y632029D01*
X-293167Y632231D01*
X-294171Y632500D01*
X-295155Y632835D01*
X-296115Y633232D01*
X-297047Y633692D01*
X-297948Y634212D01*
X-298812Y634789D01*
X-299636Y635422D01*
X-300418Y636107D01*
X-301153Y636842D01*
X-301838Y637624D01*
X-302471Y638448D01*
X-303048Y639312D01*
X-303568Y640213D01*
X-304028Y641145D01*
X-304425Y642105D01*
X-304760Y643089D01*
X-305029Y644093D01*
X-305231Y645113D01*
X-305367Y646143D01*
X-305435Y647180D01*
X-305435Y648220D01*
X-305367Y649257D01*
X-305231Y650287D01*
X-305029Y651307D01*
X-304760Y652311D01*
X-304425Y653295D01*
X-304028Y654255D01*
X-303568Y655187D01*
X-303048Y656088D01*
X-302471Y656952D01*
X-301838Y657776D01*
X-301153Y658558D01*
X-300418Y659293D01*
X-299636Y659978D01*
X-298812Y660611D01*
X-297948Y661188D01*
X-297047Y661708D01*
X-296115Y662168D01*
X-295155Y662565D01*
X-294171Y662900D01*
X-293167Y663169D01*
X-292147Y663371D01*
X-291117Y663507D01*
X-290080Y663575D01*
X-289040Y663575D01*
X-288003Y663507D01*
X-286973Y663371D01*
X-285953Y663169D01*
X-284949Y662900D01*
X-283965Y662565D01*
X-283005Y662168D01*
X-282073Y661708D01*
X-281172Y661188D01*
X-280308Y660611D01*
X-279484Y659978D01*
X-278702Y659293D01*
X-277967Y658558D01*
X-277282Y657776D01*
X-276649Y656952D01*
X-276072Y656088D01*
X-275552Y655187D01*
X-275092Y654255D01*
X-274695Y653295D01*
X-274360Y652311D01*
X-274091Y651307D01*
X-273889Y650287D01*
X-273753Y649257D01*
X-273685Y648220D01*
X-273685Y647180D01*
X-1878076Y676511D02*
X-1878146Y675715D01*
X-1878284Y674929D01*
X-1878491Y674158D01*
X-1878764Y673407D01*
X-1879101Y672684D01*
X-1879501Y671992D01*
X-1879959Y671338D01*
X-1880472Y670727D01*
X-1881037Y670162D01*
X-1881648Y669649D01*
X-1882302Y669191D01*
X-1882994Y668791D01*
X-1883717Y668454D01*
X-1884468Y668181D01*
X-1885239Y667974D01*
X-1886025Y667836D01*
X-1886821Y667766D01*
X-1887619Y667766D01*
X-1888415Y667836D01*
X-1889201Y667974D01*
X-1889972Y668181D01*
X-1890723Y668454D01*
X-1891446Y668791D01*
X-1892138Y669191D01*
X-1892792Y669649D01*
X-1893403Y670162D01*
X-1893968Y670727D01*
X-1894481Y671338D01*
X-1894939Y671992D01*
X-1895339Y672684D01*
X-1895676Y673407D01*
X-1895949Y674158D01*
X-1896156Y674929D01*
X-1896294Y675715D01*
X-1896364Y676511D01*
X-1896364Y677309D01*
X-1896294Y678105D01*
X-1896156Y678891D01*
X-1895949Y679662D01*
X-1895676Y680413D01*
X-1895339Y681136D01*
X-1894939Y681828D01*
X-1894481Y682482D01*
X-1893968Y683093D01*
X-1893403Y683658D01*
X-1892792Y684171D01*
X-1892138Y684629D01*
X-1891446Y685029D01*
X-1890723Y685366D01*
X-1889972Y685639D01*
X-1889201Y685846D01*
X-1888415Y685984D01*
X-1887619Y686054D01*
X-1886821Y686054D01*
X-1886025Y685984D01*
X-1885239Y685846D01*
X-1884468Y685639D01*
X-1883717Y685366D01*
X-1882994Y685029D01*
X-1882302Y684629D01*
X-1881648Y684171D01*
X-1881037Y683658D01*
X-1880472Y683093D01*
X-1879959Y682482D01*
X-1879501Y681828D01*
X-1879101Y681136D01*
X-1878764Y680413D01*
X-1878491Y679662D01*
X-1878284Y678891D01*
X-1878146Y678105D01*
X-1878076Y677309D01*
X-1878076Y676511D01*
X-312166Y676511D02*
X-312236Y675715D01*
X-312374Y674929D01*
X-312581Y674158D01*
X-312854Y673407D01*
X-313191Y672684D01*
X-313591Y671992D01*
X-314049Y671338D01*
X-314562Y670727D01*
X-315127Y670162D01*
X-315738Y669649D01*
X-316392Y669191D01*
X-317084Y668791D01*
X-317807Y668454D01*
X-318558Y668181D01*
X-319329Y667974D01*
X-320115Y667836D01*
X-320911Y667766D01*
X-321709Y667766D01*
X-322505Y667836D01*
X-323291Y667974D01*
X-324062Y668181D01*
X-324813Y668454D01*
X-325536Y668791D01*
X-326228Y669191D01*
X-326882Y669649D01*
X-327493Y670162D01*
X-328058Y670727D01*
X-328571Y671338D01*
X-329029Y671992D01*
X-329429Y672684D01*
X-329766Y673407D01*
X-330039Y674158D01*
X-330246Y674929D01*
X-330384Y675715D01*
X-330454Y676511D01*
X-330454Y677309D01*
X-330384Y678105D01*
X-330246Y678891D01*
X-330039Y679662D01*
X-329766Y680413D01*
X-329429Y681136D01*
X-329029Y681828D01*
X-328571Y682482D01*
X-328058Y683093D01*
X-327493Y683658D01*
X-326882Y684171D01*
X-326228Y684629D01*
X-325536Y685029D01*
X-324813Y685366D01*
X-324062Y685639D01*
X-323291Y685846D01*
X-322505Y685984D01*
X-321709Y686054D01*
X-320911Y686054D01*
X-320115Y685984D01*
X-319329Y685846D01*
X-318558Y685639D01*
X-317807Y685366D01*
X-317084Y685029D01*
X-316392Y684629D01*
X-315738Y684171D01*
X-315127Y683658D01*
X-314562Y683093D01*
X-314049Y682482D01*
X-313591Y681828D01*
X-313191Y681136D01*
X-312854Y680413D01*
X-312581Y679662D01*
X-312374Y678891D01*
X-312236Y678105D01*
X-312166Y677309D01*
X-312166Y676511D01*
M02*
