G04 EAGLE Gerber RS-274X export*
G75*
%MOMM*%
%FSLAX34Y34*%
%LPD*%
%INSoldermask Bottom*%
%IPPOS*%
%AMOC8*
5,1,8,0,0,1.08239X$1,22.5*%
G01*
%ADD10C,1.524000*%
%ADD11P,1.649562X8X112.500000*%
%ADD12P,1.649562X8X292.500000*%
%ADD13P,1.649562X8X22.500000*%
%ADD14C,2.743200*%
%ADD15C,1.625600*%
%ADD16P,1.759533X8X22.500000*%
%ADD17P,1.759533X8X202.500000*%
%ADD18P,1.649562X8X202.500000*%
%ADD19C,3.352800*%
%ADD20P,3.629037X8X202.500000*%
%ADD21C,1.524000*%
%ADD22P,3.629037X8X22.500000*%
%ADD23C,1.651000*%
%ADD24R,1.727200X6.045200*%
%ADD25C,3.378200*%
%ADD26C,2.032000*%
%ADD27C,2.362200*%
%ADD28P,2.556822X8X22.500000*%
%ADD29R,1.803400X1.371600*%
%ADD30R,1.828800X0.152400*%


D10*
X-1536700Y6096D02*
X-1536700Y19304D01*
X-1511300Y19304D02*
X-1511300Y6096D01*
X-1384300Y6096D02*
X-1384300Y19304D01*
X-1358900Y19304D02*
X-1358900Y6096D01*
X-1485900Y6096D02*
X-1485900Y19304D01*
X-1460500Y19304D02*
X-1460500Y6096D01*
X-1409700Y6096D02*
X-1409700Y19304D01*
X-1435100Y19304D02*
X-1435100Y6096D01*
X-1333500Y6096D02*
X-1333500Y19304D01*
X-1308100Y19304D02*
X-1308100Y6096D01*
X-1282700Y6096D02*
X-1282700Y19304D01*
X-1257300Y19304D02*
X-1257300Y6096D01*
X-1231900Y6096D02*
X-1231900Y19304D01*
X-1206500Y19304D02*
X-1206500Y6096D01*
X-1181100Y6096D02*
X-1181100Y19304D01*
X-1155700Y19304D02*
X-1155700Y6096D01*
X-1130300Y6096D02*
X-1130300Y19304D01*
X-1104900Y19304D02*
X-1104900Y6096D01*
X-1079500Y6096D02*
X-1079500Y19304D01*
X-1054100Y19304D02*
X-1054100Y6096D01*
X-1054100Y158496D02*
X-1054100Y171704D01*
X-1079500Y171704D02*
X-1079500Y158496D01*
X-1104900Y158496D02*
X-1104900Y171704D01*
X-1130300Y171704D02*
X-1130300Y158496D01*
X-1155700Y158496D02*
X-1155700Y171704D01*
X-1181100Y171704D02*
X-1181100Y158496D01*
X-1206500Y158496D02*
X-1206500Y171704D01*
X-1231900Y171704D02*
X-1231900Y158496D01*
X-1257300Y158496D02*
X-1257300Y171704D01*
X-1282700Y171704D02*
X-1282700Y158496D01*
X-1308100Y158496D02*
X-1308100Y171704D01*
X-1333500Y171704D02*
X-1333500Y158496D01*
X-1358900Y158496D02*
X-1358900Y171704D01*
X-1384300Y171704D02*
X-1384300Y158496D01*
X-1409700Y158496D02*
X-1409700Y171704D01*
X-1435100Y171704D02*
X-1435100Y158496D01*
X-1460500Y158496D02*
X-1460500Y171704D01*
X-1485900Y171704D02*
X-1485900Y158496D01*
X-1511300Y158496D02*
X-1511300Y171704D01*
X-1536700Y171704D02*
X-1536700Y158496D01*
X-914400Y-336296D02*
X-914400Y-349504D01*
X-889000Y-349504D02*
X-889000Y-336296D01*
X-863600Y-336296D02*
X-863600Y-349504D01*
X-838200Y-349504D02*
X-838200Y-336296D01*
X-812800Y-336296D02*
X-812800Y-349504D01*
X-787400Y-349504D02*
X-787400Y-336296D01*
X-762000Y-336296D02*
X-762000Y-349504D01*
X-736600Y-349504D02*
X-736600Y-336296D01*
X-711200Y-336296D02*
X-711200Y-349504D01*
X-685800Y-349504D02*
X-685800Y-336296D01*
X-660400Y-336296D02*
X-660400Y-349504D01*
X-660400Y-247904D02*
X-660400Y-234696D01*
X-685800Y-234696D02*
X-685800Y-247904D01*
X-711200Y-247904D02*
X-711200Y-234696D01*
X-736600Y-234696D02*
X-736600Y-247904D01*
X-762000Y-247904D02*
X-762000Y-234696D01*
X-787400Y-234696D02*
X-787400Y-247904D01*
X-812800Y-247904D02*
X-812800Y-234696D01*
X-838200Y-234696D02*
X-838200Y-247904D01*
X-863600Y-247904D02*
X-863600Y-234696D01*
X-889000Y-234696D02*
X-889000Y-247904D01*
X-914400Y-247904D02*
X-914400Y-234696D01*
X-939800Y450596D02*
X-939800Y463804D01*
X-914400Y463804D02*
X-914400Y450596D01*
X-787400Y450596D02*
X-787400Y463804D01*
X-762000Y463804D02*
X-762000Y450596D01*
X-889000Y450596D02*
X-889000Y463804D01*
X-863600Y463804D02*
X-863600Y450596D01*
X-812800Y450596D02*
X-812800Y463804D01*
X-838200Y463804D02*
X-838200Y450596D01*
X-736600Y450596D02*
X-736600Y463804D01*
X-711200Y463804D02*
X-711200Y450596D01*
X-711200Y526796D02*
X-711200Y540004D01*
X-736600Y540004D02*
X-736600Y526796D01*
X-762000Y526796D02*
X-762000Y540004D01*
X-787400Y540004D02*
X-787400Y526796D01*
X-812800Y526796D02*
X-812800Y540004D01*
X-838200Y540004D02*
X-838200Y526796D01*
X-863600Y526796D02*
X-863600Y540004D01*
X-889000Y540004D02*
X-889000Y526796D01*
X-914400Y526796D02*
X-914400Y540004D01*
X-939800Y540004D02*
X-939800Y526796D01*
D11*
X-1016000Y-304800D03*
X-1016000Y-279400D03*
D12*
X-635000Y533400D03*
X-635000Y482600D03*
D13*
X-520700Y635000D03*
X-444500Y635000D03*
D10*
X-914400Y-120396D02*
X-914400Y-133604D01*
X-889000Y-133604D02*
X-889000Y-120396D01*
X-762000Y-120396D02*
X-762000Y-133604D01*
X-736600Y-133604D02*
X-736600Y-120396D01*
X-863600Y-120396D02*
X-863600Y-133604D01*
X-838200Y-133604D02*
X-838200Y-120396D01*
X-787400Y-120396D02*
X-787400Y-133604D01*
X-812800Y-133604D02*
X-812800Y-120396D01*
X-711200Y-120396D02*
X-711200Y-133604D01*
X-685800Y-133604D02*
X-685800Y-120396D01*
X-685800Y247396D02*
X-685800Y260604D01*
X-711200Y260604D02*
X-711200Y247396D01*
X-736600Y247396D02*
X-736600Y260604D01*
X-762000Y260604D02*
X-762000Y247396D01*
X-787400Y247396D02*
X-787400Y260604D01*
X-812800Y260604D02*
X-812800Y247396D01*
X-838200Y247396D02*
X-838200Y260604D01*
X-863600Y260604D02*
X-863600Y247396D01*
X-889000Y247396D02*
X-889000Y260604D01*
X-914400Y260604D02*
X-914400Y247396D01*
D14*
X-965200Y254000D03*
X-635000Y254000D03*
X-965200Y-127000D03*
X-635000Y-127000D03*
D15*
X-673100Y348488D02*
X-673100Y362712D01*
X-647700Y362712D02*
X-647700Y348488D01*
D11*
X-596900Y-317500D03*
X-596900Y-241300D03*
D16*
X-927100Y406400D03*
X-850900Y406400D03*
D17*
X-736600Y406400D03*
X-812800Y406400D03*
D12*
X-660400Y419100D03*
X-660400Y393700D03*
D11*
X-596900Y431800D03*
X-596900Y508000D03*
X-317500Y419100D03*
X-317500Y495300D03*
D10*
X-927100Y374904D02*
X-927100Y361696D01*
X-901700Y361696D02*
X-901700Y374904D01*
X-876300Y374904D02*
X-876300Y361696D01*
X-850900Y361696D02*
X-850900Y374904D01*
X-825500Y374904D02*
X-825500Y361696D01*
X-800100Y361696D02*
X-800100Y374904D01*
X-774700Y374904D02*
X-774700Y361696D01*
X-749300Y361696D02*
X-749300Y374904D01*
X-520700Y108204D02*
X-520700Y94996D01*
X-495300Y94996D02*
X-495300Y108204D01*
X-368300Y108204D02*
X-368300Y94996D01*
X-342900Y94996D02*
X-342900Y108204D01*
X-469900Y108204D02*
X-469900Y94996D01*
X-444500Y94996D02*
X-444500Y108204D01*
X-393700Y108204D02*
X-393700Y94996D01*
X-419100Y94996D02*
X-419100Y108204D01*
X-342900Y171196D02*
X-342900Y184404D01*
X-368300Y184404D02*
X-368300Y171196D01*
X-393700Y171196D02*
X-393700Y184404D01*
X-419100Y184404D02*
X-419100Y171196D01*
X-444500Y171196D02*
X-444500Y184404D01*
X-469900Y184404D02*
X-469900Y171196D01*
X-495300Y171196D02*
X-495300Y184404D01*
X-520700Y184404D02*
X-520700Y171196D01*
X-520700Y-18796D02*
X-520700Y-32004D01*
X-495300Y-32004D02*
X-495300Y-18796D01*
X-368300Y-18796D02*
X-368300Y-32004D01*
X-368300Y44196D02*
X-368300Y57404D01*
X-469900Y-18796D02*
X-469900Y-32004D01*
X-444500Y-32004D02*
X-444500Y-18796D01*
X-393700Y-18796D02*
X-393700Y-32004D01*
X-419100Y-32004D02*
X-419100Y-18796D01*
X-393700Y44196D02*
X-393700Y57404D01*
X-419100Y57404D02*
X-419100Y44196D01*
X-444500Y44196D02*
X-444500Y57404D01*
X-469900Y57404D02*
X-469900Y44196D01*
X-495300Y44196D02*
X-495300Y57404D01*
X-520700Y57404D02*
X-520700Y44196D01*
X-520700Y298196D02*
X-520700Y311404D01*
X-495300Y311404D02*
X-495300Y298196D01*
X-368300Y298196D02*
X-368300Y311404D01*
X-368300Y374396D02*
X-368300Y387604D01*
X-469900Y311404D02*
X-469900Y298196D01*
X-444500Y298196D02*
X-444500Y311404D01*
X-393700Y311404D02*
X-393700Y298196D01*
X-419100Y298196D02*
X-419100Y311404D01*
X-393700Y374396D02*
X-393700Y387604D01*
X-419100Y387604D02*
X-419100Y374396D01*
X-444500Y374396D02*
X-444500Y387604D01*
X-469900Y387604D02*
X-469900Y374396D01*
X-495300Y374396D02*
X-495300Y387604D01*
X-520700Y387604D02*
X-520700Y374396D01*
D18*
X-1066800Y228600D03*
X-1143000Y228600D03*
D10*
X-1358900Y450596D02*
X-1358900Y463804D01*
X-1333500Y463804D02*
X-1333500Y450596D01*
X-1308100Y450596D02*
X-1308100Y463804D01*
X-1282700Y463804D02*
X-1282700Y450596D01*
X-1282700Y526796D02*
X-1282700Y540004D01*
X-1308100Y540004D02*
X-1308100Y526796D01*
X-1333500Y526796D02*
X-1333500Y540004D01*
X-1358900Y540004D02*
X-1358900Y526796D01*
D12*
X-1181100Y533400D03*
X-1181100Y457200D03*
X-1206500Y533400D03*
X-1206500Y457200D03*
D10*
X-1155700Y450596D02*
X-1155700Y463804D01*
X-1155700Y526796D02*
X-1155700Y540004D01*
D18*
X-1282700Y381000D03*
X-1358900Y381000D03*
D10*
X-1289304Y406400D02*
X-1276096Y406400D01*
X-1352296Y406400D02*
X-1365504Y406400D01*
D12*
X-1130300Y533400D03*
X-1130300Y457200D03*
D11*
X-1244600Y482600D03*
X-1244600Y508000D03*
D12*
X-1409700Y393700D03*
X-1409700Y368300D03*
D18*
X-1397000Y-50800D03*
X-1473200Y-50800D03*
D12*
X-1092200Y266700D03*
X-1073150Y279400D03*
X-1092200Y292100D03*
X-673100Y533400D03*
X-673100Y508000D03*
D19*
X-304800Y-228600D03*
D20*
X-533400Y-228600D03*
D18*
X-558800Y381000D03*
X-584200Y381000D03*
D12*
X-304800Y152400D03*
X-304800Y127000D03*
D21*
X-1549400Y393700D03*
X-1549400Y317500D03*
X-1473200Y317500D03*
X-1473200Y393700D03*
D18*
X-1498600Y457200D03*
X-1524000Y457200D03*
D13*
X-1524000Y215900D03*
X-1498600Y215900D03*
D12*
X-1397000Y508000D03*
X-1397000Y482600D03*
X-965200Y533400D03*
X-965200Y508000D03*
D19*
X-1143000Y304800D03*
D20*
X-1371600Y304800D03*
D19*
X-304800Y-381000D03*
D20*
X-533400Y-381000D03*
D19*
X-571500Y520700D03*
D22*
X-342900Y520700D03*
D19*
X-304800Y241300D03*
D20*
X-533400Y241300D03*
D19*
X-304800Y-88900D03*
D20*
X-533400Y-88900D03*
D11*
X-330200Y0D03*
X-330200Y25400D03*
X-330200Y330200D03*
X-330200Y355600D03*
D19*
X-304800Y-304800D03*
D20*
X-533400Y-304800D03*
D12*
X-965200Y-279400D03*
X-965200Y-304800D03*
D15*
X-1257300Y208788D02*
X-1257300Y223012D01*
X-1231900Y223012D02*
X-1231900Y208788D01*
D18*
X-1384300Y215900D03*
X-1460500Y215900D03*
D23*
X-914400Y-157861D02*
X-914400Y-172339D01*
X-889000Y-172339D02*
X-889000Y-157861D01*
X-762000Y-157861D02*
X-762000Y-172339D01*
X-736600Y-172339D02*
X-736600Y-157861D01*
X-863600Y-157861D02*
X-863600Y-172339D01*
X-838200Y-172339D02*
X-838200Y-157861D01*
X-787400Y-157861D02*
X-787400Y-172339D01*
X-812800Y-172339D02*
X-812800Y-157861D01*
X-711200Y-157861D02*
X-711200Y-172339D01*
X-685800Y-172339D02*
X-685800Y-157861D01*
X-685800Y284861D02*
X-685800Y299339D01*
X-711200Y299339D02*
X-711200Y284861D01*
X-736600Y284861D02*
X-736600Y299339D01*
X-762000Y299339D02*
X-762000Y284861D01*
X-787400Y284861D02*
X-787400Y299339D01*
X-812800Y299339D02*
X-812800Y284861D01*
X-838200Y284861D02*
X-838200Y299339D01*
X-863600Y299339D02*
X-863600Y284861D01*
X-889000Y284861D02*
X-889000Y299339D01*
X-914400Y299339D02*
X-914400Y284861D01*
D14*
X-1002030Y317500D03*
X-580390Y317500D03*
X-1002030Y-190500D03*
X-580390Y-190500D03*
D11*
X-431800Y-495300D03*
X-431800Y-469900D03*
D10*
X-393700Y-438404D02*
X-393700Y-425196D01*
X-393700Y-526796D02*
X-393700Y-540004D01*
X-469900Y-438404D02*
X-469900Y-425196D01*
X-469900Y-526796D02*
X-469900Y-540004D01*
X-317500Y-540004D02*
X-317500Y-526796D01*
X-317500Y-438404D02*
X-317500Y-425196D01*
D24*
X-1122680Y-594360D03*
X-1154430Y-594360D03*
X-1186180Y-594360D03*
X-1217930Y-594360D03*
X-1249680Y-594360D03*
X-1281430Y-594360D03*
X-1313180Y-594360D03*
X-1344930Y-594360D03*
X-1376680Y-594360D03*
X-1408430Y-594360D03*
X-1440180Y-594360D03*
X-1471930Y-594360D03*
X-1503680Y-594360D03*
X-1535430Y-594360D03*
X-1567180Y-594360D03*
X-1598930Y-594360D03*
X-1630680Y-594360D03*
X-1662430Y-594360D03*
X-1694180Y-594360D03*
X-1725930Y-594360D03*
X-1757680Y-594360D03*
X-1789430Y-594360D03*
X-1821180Y-594360D03*
X-1852930Y-594360D03*
X-1884680Y-594360D03*
X-1090930Y-594360D03*
X-1059180Y-594360D03*
X-1027430Y-594360D03*
X-995680Y-594360D03*
X-963930Y-594360D03*
X-932180Y-594360D03*
X-900430Y-594360D03*
X-868680Y-594360D03*
X-836930Y-594360D03*
X-805180Y-594360D03*
X-773430Y-594360D03*
X-741680Y-594360D03*
X-709930Y-594360D03*
X-678180Y-594360D03*
X-646430Y-594360D03*
X-614680Y-594360D03*
X-582930Y-594360D03*
X-551180Y-594360D03*
X-519430Y-594360D03*
X-487680Y-594360D03*
X-455930Y-594360D03*
X-424180Y-594360D03*
X-392430Y-594360D03*
X-360680Y-594360D03*
X-328930Y-594360D03*
D25*
X-1924050Y647700D03*
X-289560Y647700D03*
D26*
X-1887220Y676910D03*
X-321310Y676910D03*
D10*
X-501396Y-533400D02*
X-514604Y-533400D01*
X-514604Y-431800D02*
X-501396Y-431800D01*
X-362204Y-533400D02*
X-348996Y-533400D01*
X-348996Y-431800D02*
X-362204Y-431800D01*
X-1181100Y-501396D02*
X-1181100Y-514604D01*
X-1155700Y-514604D02*
X-1155700Y-501396D01*
X-1028700Y-501396D02*
X-1028700Y-514604D01*
X-1003300Y-514604D02*
X-1003300Y-501396D01*
X-1130300Y-501396D02*
X-1130300Y-514604D01*
X-1104900Y-514604D02*
X-1104900Y-501396D01*
X-1054100Y-501396D02*
X-1054100Y-514604D01*
X-1079500Y-514604D02*
X-1079500Y-501396D01*
X-977900Y-501396D02*
X-977900Y-514604D01*
X-952500Y-514604D02*
X-952500Y-501396D01*
X-952500Y-438404D02*
X-952500Y-425196D01*
X-977900Y-425196D02*
X-977900Y-438404D01*
X-1003300Y-438404D02*
X-1003300Y-425196D01*
X-1028700Y-425196D02*
X-1028700Y-438404D01*
X-1054100Y-438404D02*
X-1054100Y-425196D01*
X-1079500Y-425196D02*
X-1079500Y-438404D01*
X-1104900Y-438404D02*
X-1104900Y-425196D01*
X-1130300Y-425196D02*
X-1130300Y-438404D01*
X-1155700Y-438404D02*
X-1155700Y-425196D01*
X-1181100Y-425196D02*
X-1181100Y-438404D01*
X-1193800Y-387604D02*
X-1193800Y-374396D01*
X-1168400Y-374396D02*
X-1168400Y-387604D01*
X-1143000Y-387604D02*
X-1143000Y-374396D01*
X-1117600Y-374396D02*
X-1117600Y-387604D01*
X-1092200Y-387604D02*
X-1092200Y-374396D01*
X-1066800Y-374396D02*
X-1066800Y-387604D01*
X-1041400Y-387604D02*
X-1041400Y-374396D01*
X-1498600Y-209804D02*
X-1498600Y-196596D01*
X-1473200Y-196596D02*
X-1473200Y-209804D01*
X-1447800Y-209804D02*
X-1447800Y-196596D01*
X-1422400Y-196596D02*
X-1422400Y-209804D01*
X-1397000Y-209804D02*
X-1397000Y-196596D01*
X-1371600Y-196596D02*
X-1371600Y-209804D01*
X-1346200Y-209804D02*
X-1346200Y-196596D01*
X-1320800Y-196596D02*
X-1320800Y-209804D01*
X-1295400Y-209804D02*
X-1295400Y-196596D01*
X-1270000Y-196596D02*
X-1270000Y-209804D01*
X-1244600Y-209804D02*
X-1244600Y-196596D01*
X-1219200Y-196596D02*
X-1219200Y-209804D01*
X-1219200Y-133604D02*
X-1219200Y-120396D01*
X-1244600Y-120396D02*
X-1244600Y-133604D01*
X-1270000Y-133604D02*
X-1270000Y-120396D01*
X-1295400Y-120396D02*
X-1295400Y-133604D01*
X-1320800Y-133604D02*
X-1320800Y-120396D01*
X-1346200Y-120396D02*
X-1346200Y-133604D01*
X-1371600Y-133604D02*
X-1371600Y-120396D01*
X-1397000Y-120396D02*
X-1397000Y-133604D01*
X-1422400Y-133604D02*
X-1422400Y-120396D01*
X-1447800Y-120396D02*
X-1447800Y-133604D01*
X-1473200Y-133604D02*
X-1473200Y-120396D01*
X-1498600Y-120396D02*
X-1498600Y-133604D01*
X-1587500Y-501396D02*
X-1587500Y-514604D01*
X-1562100Y-514604D02*
X-1562100Y-501396D01*
X-1536700Y-501396D02*
X-1536700Y-514604D01*
X-1511300Y-514604D02*
X-1511300Y-501396D01*
X-1485900Y-501396D02*
X-1485900Y-514604D01*
X-1460500Y-514604D02*
X-1460500Y-501396D01*
X-1435100Y-501396D02*
X-1435100Y-514604D01*
X-1409700Y-514604D02*
X-1409700Y-501396D01*
X-1384300Y-501396D02*
X-1384300Y-514604D01*
X-1358900Y-514604D02*
X-1358900Y-501396D01*
X-1333500Y-501396D02*
X-1333500Y-514604D01*
X-1308100Y-514604D02*
X-1308100Y-501396D01*
X-1308100Y-438404D02*
X-1308100Y-425196D01*
X-1333500Y-425196D02*
X-1333500Y-438404D01*
X-1358900Y-438404D02*
X-1358900Y-425196D01*
X-1384300Y-425196D02*
X-1384300Y-438404D01*
X-1409700Y-438404D02*
X-1409700Y-425196D01*
X-1435100Y-425196D02*
X-1435100Y-438404D01*
X-1460500Y-438404D02*
X-1460500Y-425196D01*
X-1485900Y-425196D02*
X-1485900Y-438404D01*
X-1511300Y-438404D02*
X-1511300Y-425196D01*
X-1536700Y-425196D02*
X-1536700Y-438404D01*
X-1562100Y-438404D02*
X-1562100Y-425196D01*
X-1587500Y-425196D02*
X-1587500Y-438404D01*
X-1803400Y-501396D02*
X-1803400Y-514604D01*
X-1778000Y-514604D02*
X-1778000Y-501396D01*
X-1651000Y-501396D02*
X-1651000Y-514604D01*
X-1651000Y-438404D02*
X-1651000Y-425196D01*
X-1752600Y-501396D02*
X-1752600Y-514604D01*
X-1727200Y-514604D02*
X-1727200Y-501396D01*
X-1676400Y-501396D02*
X-1676400Y-514604D01*
X-1701800Y-514604D02*
X-1701800Y-501396D01*
X-1676400Y-438404D02*
X-1676400Y-425196D01*
X-1701800Y-425196D02*
X-1701800Y-438404D01*
X-1727200Y-438404D02*
X-1727200Y-425196D01*
X-1752600Y-425196D02*
X-1752600Y-438404D01*
X-1778000Y-438404D02*
X-1778000Y-425196D01*
X-1803400Y-425196D02*
X-1803400Y-438404D01*
X-800100Y-501396D02*
X-800100Y-514604D01*
X-774700Y-514604D02*
X-774700Y-501396D01*
X-647700Y-501396D02*
X-647700Y-514604D01*
X-622300Y-514604D02*
X-622300Y-501396D01*
X-749300Y-501396D02*
X-749300Y-514604D01*
X-723900Y-514604D02*
X-723900Y-501396D01*
X-673100Y-501396D02*
X-673100Y-514604D01*
X-698500Y-514604D02*
X-698500Y-501396D01*
X-596900Y-501396D02*
X-596900Y-514604D01*
X-571500Y-514604D02*
X-571500Y-501396D01*
X-571500Y-438404D02*
X-571500Y-425196D01*
X-596900Y-425196D02*
X-596900Y-438404D01*
X-622300Y-438404D02*
X-622300Y-425196D01*
X-647700Y-425196D02*
X-647700Y-438404D01*
X-673100Y-438404D02*
X-673100Y-425196D01*
X-698500Y-425196D02*
X-698500Y-438404D01*
X-723900Y-438404D02*
X-723900Y-425196D01*
X-749300Y-425196D02*
X-749300Y-438404D01*
X-774700Y-438404D02*
X-774700Y-425196D01*
X-800100Y-425196D02*
X-800100Y-438404D01*
X-1803400Y-197104D02*
X-1803400Y-183896D01*
X-1778000Y-183896D02*
X-1778000Y-197104D01*
X-1651000Y-197104D02*
X-1651000Y-183896D01*
X-1625600Y-183896D02*
X-1625600Y-197104D01*
X-1752600Y-197104D02*
X-1752600Y-183896D01*
X-1727200Y-183896D02*
X-1727200Y-197104D01*
X-1676400Y-197104D02*
X-1676400Y-183896D01*
X-1701800Y-183896D02*
X-1701800Y-197104D01*
X-1625600Y-120904D02*
X-1625600Y-107696D01*
X-1651000Y-107696D02*
X-1651000Y-120904D01*
X-1676400Y-120904D02*
X-1676400Y-107696D01*
X-1701800Y-107696D02*
X-1701800Y-120904D01*
X-1727200Y-120904D02*
X-1727200Y-107696D01*
X-1752600Y-107696D02*
X-1752600Y-120904D01*
X-1778000Y-120904D02*
X-1778000Y-107696D01*
X-1803400Y-107696D02*
X-1803400Y-120904D01*
D18*
X-1701800Y-228600D03*
X-1778000Y-228600D03*
D10*
X-1803400Y-32004D02*
X-1803400Y-18796D01*
X-1778000Y-18796D02*
X-1778000Y-32004D01*
X-1651000Y-32004D02*
X-1651000Y-18796D01*
X-1651000Y44196D02*
X-1651000Y57404D01*
X-1752600Y-18796D02*
X-1752600Y-32004D01*
X-1727200Y-32004D02*
X-1727200Y-18796D01*
X-1676400Y-18796D02*
X-1676400Y-32004D01*
X-1701800Y-32004D02*
X-1701800Y-18796D01*
X-1676400Y44196D02*
X-1676400Y57404D01*
X-1701800Y57404D02*
X-1701800Y44196D01*
X-1727200Y44196D02*
X-1727200Y57404D01*
X-1752600Y57404D02*
X-1752600Y44196D01*
X-1778000Y44196D02*
X-1778000Y57404D01*
X-1803400Y57404D02*
X-1803400Y44196D01*
X-1803400Y133096D02*
X-1803400Y146304D01*
X-1778000Y146304D02*
X-1778000Y133096D01*
X-1651000Y133096D02*
X-1651000Y146304D01*
X-1651000Y209296D02*
X-1651000Y222504D01*
X-1752600Y146304D02*
X-1752600Y133096D01*
X-1727200Y133096D02*
X-1727200Y146304D01*
X-1676400Y146304D02*
X-1676400Y133096D01*
X-1701800Y133096D02*
X-1701800Y146304D01*
X-1676400Y209296D02*
X-1676400Y222504D01*
X-1701800Y222504D02*
X-1701800Y209296D01*
X-1727200Y209296D02*
X-1727200Y222504D01*
X-1752600Y222504D02*
X-1752600Y209296D01*
X-1778000Y209296D02*
X-1778000Y222504D01*
X-1803400Y222504D02*
X-1803400Y209296D01*
D18*
X-1714500Y101600D03*
X-1790700Y101600D03*
D10*
X-1803400Y-336296D02*
X-1803400Y-349504D01*
X-1778000Y-349504D02*
X-1778000Y-336296D01*
X-1651000Y-336296D02*
X-1651000Y-349504D01*
X-1625600Y-349504D02*
X-1625600Y-336296D01*
X-1752600Y-336296D02*
X-1752600Y-349504D01*
X-1727200Y-349504D02*
X-1727200Y-336296D01*
X-1676400Y-336296D02*
X-1676400Y-349504D01*
X-1701800Y-349504D02*
X-1701800Y-336296D01*
X-1625600Y-273304D02*
X-1625600Y-260096D01*
X-1651000Y-260096D02*
X-1651000Y-273304D01*
X-1676400Y-273304D02*
X-1676400Y-260096D01*
X-1701800Y-260096D02*
X-1701800Y-273304D01*
X-1727200Y-273304D02*
X-1727200Y-260096D01*
X-1752600Y-260096D02*
X-1752600Y-273304D01*
X-1778000Y-273304D02*
X-1778000Y-260096D01*
X-1803400Y-260096D02*
X-1803400Y-273304D01*
X-1879600Y-412496D02*
X-1879600Y-425704D01*
X-1854200Y-425704D02*
X-1854200Y-412496D01*
X-1854200Y-349504D02*
X-1854200Y-336296D01*
X-1879600Y-336296D02*
X-1879600Y-349504D01*
D12*
X-1866900Y-228600D03*
X-1866900Y-304800D03*
X-1892300Y-228600D03*
X-1892300Y-304800D03*
D10*
X-1498600Y-336296D02*
X-1498600Y-349504D01*
X-1473200Y-349504D02*
X-1473200Y-336296D01*
X-1346200Y-336296D02*
X-1346200Y-349504D01*
X-1346200Y-273304D02*
X-1346200Y-260096D01*
X-1447800Y-336296D02*
X-1447800Y-349504D01*
X-1422400Y-349504D02*
X-1422400Y-336296D01*
X-1371600Y-336296D02*
X-1371600Y-349504D01*
X-1397000Y-349504D02*
X-1397000Y-336296D01*
X-1371600Y-273304D02*
X-1371600Y-260096D01*
X-1397000Y-260096D02*
X-1397000Y-273304D01*
X-1422400Y-273304D02*
X-1422400Y-260096D01*
X-1447800Y-260096D02*
X-1447800Y-273304D01*
X-1473200Y-273304D02*
X-1473200Y-260096D01*
X-1498600Y-260096D02*
X-1498600Y-273304D01*
D13*
X-1485900Y-381000D03*
X-1409700Y-381000D03*
X-1384300Y-381000D03*
X-1358900Y-381000D03*
D10*
X-1295400Y-57404D02*
X-1295400Y-44196D01*
X-1270000Y-44196D02*
X-1270000Y-57404D01*
X-1244600Y-57404D02*
X-1244600Y-44196D01*
X-1219200Y-44196D02*
X-1219200Y-57404D01*
X-1193800Y-57404D02*
X-1193800Y-44196D01*
D12*
X-1828800Y-482600D03*
X-1828800Y-508000D03*
X-1828800Y-266700D03*
X-1828800Y-292100D03*
X-1828800Y-114300D03*
X-1828800Y-139700D03*
X-1828800Y50800D03*
X-1828800Y25400D03*
X-1828800Y215900D03*
X-1828800Y190500D03*
X-1828800Y482600D03*
X-1828800Y457200D03*
X-1524000Y-127000D03*
X-1524000Y-152400D03*
X-1612900Y-431800D03*
X-1612900Y-457200D03*
X-1524000Y-266700D03*
X-1524000Y-292100D03*
X-1270000Y-431800D03*
X-1270000Y-457200D03*
X-825500Y-431800D03*
X-825500Y-457200D03*
D27*
X-527050Y584200D03*
D28*
X-336550Y584200D03*
D27*
X-539750Y444500D03*
D28*
X-349250Y444500D03*
D27*
X-501650Y-158750D03*
D28*
X-311150Y-158750D03*
D29*
X-1676400Y5080D03*
X-1676400Y20320D03*
D30*
X-1676400Y12700D03*
D29*
X-1727200Y5080D03*
X-1727200Y20320D03*
D30*
X-1727200Y12700D03*
D29*
X-1778000Y5080D03*
X-1778000Y20320D03*
D30*
X-1778000Y12700D03*
D18*
X-1498600Y533400D03*
X-1524000Y533400D03*
X-1600200Y533400D03*
X-1625600Y533400D03*
D10*
X-1803400Y413004D02*
X-1803400Y399796D01*
X-1778000Y399796D02*
X-1778000Y413004D01*
X-1651000Y413004D02*
X-1651000Y399796D01*
X-1625600Y399796D02*
X-1625600Y413004D01*
X-1752600Y413004D02*
X-1752600Y399796D01*
X-1727200Y399796D02*
X-1727200Y413004D01*
X-1676400Y413004D02*
X-1676400Y399796D01*
X-1701800Y399796D02*
X-1701800Y413004D01*
X-1625600Y475996D02*
X-1625600Y489204D01*
X-1651000Y489204D02*
X-1651000Y475996D01*
X-1676400Y475996D02*
X-1676400Y489204D01*
X-1701800Y489204D02*
X-1701800Y475996D01*
X-1727200Y475996D02*
X-1727200Y489204D01*
X-1752600Y489204D02*
X-1752600Y475996D01*
X-1778000Y475996D02*
X-1778000Y489204D01*
X-1803400Y489204D02*
X-1803400Y475996D01*
D18*
X-1778000Y342900D03*
X-1854200Y342900D03*
D13*
X-1778000Y520700D03*
X-1752600Y520700D03*
D18*
X-1765300Y368300D03*
X-1841500Y368300D03*
D13*
X-1778000Y558800D03*
X-1701800Y558800D03*
D18*
X-1625600Y304800D03*
X-1701800Y304800D03*
X-1651000Y368300D03*
X-1676400Y368300D03*
X-1651000Y330200D03*
X-1727200Y330200D03*
D13*
X-1879600Y558800D03*
X-1803400Y558800D03*
D10*
X-1181100Y-323596D02*
X-1181100Y-336804D01*
X-1155700Y-336804D02*
X-1155700Y-323596D01*
X-1104900Y-260604D02*
X-1104900Y-247396D01*
X-1130300Y-247396D02*
X-1130300Y-260604D01*
X-1130300Y-323596D02*
X-1130300Y-336804D01*
X-1104900Y-336804D02*
X-1104900Y-323596D01*
X-1079500Y-260604D02*
X-1079500Y-247396D01*
X-1079500Y-323596D02*
X-1079500Y-336804D01*
X-1155700Y-260604D02*
X-1155700Y-247396D01*
X-1181100Y-247396D02*
X-1181100Y-260604D01*
M02*
